<svg width="6" height="10" viewBox="0 0 6 10" fill="none" xmlns="http://www.w3.org/2000/svg">
<path d="M5.36384 4.65179C5.42336 4.71131 5.45312 4.77976 5.45312 4.85714C5.45312 4.93452 5.42336 5.00298 5.36384 5.0625L1.20312 9.22321C1.1436 9.28274 1.07515 9.3125 0.997768 9.3125C0.920387 9.3125 0.851935 9.28274 0.792411 9.22321L0.345982 8.77679C0.286458 8.71726 0.256696 8.64881 0.256696 8.57143C0.256696 8.49405 0.286458 8.4256 0.345982 8.36607L3.85491 4.85714L0.345982 1.34821C0.286458 1.28869 0.256696 1.22024 0.256696 1.14286C0.256696 1.06548 0.286458 0.997024 0.345982 0.9375L0.792411 0.491072C0.851935 0.431547 0.920387 0.401786 0.997768 0.401786C1.07515 0.401786 1.1436 0.431547 1.20312 0.491072L5.36384 4.65179Z" fill="#1A64F0"/>
</svg>
