<svg width="6" height="10" viewBox="0 0 6 10" fill="none" xmlns="http://www.w3.org/2000/svg">
<path d="M5.44955 0.9375C5.50908 0.997024 5.53884 1.06548 5.53884 1.14286C5.53884 1.22024 5.50908 1.28869 5.44955 1.34821L1.94062 4.85714L5.44955 8.36607C5.50908 8.4256 5.53884 8.49405 5.53884 8.57143C5.53884 8.64881 5.50908 8.71726 5.44955 8.77679L5.00312 9.22321C4.9436 9.28274 4.87515 9.3125 4.79777 9.3125C4.72039 9.3125 4.65193 9.28274 4.59241 9.22321L0.431696 5.0625C0.372173 5.00298 0.342411 4.93452 0.342411 4.85714C0.342411 4.77976 0.372173 4.71131 0.431696 4.65179L4.59241 0.491072C4.65193 0.431547 4.72039 0.401786 4.79777 0.401786C4.87515 0.401786 4.9436 0.431547 5.00312 0.491072L5.44955 0.9375Z" fill="#1A64F0"/>
</svg>
