<svg width="24" height="24" viewBox="0 0 24 24" fill="none" xmlns="http://www.w3.org/2000/svg">
<g clip-path="url(#clip0_2498_99862)">
<path d="M12.0873 8.22667C12.0873 10.5502 10.2437 12.4338 7.96939 12.4338C5.6952 12.4338 3.85156 10.5502 3.85156 8.22667C3.85156 5.90307 5.6952 4.01945 7.96939 4.01945C10.2437 4.01945 12.0873 5.90307 12.0873 8.22667Z" stroke="#111111" stroke-width="1.5" stroke-miterlimit="10"/>
<path d="M1.84111 19.957C1.13953 19.957 0.598919 19.3108 0.724169 18.6055C1.34733 15.0956 4.35393 12.4339 7.96903 12.4339C11.5841 12.4339 14.5907 15.0956 15.2139 18.6055C15.3391 19.3108 14.7985 19.957 14.0969 19.957H1.84111Z" stroke="#111111" stroke-width="1.5" stroke-miterlimit="10"/>
<path d="M20.8655 7.64185C20.8655 9.44054 19.4384 10.8987 17.6779 10.8987C15.9174 10.8987 14.4902 9.44054 14.4902 7.64185C14.4902 5.84321 15.9174 4.38507 17.6779 4.38507C19.4384 4.38507 20.8655 5.84321 20.8655 7.64185Z" stroke="#111111" stroke-width="1.5" stroke-miterlimit="10"/>
<path d="M12.5879 14.0977C13.5273 12.1998 15.4537 10.8986 17.6776 10.8986C20.476 10.8986 22.8035 12.9589 23.2858 15.676C23.3828 16.2219 22.9643 16.7222 22.4212 16.7222H14.6188" stroke="#111111" stroke-width="1.5" stroke-miterlimit="10"/>
</g>
<defs>
<clipPath id="clip0_2498_99862">
<rect width="24" height="24" fill="white"/>
</clipPath>
</defs>
</svg>
