<svg width="20" height="20" viewBox="0 0 20 20" fill="none" xmlns="http://www.w3.org/2000/svg">
<path d="M17.8286 4.18086C17.599 3.9403 17.227 3.93967 16.9966 4.17922L12.5302 8.82822L11.2394 7.47923C11.0096 7.23927 10.6375 7.23905 10.4076 7.47923L5.17236 12.9506C4.94255 13.1906 4.94255 13.5799 5.17236 13.8199C5.28707 13.94 5.43767 14 5.58826 14C5.73864 14 5.88944 13.94 6.00412 13.8199L10.8235 8.78337L12.1135 10.1313C12.3431 10.3713 12.7143 10.3715 12.9445 10.1323L17.8268 5.05032C18.057 4.81078 18.0578 4.42143 17.8286 4.18086Z" fill="white" stroke="white" stroke-width="0.5"/>
<path d="M17.3737 16.0606H3.21212V3.33336C3.21212 2.99861 2.94081 2.72729 2.60606 2.72729C2.27131 2.72729 2 2.99861 2 3.33336V16.6667C2 17.0014 2.27131 17.2727 2.60606 17.2727H17.3737C17.7085 17.2727 17.9798 17.0014 17.9798 16.6667C17.9798 16.3319 17.7085 16.0606 17.3737 16.0606Z" fill="white" stroke="white" stroke-width="0.5"/>
<path d="M17.3684 4H12.6316C12.2827 4 12 4.28273 12 4.63156C12 4.98039 12.2827 5.26312 12.6316 5.26312H16.7369V9.36844C16.7369 9.71705 17.0196 10 17.3684 10C17.7173 10 18 9.71705 18 9.36821V4.63156C18 4.28273 17.7173 4 17.3684 4Z" fill="white" stroke="white" stroke-width="0.5"/>
</svg>
