<svg width="19" height="19" viewBox="0 0 19 19" fill="none" xmlns="http://www.w3.org/2000/svg">
<path fill-rule="evenodd" clip-rule="evenodd" d="M10.8293 16.951H7.90245C7.31709 16.951 6.73026 16.1293 6.23855 14.9564L4.24391 16.951L3.51221 16.2193V13.2925L5.25587 11.5488C5.07806 10.6035 4.97562 9.67567 4.97562 8.90226C4.97562 5.97543 7.17074 2.31689 9.36587 2.31689C11.561 2.31689 13.7561 5.97543 13.7561 8.90226C13.7561 9.67641 13.6537 10.6035 13.4759 11.5488L15.2195 13.2925V16.2193L14.4878 16.951L12.4932 14.9564C12.0015 16.1293 11.4154 16.951 10.8293 16.951ZM9.36587 15.4876H8.18416C8.13756 15.4291 8.09384 15.3683 8.05318 15.3054C7.79928 14.9162 7.52635 14.3067 7.2783 13.5618C6.77196 12.0413 6.43904 10.1864 6.43904 8.90226C6.43904 6.56226 8.22733 3.78031 9.36587 3.78031C10.5044 3.78031 12.2927 6.56226 12.2927 8.90226C12.2927 10.1864 11.9598 12.042 11.4534 13.5618C11.2046 14.3067 10.9325 14.9154 10.6778 15.3054C10.6374 15.3682 10.5939 15.429 10.5476 15.4876H9.36587ZM9.36587 9.63397C9.75399 9.63397 10.1262 9.47979 10.4007 9.20534C10.6751 8.9309 10.8293 8.55867 10.8293 8.17055C10.8293 7.78243 10.6751 7.41021 10.4007 7.13576C10.1262 6.86132 9.75399 6.70714 9.36587 6.70714C8.97774 6.70714 8.60552 6.86132 8.33108 7.13576C8.05663 7.41021 7.90245 7.78243 7.90245 8.17055C7.90245 8.55867 8.05663 8.9309 8.33108 9.20534C8.60552 9.47979 8.97774 9.63397 9.36587 9.63397Z" fill="#1A64F0"/>
</svg>
