<svg width="64" height="64" viewBox="0 0 64 64" fill="none" xmlns="http://www.w3.org/2000/svg">
<path fill-rule="evenodd" clip-rule="evenodd" d="M15.3902 34.1646C15.3902 31.9554 17.1811 30.1646 19.3902 30.1646H59C61.2091 30.1646 63 31.9554 63 34.1646V54.6011C63 56.8103 61.2091 58.6011 59 58.6011H56.5662V63.7714L51.4192 58.6011H19.3902C17.1811 58.6011 15.3902 56.8103 15.3902 54.6011V34.1646Z" fill="url(#paint0_linear_1_5538)"/>
<circle r="2.80057" transform="matrix(-1 0 0 1 48.9978 44.1673)" fill="white"/>
<circle r="2.80057" transform="matrix(-1 0 0 1 39.196 44.1673)" fill="white"/>
<circle r="2.80057" transform="matrix(-1 0 0 1 29.3918 44.1673)" fill="white"/>
<path fill-rule="evenodd" clip-rule="evenodd" d="M36.2195 4C36.2195 1.79086 34.4286 0 32.2195 0H6C3.79086 0 2 1.79086 2 3.99999V32.3356C2 34.5448 3.79086 36.3356 6 36.3356H10.2209V42.9421L16.7976 36.3356H32.2195C34.4287 36.3356 36.2195 34.5448 36.2195 32.3357V4Z" fill="url(#paint1_linear_1_5538)"/>
<path d="M17.9579 21.7639V21.1784C17.9579 20.2558 18.091 19.4839 18.3572 18.8629C18.6322 18.2419 18.9782 17.714 19.3952 17.2793C19.8121 16.8446 20.238 16.4409 20.6727 16.0683C21.2227 15.5981 21.7062 15.1146 22.1232 14.6178C22.5402 14.121 22.7487 13.4689 22.7487 12.6616C22.7487 11.8454 22.4648 11.1578 21.897 10.5989C21.3292 10.04 20.513 9.7605 19.4484 9.7605C18.2507 9.7605 17.3192 10.0932 16.6538 10.7586C15.9973 11.4151 15.669 12.2889 15.669 13.3802H13.4067C13.4067 12.2357 13.6551 11.2288 14.152 10.3593C14.6577 9.48992 15.363 8.81567 16.2679 8.33659C17.1728 7.84865 18.233 7.60468 19.4484 7.60468C20.6638 7.60468 21.6885 7.8309 22.5224 8.28336C23.3652 8.73582 24.004 9.34797 24.4387 10.1198C24.8734 10.8828 25.0908 11.7389 25.0908 12.6882C25.0908 13.46 24.9666 14.1165 24.7182 14.6577C24.4698 15.19 24.1548 15.6558 23.7733 16.055C23.3919 16.4542 22.9971 16.8313 22.589 17.1861C22.1986 17.5233 21.826 17.8737 21.4711 18.2374C21.1251 18.6012 20.8412 19.0226 20.6195 19.5017C20.4065 19.9719 20.3001 20.5397 20.3001 21.205V21.7639H17.9579ZM19.0758 26.9007C18.5612 26.9007 18.1265 26.7188 17.7716 26.3551C17.4168 25.9913 17.2393 25.5699 17.2393 25.0908C17.2393 24.6118 17.4168 24.1859 17.7716 23.8133C18.1265 23.4407 18.5612 23.2544 19.0758 23.2544C19.5992 23.2544 20.0384 23.4407 20.3932 23.8133C20.757 24.1859 20.9388 24.6118 20.9388 25.0908C20.9388 25.5699 20.757 25.9913 20.3932 26.3551C20.0384 26.7188 19.5992 26.9007 19.0758 26.9007Z" fill="#FEF4F4"/>
<defs>
<linearGradient id="paint0_linear_1_5538" x1="39.1951" y1="30.1646" x2="39.1951" y2="60.54" gradientUnits="userSpaceOnUse">
<stop offset="0.0286547" stop-color="#043B48"/>
<stop offset="1" stop-color="#445BD3"/>
</linearGradient>
<linearGradient id="paint1_linear_1_5538" x1="32.4174" y1="0" x2="32.4174" y2="38.8131" gradientUnits="userSpaceOnUse">
<stop offset="0.0286547" stop-color="#1AC7F0"/>
<stop offset="1" stop-color="#445BD3"/>
</linearGradient>
</defs>
</svg>
