<svg width="20" height="20" viewBox="0 0 20 20" fill="none" xmlns="http://www.w3.org/2000/svg">
<path fill-rule="evenodd" clip-rule="evenodd" d="M10.2401 3.33739L10.0016 3.33337C6.55086 3.33337 3.44101 5.76928 1.71739 9.7549C1.64971 9.91141 1.64971 10.0887 1.71739 10.2452L1.83682 10.514C3.53861 14.2443 6.4795 16.5537 9.75979 16.6627L9.99829 16.6667C13.4491 16.6667 16.5589 14.2308 18.2825 10.2452C18.3511 10.0867 18.3502 9.90704 18.28 9.74924L18.164 9.48807C16.4581 5.7508 13.5159 3.44626 10.2401 3.33739ZM10.0077 4.57452L10.2068 4.57881L10.4293 4.59038C13.0937 4.77904 15.544 6.75462 17.0244 9.99926L17.0166 10.0193C15.4991 13.3337 12.9643 15.3211 10.216 15.4208L10.0036 15.424L9.78933 15.4211L9.56739 15.4096C6.98581 15.2267 4.60553 13.362 3.11617 10.2998L2.97522 9.99926L3.1057 9.72183C4.6762 6.47763 7.24312 4.57523 10.0077 4.57452ZM9.99985 6.76121C8.19951 6.76121 6.74068 8.21094 6.74068 10.0002C6.74068 11.7887 8.19967 13.2383 9.99985 13.2383C11.8001 13.2383 13.2598 11.7886 13.2598 10.0002C13.2598 8.21103 11.8003 6.76121 9.99985 6.76121ZM9.99985 8.00314C11.11 8.00314 12.0098 8.89699 12.0098 10.0002C12.0098 11.1026 11.1099 11.9963 9.99985 11.9963C8.89003 11.9963 7.99068 11.1028 7.99068 10.0002C7.99068 8.89677 8.88993 8.00314 9.99985 8.00314Z" fill="#111111"/>
</svg>
