<svg width="20" height="20" viewBox="0 0 20 20" fill="none" xmlns="http://www.w3.org/2000/svg">
<path d="M8.16663 7.33337H3.16663C2.52332 7.33337 2 6.81006 2 6.16663V3.16663C2 2.52332 2.52332 2 3.16663 2H8.16663C8.81006 2 9.33337 2.52332 9.33337 3.16663V6.16663C9.33337 6.81006 8.81006 7.33337 8.16663 7.33337ZM3.16663 3C3.07471 3 3 3.07471 3 3.16663V6.16663C3 6.25867 3.07471 6.33337 3.16663 6.33337H8.16663C8.25867 6.33337 8.33337 6.25867 8.33337 6.16663V3.16663C8.33337 3.07471 8.25867 3 8.16663 3H3.16663Z" fill="white" stroke="white" stroke-width="0.5"/>
<path d="M8.16663 18.0001H3.16663C2.52332 18.0001 2 17.4768 2 16.8335V9.8335C2 9.19006 2.52332 8.66675 3.16663 8.66675H8.16663C8.81006 8.66675 9.33337 9.19006 9.33337 9.8335V16.8335C9.33337 17.4768 8.81006 18.0001 8.16663 18.0001ZM3.16663 9.66675C3.07471 9.66675 3 9.74146 3 9.8335V16.8335C3 16.9254 3.07471 17.0001 3.16663 17.0001H8.16663C8.25867 17.0001 8.33337 16.9254 8.33337 16.8335V9.8335C8.33337 9.74146 8.25867 9.66675 8.16663 9.66675H3.16663Z" fill="white" stroke="white" stroke-width="0.5"/>
<path d="M16.8337 18.0001H11.8337C11.1903 18.0001 10.667 17.4768 10.667 16.8335V13.8335C10.667 13.1901 11.1903 12.6667 11.8337 12.6667H16.8337C17.4771 12.6667 18.0004 13.1901 18.0004 13.8335V16.8335C18.0004 17.4768 17.4771 18.0001 16.8337 18.0001ZM11.8337 13.6667C11.7417 13.6667 11.667 13.7415 11.667 13.8335V16.8335C11.667 16.9254 11.7417 17.0001 11.8337 17.0001H16.8337C16.9257 17.0001 17.0004 16.9254 17.0004 16.8335V13.8335C17.0004 13.7415 16.9257 13.6667 16.8337 13.6667H11.8337Z" fill="white" stroke="white" stroke-width="0.5"/>
<path d="M16.8337 11.3334H11.8337C11.1903 11.3334 10.667 10.8101 10.667 10.1666V3.16663C10.667 2.52332 11.1903 2 11.8337 2H16.8337C17.4771 2 18.0004 2.52332 18.0004 3.16663V10.1666C18.0004 10.8101 17.4771 11.3334 16.8337 11.3334ZM11.8337 3C11.7417 3 11.667 3.07471 11.667 3.16663V10.1666C11.667 10.2587 11.7417 10.3334 11.8337 10.3334H16.8337C16.9257 10.3334 17.0004 10.2587 17.0004 10.1666V3.16663C17.0004 3.07471 16.9257 3 16.8337 3H11.8337Z" fill="white" stroke="white" stroke-width="0.5"/>
</svg>
