<svg width="20" height="20" viewBox="0 0 20 20" fill="none" xmlns="http://www.w3.org/2000/svg">
<path d="M19.2446 8.26211L11.0868 8.26172C10.7266 8.26172 10.4346 8.55367 10.4346 8.91391V11.52C10.4346 11.8801 10.7266 12.1721 11.0868 12.1721H15.6807C15.1777 13.4777 14.2388 14.571 13.0409 15.2657L14.9998 18.6566C18.142 16.8393 19.9998 13.6507 19.9998 10.0812C19.9998 9.57301 19.9623 9.20969 19.8874 8.80059C19.8304 8.48977 19.5606 8.26211 19.2446 8.26211Z" fill="#167EE6"/>
<path d="M10.0002 16.0865C7.75198 16.0865 5.78932 14.8581 4.73522 13.0404L1.34436 14.9949C3.06995 17.9856 6.30252 19.9995 10.0002 19.9995C11.8141 19.9995 13.5257 19.5111 15.0002 18.66V18.6553L13.0413 15.2643C12.1453 15.784 11.1084 16.0865 10.0002 16.0865Z" fill="#12B347"/>
<path d="M15 18.6593V18.6547L13.0411 15.2637C12.1451 15.7833 11.1083 16.0858 10 16.0858V19.9989C11.8139 19.9989 13.5256 19.5105 15 18.6593Z" fill="#0F993E"/>
<path d="M3.91305 10.0002C3.91305 8.89207 4.21547 7.85531 4.73504 6.95934L1.34418 5.00488C0.488359 6.47469 0 8.18164 0 10.0002C0 11.8188 0.488359 13.5258 1.34418 14.9956L4.73504 13.0411C4.21547 12.1452 3.91305 11.1084 3.91305 10.0002Z" fill="#FFD500"/>
<path d="M10.0002 3.91305C11.4662 3.91305 12.8129 4.43398 13.8647 5.30051C14.1242 5.51426 14.5014 5.49883 14.739 5.26113L16.5855 3.41465C16.8552 3.14496 16.836 2.70352 16.5479 2.45359C14.7856 0.924726 12.4926 0 10.0002 0C6.30252 0 3.06995 2.01395 1.34436 5.00465L4.73522 6.9591C5.78932 5.14141 7.75198 3.91305 10.0002 3.91305Z" fill="#FF4B26"/>
<path d="M13.8645 5.30051C14.124 5.51426 14.5012 5.49883 14.7389 5.26113L16.5854 3.41465C16.855 3.14496 16.8358 2.70352 16.5477 2.45359C14.7854 0.924688 12.4925 0 10 0V3.91305C11.466 3.91305 12.8127 4.43398 13.8645 5.30051Z" fill="#D93F21"/>
</svg>
