<svg width="24" height="24" viewBox="0 0 24 24" fill="none" xmlns="http://www.w3.org/2000/svg">
<path fill-rule="evenodd" clip-rule="evenodd" d="M12.2882 4.00482L12.002 4C7.86108 4 4.12926 6.92308 2.06091 11.7058C1.9797 11.8936 1.9797 12.1064 2.06091 12.2942L2.20424 12.6168C4.24638 17.0931 7.77544 19.8644 11.7118 19.9952L11.998 20C16.1389 20 19.8707 17.0769 21.9391 12.2942C22.0213 12.104 22.0202 11.8884 21.9361 11.699L21.7968 11.3856C19.7497 6.90091 16.2192 4.13547 12.2882 4.00482ZM12.0093 5.48938L12.2483 5.49452L12.5153 5.50841C15.7125 5.7348 18.6529 8.10549 20.4293 11.9991L20.42 12.0231C18.599 16.0004 15.5573 18.3852 12.2592 18.5049L12.0043 18.5088L11.7472 18.5053L11.4809 18.4915C8.38303 18.272 5.52669 16.0344 3.73946 12.3597L3.57031 11.9991L3.72689 11.6662C5.61149 7.77311 8.69179 5.49023 12.0093 5.48938ZM11.9999 8.1134C9.83946 8.1134 8.08887 9.85307 8.08887 12.0001C8.08887 14.1464 9.83965 15.8859 11.9999 15.8859C14.1602 15.8859 15.9119 14.1463 15.9119 12.0001C15.9119 9.85319 14.1604 8.1134 11.9999 8.1134ZM11.9999 9.60372C13.332 9.60372 14.4119 10.6763 14.4119 12.0001C14.4119 13.3231 13.3319 14.3956 11.9999 14.3956C10.6681 14.3956 9.58887 13.3233 9.58887 12.0001C9.58887 10.6761 10.668 9.60372 11.9999 9.60372Z" fill="#111111"/>
</svg>
