<svg width="24" height="24" viewBox="0 0 24 24" fill="none" xmlns="http://www.w3.org/2000/svg">
<path fill-rule="evenodd" clip-rule="evenodd" d="M12.0039 2C9.0699 2 6.69141 4.38864 6.69141 7.33517C6.69141 10.2817 9.0699 12.6703 12.0039 12.6703C14.938 12.6703 17.3165 10.2817 17.3165 7.33517C17.3165 4.38864 14.938 2 12.0039 2ZM12.0038 3.44763C14.1417 3.44763 15.8748 5.18813 15.8748 7.33514C15.8748 9.48215 14.1417 11.2226 12.0038 11.2226C9.86592 11.2226 8.13281 9.48215 8.13281 7.33514C8.13281 5.18813 9.86592 3.44763 12.0038 3.44763ZM9.83005 14.8209C9.05233 14.8749 8.26621 14.9859 7.4908 15.1521C5.99418 15.4604 4.79685 16.0763 4.28724 17.0999C4.09503 17.5002 3.99839 17.9288 4.00002 18.3627C3.99944 18.7935 4.0953 19.2227 4.28062 19.6153C4.76994 20.6271 5.8278 21.1997 7.25624 21.5171L7.51213 21.5705C8.26648 21.7407 9.05284 21.8553 9.84446 21.909C9.91189 21.9288 10.0726 21.9472 10.248 21.9561L10.3922 21.9615C10.4664 21.9633 10.5506 21.9637 10.676 21.9637C11.8138 22.0263 12.9934 22.0081 14.1675 21.9081C14.7932 21.8653 15.4231 21.7835 16.0477 21.6636L16.5151 21.5666C18.0576 21.2623 19.2126 20.6836 19.7186 19.6164C20.0937 18.8241 20.0937 17.9047 19.7188 17.1127C19.214 16.0483 18.0737 15.4744 16.5034 15.1509C15.8873 15.0194 15.2612 14.922 14.6307 14.8599L14.1697 14.8209C12.7259 14.6935 11.2738 14.6935 9.83005 14.8209ZM14.0434 16.263L14.0561 16.264C14.7798 16.3149 15.499 16.4165 16.2085 16.5679C17.375 16.8082 18.1665 17.2066 18.417 17.7347C18.6055 18.133 18.6055 18.5957 18.4168 18.9943C18.1828 19.4878 17.4719 19.8691 16.4443 20.1021L16.2194 20.1497C15.4959 20.3112 14.779 20.4152 14.0574 20.4647C12.9378 20.5599 11.8248 20.5771 10.7146 20.517L10.321 20.5103C10.2118 20.5047 10.1197 20.4942 10.0343 20.477C9.35859 20.426 8.75053 20.3453 8.16014 20.2283L7.80762 20.1537C6.63758 19.9243 5.83902 19.5243 5.58011 18.9889C5.48951 18.7969 5.44112 18.5803 5.44141 18.3609C5.4406 18.1428 5.48835 17.931 5.58105 17.7378C5.8328 17.2324 6.67906 16.797 7.78592 16.569C8.5006 16.4159 9.21949 16.3143 9.94281 16.264C11.3159 16.143 12.6836 16.143 14.0434 16.263Z" fill="white"/>
</svg>
