<svg width="20" height="20" viewBox="0 0 20 20" fill="none" xmlns="http://www.w3.org/2000/svg">
<path d="M17.5 14H13V11.5C13 11.2 12.8 11 12.5 11H7.5C7.2 11 7 11.2 7 11.5V13.35H2.5C2.2 13.35 2 13.55 2 13.85V17.5C2 17.8 2.2 18 2.5 18H7.5H12.5H17.5C17.8 18 18 17.8 18 17.5V14.5C18 14.2 17.8 14 17.5 14ZM3 14.35H7V17H3V14.35ZM8 13.85V12H12V14.5V17H8V13.85ZM17 17H13V15H17V17Z" fill="white"/>
<path d="M13.9812 5.00611C13.9332 4.80653 13.7893 4.70675 13.5974 4.65685L11.3907 4.30759L10.4313 2.26194C10.2874 1.91269 9.71176 1.91269 9.56785 2.26194L8.60843 4.30759L6.40176 4.65685C6.20987 4.70675 6.06596 4.85643 6.01799 5.00611C5.97002 5.20568 6.01799 5.40526 6.1619 5.50505L7.74495 7.10165L7.36118 9.39677C7.31321 9.59635 7.40915 9.79593 7.55306 9.89571C7.69698 9.9955 7.88886 10.0454 8.08074 9.94561L10.0476 8.89784L12.0144 9.94561C12.1583 10.0454 12.3502 9.9955 12.542 9.89571C12.686 9.79593 12.7819 9.59635 12.7339 9.39677L12.3502 7.10165L13.8852 5.50505C13.9812 5.40526 14.0292 5.20568 13.9812 5.00611ZM11.4387 6.60271C11.3428 6.7025 11.2948 6.90208 11.2948 7.05176L11.5347 8.59847L10.1915 7.85006C10.1435 7.80017 10.0476 7.80017 9.95161 7.80017C9.85567 7.80017 9.8077 7.80017 9.71176 7.85006L8.36857 8.54858L8.60843 7.00187C8.6564 6.85218 8.56045 6.65261 8.46451 6.55282L7.50509 5.50505L8.99219 5.30547C9.13611 5.30547 9.28002 5.15579 9.37596 5.056L9.99959 3.60908L10.6712 5.00611C10.7192 5.15579 10.8631 5.25558 11.0549 5.25558L12.4941 5.50505L11.4387 6.60271Z" fill="white"/>
</svg>
