<svg width="20" height="20" viewBox="0 0 20 20" fill="none" xmlns="http://www.w3.org/2000/svg">
<g clip-path="url(#clip0_2459_99242)">
<path d="M18.5622 6.5625C17.3122 3.1875 15.0622 0.8125 13.0622 0.8125C12.7497 0.8125 12.4997 0.875 12.2497 0.9375C11.6872 1.125 11.1872 1.5625 10.8747 2.125C7.12472 6.375 1.93722 8.3125 1.87472 8.3125C0.624719 8.75 0.249719 10.75 1.06222 12.9375C1.74972 14.8125 2.99972 16 4.12472 16C4.24972 16 4.43722 16 4.56222 15.9375C4.68722 15.875 5.37472 15.75 6.62472 15.5625L7.87472 18.1875C7.93722 18.3125 8.06222 18.4375 8.24972 18.5L10.2497 19.1875C10.3122 19.1875 10.3747 19.25 10.4372 19.25C10.5622 19.25 10.6872 19.1875 10.8122 19.125C10.9997 19 11.0622 18.75 11.0622 18.5625L10.6247 15C12.1872 14.875 13.9372 14.8125 15.6872 14.9375H15.8122C16.0622 15 16.3122 15.0625 16.5622 15.0625C16.8747 15.0625 17.1247 15 17.3747 14.9375C18.4372 14.5625 19.1872 13.375 19.3747 11.6875C19.4997 10.1875 19.2497 8.3125 18.5622 6.5625ZM8.87472 17.375L7.93722 15.3125L9.37472 15.125L9.68722 17.625L8.87472 17.375ZM13.3747 11.375C12.9372 10.6875 12.4997 9.875 12.1247 8.875C11.8122 7.9375 11.5622 7.0625 11.4997 6.1875C11.6872 6.1875 11.9372 6.375 12.1872 6.5625C12.6247 7 13.0622 7.6875 13.3122 8.4375C13.8122 9.875 13.6872 11 13.3747 11.375ZM4.24972 14.75C4.18722 14.75 4.18722 14.75 4.18722 14.75C3.74972 14.875 2.81222 14.0625 2.18722 12.5C1.62472 10.9375 1.87472 9.625 2.24972 9.5C2.43722 9.4375 6.49972 7.9375 10.1872 4.5625C10.1247 6 10.3747 7.6875 10.9372 9.3125C11.6247 11.125 12.5622 12.625 13.6247 13.6875C8.74972 13.625 4.43722 14.6875 4.24972 14.75ZM18.0622 11.5625C17.9372 12.75 17.4997 13.5 16.8747 13.75C16.7497 13.8125 16.6247 13.8125 16.4997 13.8125C15.8122 13.8125 14.9997 13.3125 14.1247 12.3125C14.9997 11.5625 15.1872 9.875 14.4997 8C14.1247 7.0625 13.6247 6.25 13.0622 5.6875C12.5622 5.1875 11.9997 4.9375 11.4372 4.9375C11.4372 4.6875 11.4372 4.5 11.4997 4.3125C11.6247 3.125 12.0622 2.375 12.6872 2.125C12.8122 2.0625 12.9372 2.0625 13.0622 2.0625C14.3122 2.0625 16.2497 3.9375 17.3747 7C17.9997 8.5625 18.2497 10.25 18.0622 11.5625Z" fill="#1A64F0"/>
</g>
<defs>
<clipPath id="clip0_2459_99242">
<rect width="20" height="20" fill="white"/>
</clipPath>
</defs>
</svg>
