<svg width="36" height="36" viewBox="0 0 36 36" fill="none" xmlns="http://www.w3.org/2000/svg">
<path d="M27.7495 18.9751V24.5251C27.7495 29.2051 23.3845 33.0001 17.9995 33.0001C12.6145 33.0001 8.24951 29.2051 8.24951 24.5251V18.9751C8.24951 23.6551 12.6145 27.0001 17.9995 27.0001C23.3845 27.0001 27.7495 23.6551 27.7495 18.9751Z" stroke="#1A64F0" stroke-width="2.5" stroke-linecap="round" stroke-linejoin="round"/>
<path d="M27.7495 11.475C27.7495 12.84 27.3745 14.1 26.7145 15.18C25.1095 17.82 21.8095 19.5 17.9995 19.5C14.1895 19.5 10.8895 17.82 9.28452 15.18C8.62452 14.1 8.24951 12.84 8.24951 11.475C8.24951 9.135 9.3445 7.02 11.0995 5.49C12.8695 3.945 15.2995 3 17.9995 3C20.6995 3 23.1295 3.945 24.8995 5.475C26.6545 7.02 27.7495 9.135 27.7495 11.475Z" stroke="#1A64F0" stroke-width="2.5" stroke-linecap="round" stroke-linejoin="round"/>
<path d="M27.7495 11.475V18.975C27.7495 23.655 23.3845 27 17.9995 27C12.6145 27 8.24951 23.655 8.24951 18.975V11.475C8.24951 6.795 12.6145 3 17.9995 3C20.6995 3 23.1295 3.945 24.8995 5.475C26.6545 7.02 27.7495 9.135 27.7495 11.475Z" stroke="#1A64F0" stroke-width="2.5" stroke-linecap="round" stroke-linejoin="round"/>
</svg>
