<svg width="32" height="32" viewBox="0 0 32 32" fill="none" xmlns="http://www.w3.org/2000/svg">
<g clip-path="url(#clip0_1_5586)">
<path d="M16 31.9998C24.8366 31.9998 32 24.8363 32 15.9998C32 7.16323 24.8366 -0.000213623 16 -0.000213623C7.16344 -0.000213623 0 7.16323 0 15.9998C0 24.8363 7.16344 31.9998 16 31.9998Z" fill="#007AB9"/>
<path d="M25.5599 17.2872V23.8836H21.7354V17.7293C21.7354 16.184 21.1832 15.1287 19.7985 15.1287C18.7418 15.1287 18.114 15.8391 17.8368 16.5271C17.7361 16.7729 17.7102 17.1143 17.7102 17.4592V23.8834H13.8854C13.8854 23.8834 13.9368 13.4599 13.8854 12.3809H17.7104V14.0109C17.7027 14.0238 17.6919 14.0363 17.6851 14.0486H17.7104V14.0109C18.2187 13.2289 19.1251 12.1108 21.1573 12.1108C23.6734 12.1108 25.5599 13.7548 25.5599 17.2872ZM9.88443 6.83633C8.57614 6.83633 7.72021 7.69512 7.72021 8.82343C7.72021 9.92778 8.55133 10.8114 9.83423 10.8114H9.85904C11.193 10.8114 12.0224 9.92778 12.0224 8.82343C11.997 7.69512 11.193 6.83633 9.88443 6.83633ZM7.94753 23.8836H11.7708V12.3809H7.94753V23.8836Z" fill="#F1F2F2"/>
</g>
<defs>
<clipPath id="clip0_1_5586">
<rect width="32" height="32" fill="white"/>
</clipPath>
</defs>
</svg>
