<svg width="12" height="12" viewBox="0 0 12 12" fill="none" xmlns="http://www.w3.org/2000/svg">
<path fill-rule="evenodd" clip-rule="evenodd" d="M6 1.00024C3.23839 1.00024 1 3.23864 1 6.00024C1 8.76185 3.23839 11.0002 6 11.0002C8.76161 11.0002 11 8.76185 11 6.00024C11 3.23864 8.76161 1.00024 6 1.00024ZM6 1.75024C8.34739 1.75024 10.25 3.65285 10.25 6.00024C10.25 8.34764 8.34739 10.2502 6 10.2502C3.65261 10.2502 1.75 8.34764 1.75 6.00024C1.75 3.65285 3.65261 1.75024 6 1.75024ZM6.20214 3.87258C6.17731 3.68954 6.02041 3.54846 5.83057 3.54846C5.62346 3.54846 5.45557 3.71636 5.45557 3.92346V6.34696L5.45974 6.40283C5.47631 6.51286 5.54123 6.61102 5.63845 6.66901L7.52345 7.79351L7.5689 7.81664C7.73882 7.88909 7.94035 7.82662 8.03761 7.66358L8.06074 7.61813C8.13319 7.44821 8.07073 7.24668 7.90769 7.14941L6.20537 6.13351L6.20557 3.92346L6.20214 3.87258Z" fill="#7D7D7D"/>
</svg>
