<svg width="153" height="160" viewBox="0 0 153 160" fill="none" xmlns="http://www.w3.org/2000/svg">
<g clip-path="url(#clip0_1_64251)">
<path fill-rule="evenodd" clip-rule="evenodd" d="M33.4766 85.4099C33.4766 79.8871 37.9537 75.4099 43.4766 75.4099H142.501C148.024 75.4099 152.501 79.8871 152.501 85.4099V136.501C152.501 142.024 148.024 146.501 142.501 146.501H136.417V159.427L123.549 146.501H43.4766C37.9537 146.501 33.4766 142.024 33.4766 136.501V85.4099Z" fill="url(#paint0_linear_1_64251)"/>
<circle r="7.00143" transform="matrix(-1 0 0 1 117.497 110.416)" fill="white"/>
<circle r="7.00143" transform="matrix(-1 0 0 1 92.9917 110.416)" fill="white"/>
<circle r="7.00143" transform="matrix(-1 0 0 1 68.4829 110.416)" fill="white"/>
<path fill-rule="evenodd" clip-rule="evenodd" d="M85.5488 10C85.5488 4.47715 81.0716 0 75.5488 0H10C4.47715 0 0 4.47715 0 10V80.8391C0 86.362 4.47715 90.8391 10 90.8391H20.5523V107.355L36.9941 90.8391H75.5488C81.0716 90.8391 85.5488 86.362 85.5488 80.8391V10Z" fill="url(#paint1_linear_1_64251)"/>
<path d="M39.8936 54.4093V52.9455C39.8936 50.6388 40.2263 48.7092 40.8917 47.1567C41.5792 45.6041 42.4442 44.2844 43.4867 43.1977C44.5291 42.1109 45.5937 41.1017 46.6805 40.1702C48.0556 38.9947 49.2644 37.7859 50.3068 36.5439C51.3492 35.3018 51.8704 33.6716 51.8704 31.6533C51.8704 29.6128 51.1607 27.8939 49.7412 26.4966C48.3218 25.0993 46.2813 24.4007 43.6197 24.4007C40.6255 24.4007 38.2967 25.2324 36.6333 26.8959C34.992 28.5371 34.1714 30.7218 34.1714 33.4498H28.5156C28.5156 30.5887 29.1366 28.0714 30.3787 25.8978C31.6429 23.7242 33.4062 22.0386 35.6685 20.8409C37.9307 19.621 40.5812 19.0111 43.6197 19.0111C46.6583 19.0111 49.22 19.5767 51.3049 20.7078C53.4119 21.839 55.0088 23.3693 56.0956 25.2989C57.1824 27.2064 57.7258 29.3467 57.7258 31.7199C57.7258 33.6495 57.4153 35.2907 56.7943 36.6437C56.1732 37.9744 55.3859 39.1388 54.4322 40.1369C53.4784 41.135 52.4915 42.0776 51.4712 42.9648C50.4953 43.8076 49.5638 44.6837 48.6766 45.593C47.8116 46.5024 47.1019 47.5559 46.5474 48.7536C46.0151 49.9291 45.749 51.3485 45.749 53.012V54.4093H39.8936ZM42.6882 67.2511C41.4018 67.2511 40.315 66.7964 39.4278 65.8871C38.5407 64.9777 38.0971 63.9242 38.0971 62.7265C38.0971 61.5289 38.5407 60.4642 39.4278 59.5327C40.315 58.6012 41.4018 58.1354 42.6882 58.1354C43.9968 58.1354 45.0947 58.6012 45.9818 59.5327C46.8912 60.4642 47.3459 61.5289 47.3459 62.7265C47.3459 63.9242 46.8912 64.9777 45.9818 65.8871C45.0947 66.7964 43.9968 67.2511 42.6882 67.2511Z" fill="#FEF4F4"/>
</g>
<defs>
<linearGradient id="paint0_linear_1_64251" x1="92.9888" y1="75.4099" x2="92.9888" y2="151.349" gradientUnits="userSpaceOnUse">
<stop offset="0.0286547" stop-color="#7169F4"/>
<stop offset="1" stop-color="#F6AE62"/>
</linearGradient>
<linearGradient id="paint1_linear_1_64251" x1="76.0434" y1="0" x2="76.0434" y2="97.0327" gradientUnits="userSpaceOnUse">
<stop offset="0.0286547" stop-color="#FFCF86"/>
<stop offset="1" stop-color="#94A0FF"/>
</linearGradient>
<clipPath id="clip0_1_64251">
<rect width="152.501" height="159.427" fill="white"/>
</clipPath>
</defs>
</svg>
