<svg width="32" height="32" viewBox="0 0 32 32" fill="none" xmlns="http://www.w3.org/2000/svg">
<circle cx="16" cy="16" r="16" fill="#D6D6D6"/>
<g clip-path="url(#clip0_65_131986)">
<path d="M15.1222 5.99967C15.2738 6.12269 15.4175 6.25412 15.5495 6.39851C15.8977 6.77921 16.1819 7.20459 16.4295 7.65458C16.8679 8.45289 17.1756 9.29912 17.3696 10.1868C17.4591 10.596 17.5212 11.0091 17.5539 11.4267C17.5754 11.7044 17.5892 11.9822 17.5813 12.2606C17.5702 12.6303 17.4872 12.9864 17.3625 13.3334C17.2155 13.7413 17.0149 14.1227 16.7895 14.4924C16.4864 14.989 16.1414 15.4577 15.7899 15.922C15.3979 16.4393 14.9961 16.9488 14.6159 17.4746C14.2592 17.9673 13.9227 18.4723 13.6392 19.0104C13.3896 19.4836 13.1884 19.9757 13.0676 20.4976C12.9741 20.9016 12.9343 21.3108 12.9617 21.7245C12.9937 22.2082 13.0865 22.6814 13.225 23.1457C13.4014 23.7394 13.6562 24.3001 13.9535 24.8433C14.0828 25.0803 14.2213 25.3121 14.3448 25.5523C14.3873 25.6351 14.4284 25.718 14.448 25.81C14.4696 25.9097 14.4572 25.9375 14.369 25.9893C14.367 25.9906 14.3683 25.9964 14.3677 25.9997C14.2893 25.9997 14.2109 25.9997 14.1325 25.9997C14.1285 25.9867 14.1174 25.9867 14.107 25.9848C14.056 25.9744 14.0044 25.9654 13.9541 25.9537C13.3524 25.8177 12.7971 25.5743 12.277 25.2473C11.5682 24.8012 10.9665 24.2392 10.4589 23.5775C9.89047 22.8368 9.47692 22.0197 9.23062 21.1204C9.13066 20.7669 9.06468 20.4069 9.03005 20.0418C9.02221 19.9602 9.00784 19.8805 9 19.799C9 19.5316 9 19.2642 9 18.9961C9.02156 18.9689 9.02025 18.9352 9.02221 18.9042C9.03136 18.7837 9.04639 18.664 9.06272 18.5442C9.13589 18.0165 9.2757 17.5063 9.47496 17.0123C9.81273 16.1751 10.2929 15.4254 10.8894 14.7468C11.2082 14.3843 11.5466 14.0398 11.8798 13.6902C12.2895 13.2609 12.6893 12.8226 13.0525 12.3532C13.7477 11.4539 14.2605 10.4633 14.5813 9.37487C14.7721 8.72806 14.8955 8.0683 14.9667 7.39818C15.0092 6.99935 15.034 6.59922 15.0432 6.19779C15.0445 6.13175 15.0419 6.06506 15.0556 5.99902C15.0785 5.99967 15.1 5.99967 15.1222 5.99967Z" fill="#282E5B"/>
<path d="M17.4716 25.9998C17.1743 25.6877 16.8953 25.3601 16.6406 25.0137C16.3047 24.5573 16.0428 24.0633 15.8866 23.5175C15.8063 23.2365 15.756 22.9509 15.7337 22.6596C15.6867 22.0374 15.7703 21.4294 15.9382 20.8312C16.127 20.1584 16.4125 19.5265 16.7516 18.9173C16.9992 18.4712 17.2762 18.0426 17.5696 17.6243C18.0733 16.9063 18.5319 16.1617 18.9134 15.3724C19.0683 15.0513 19.2087 14.7243 19.3035 14.3799C19.3283 14.2905 19.3453 14.1992 19.3597 14.1079C19.3714 14.0348 19.4113 14.0192 19.4707 14.0665C19.6131 14.1798 19.749 14.3015 19.8797 14.4284C20.5918 15.1212 21.1504 15.9182 21.5359 16.8318C21.7488 17.3375 21.8939 17.8613 21.9775 18.4032C22.0383 18.7968 22.0494 19.1931 22.0415 19.59C22.0141 20.9348 21.592 22.1449 20.7761 23.219C20.2697 23.8859 19.6569 24.4394 18.9428 24.883C18.7985 24.9723 18.643 25.0403 18.4953 25.1225C18.2804 25.2423 18.0779 25.3789 17.9021 25.5531C17.8061 25.6483 17.7224 25.7525 17.6499 25.8652C17.6192 25.9124 17.5911 25.961 17.55 26.0005C17.5238 25.9998 17.4977 25.9998 17.4716 25.9998Z" fill="#059BDC"/>
</g>
<defs>
<clipPath id="clip0_65_131986">
<rect width="13.0435" height="20" fill="white" transform="translate(9 6)"/>
</clipPath>
</defs>
</svg>
