<svg width="20" height="20" viewBox="0 0 20 20" fill="none" xmlns="http://www.w3.org/2000/svg">
<path d="M19.8464 5.05041L18.8275 1.23662C18.7544 0.963184 18.5067 0.772949 18.2237 0.772949H1.77633C1.49328 0.772949 1.24559 0.963184 1.1725 1.23662L0.153555 5.05041C0.0473437 5.44787 0 5.80857 0 6.21998V7.58217C0 8.72104 0.765742 9.68377 1.80918 9.98432V16.8441C1.80918 18.158 2.87813 19.2269 4.19199 19.2269H15.808C17.1218 19.2269 18.1908 18.158 18.1908 16.8441V9.98432C19.2343 9.68377 20 8.72104 20 7.58217V6.21998C20 5.80857 19.9527 5.44787 19.8464 5.05041ZM2.25625 2.02295H17.7437L18.5611 5.08217H1.43891L2.25625 2.02295ZM15 7.58217C15 8.27143 14.4393 8.83217 13.75 8.83217C13.0607 8.83217 12.5 8.27143 12.5 7.58217V6.33217H15V7.58217ZM5 7.58217V6.33217H7.5V7.58178V7.58217C7.5 8.27143 6.93926 8.83217 6.25 8.83217C5.56074 8.83217 5 8.27143 5 7.58217ZM8.75 7.58217V6.33217H11.25V7.58217C11.25 8.27143 10.6893 8.83217 10 8.83217C9.31074 8.83217 8.75 8.27143 8.75 7.58217ZM1.25 7.58217V6.33217H3.75V7.58178V7.58217C3.75 8.27143 3.18926 8.83217 2.5 8.83217C1.81074 8.83217 1.25 8.27143 1.25 7.58217ZM11.3816 17.9769H8.61844V13.6677C8.61844 13.2868 8.92832 12.9769 9.30926 12.9769H10.6908C11.0717 12.9769 11.3816 13.2868 11.3816 13.6677V17.9769H11.3816ZM15.808 17.9769H12.6316V13.6677C12.6316 12.5976 11.7609 11.7269 10.6908 11.7269H9.30922C8.23906 11.7269 7.3684 12.5975 7.3684 13.6677V17.9769H4.19199C3.56734 17.9769 3.05918 17.4687 3.05918 16.8441V10.0187C3.5773 9.89986 4.03469 9.6199 4.375 9.23412C4.83344 9.75385 5.5041 10.0822 6.25 10.0822C6.9959 10.0822 7.66656 9.75385 8.125 9.23408C8.58344 9.75385 9.25414 10.0822 10 10.0822C10.7459 10.0822 11.4166 9.75385 11.875 9.23408C12.3334 9.75385 13.0041 10.0822 13.75 10.0822C14.4959 10.0822 15.1666 9.75385 15.625 9.23412C15.9653 9.6199 16.4227 9.89986 16.9408 10.0187V16.8441C16.9408 17.4687 16.4326 17.9769 15.808 17.9769ZM17.5 8.83217C16.8107 8.83217 16.25 8.27143 16.25 7.58217V6.33217H18.75V7.58217C18.75 8.27143 18.1893 8.83217 17.5 8.83217Z" fill="white"/>
</svg>
