<svg width="88" height="89" viewBox="0 0 88 89" fill="none" xmlns="http://www.w3.org/2000/svg">
<rect x="8.23438" y="26.5215" width="51" height="51" rx="9" fill="url(#paint0_linear_1_7465)"/>
<path d="M28.2345 20.5215C28.2345 15.5509 32.264 11.5215 37.2345 11.5215H70.2345C75.2051 11.5215 79.2345 15.5509 79.2345 20.5215V68.5215C79.2345 73.492 75.2051 77.5215 70.2345 77.5215H17.2344H20.2345C24.6528 77.5215 28.2345 73.9398 28.2345 69.5215V20.5215Z" fill="url(#paint1_linear_1_7465)"/>
<rect x="38.2344" y="20.5215" width="34" height="18" rx="4" fill="white"/>
<rect x="38.2344" y="44.5215" width="21" height="2" rx="1" fill="white"/>
<rect x="38.2344" y="52.5215" width="7" height="2" rx="1" fill="white"/>
<rect x="47.2344" y="52.5215" width="25" height="2" rx="1" fill="white"/>
<rect x="38.2344" y="60.5215" width="18" height="2" rx="1" fill="white"/>
<rect x="61.2344" y="44.5215" width="11" height="2" rx="1" fill="white"/>
<circle cx="78.2344" cy="12.5215" r="6" fill="#E96464"/>
<defs>
<linearGradient id="paint0_linear_1_7465" x1="19.2344" y1="77.5215" x2="19.2344" y2="26.5215" gradientUnits="userSpaceOnUse">
<stop stop-color="#204CCF"/>
<stop offset="1" stop-color="#0089AC"/>
</linearGradient>
<linearGradient id="paint1_linear_1_7465" x1="48.2345" y1="11.5215" x2="48.2345" y2="77.5215" gradientUnits="userSpaceOnUse">
<stop stop-color="#1A64F0"/>
<stop offset="1" stop-color="#1AD6F0"/>
</linearGradient>
</defs>
</svg>
