<svg width="32" height="32" viewBox="0 0 32 32" fill="none" xmlns="http://www.w3.org/2000/svg">
<path d="M16 30.0625C23.7665 30.0625 30.0625 23.7665 30.0625 16C30.0625 8.2335 23.7665 1.9375 16 1.9375C8.2335 1.9375 1.9375 8.2335 1.9375 16C1.9375 23.7665 8.2335 30.0625 16 30.0625Z" fill="url(#paint0_linear_1_5597)"/>
<path d="M18.9876 8.1875H13.0188C10.3563 8.1875 8.19385 10.35 8.19385 13.0125V18.9812C8.19385 21.6438 10.3563 23.8062 13.0188 23.8062H18.9876C21.6501 23.8062 23.8126 21.6438 23.8126 18.9812V13.0125C23.8126 10.35 21.6501 8.1875 18.9876 8.1875ZM22.0688 18.9875C22.0688 20.6875 20.6876 22.075 18.9813 22.075H13.0126C11.3126 22.075 9.9251 20.6937 9.9251 18.9875V13.0187C9.9251 11.3187 11.3063 9.93125 13.0126 9.93125H18.9813C20.6813 9.93125 22.0688 11.3125 22.0688 13.0187V18.9875Z" fill="white"/>
<path d="M16.0001 12.0063C13.8001 12.0063 12.0063 13.8 12.0063 16C12.0063 18.2 13.8001 19.9938 16.0001 19.9938C18.2001 19.9938 19.9938 18.2 19.9938 16C19.9938 13.8 18.2001 12.0063 16.0001 12.0063ZM16.0001 18.425C14.6626 18.425 13.5751 17.3375 13.5751 16C13.5751 14.6625 14.6626 13.575 16.0001 13.575C17.3376 13.575 18.4251 14.6625 18.4251 16C18.4251 17.3375 17.3376 18.425 16.0001 18.425Z" fill="white"/>
<path d="M20.2982 12.4441C20.6662 12.3844 20.9161 12.0378 20.8565 11.6699C20.7968 11.3019 20.4502 11.052 20.0822 11.1116C19.7143 11.1713 19.4644 11.5179 19.524 11.8859C19.5837 12.2538 19.9303 12.5037 20.2982 12.4441Z" fill="white"/>
<defs>
<linearGradient id="paint0_linear_1_5597" x1="5.29244" y1="26.7076" x2="25.2768" y2="6.72319" gradientUnits="userSpaceOnUse">
<stop stop-color="#FEE411"/>
<stop offset="0.0518459" stop-color="#FEDB16"/>
<stop offset="0.1381" stop-color="#FEC125"/>
<stop offset="0.2481" stop-color="#FE983D"/>
<stop offset="0.3762" stop-color="#FE5F5E"/>
<stop offset="0.5" stop-color="#FE2181"/>
<stop offset="1" stop-color="#9000DC"/>
</linearGradient>
</defs>
</svg>
