<svg width="18" height="18" viewBox="0 0 18 18" fill="none" xmlns="http://www.w3.org/2000/svg">
<path fill-rule="evenodd" clip-rule="evenodd" d="M1.8 2.8H4.5L6.3 1H11.7L13.5 2.8H16.2C17.1941 2.8 18 3.60589 18 4.6V15.4C18 16.3941 17.1941 17.2 16.2 17.2H1.8C0.805887 17.2 0 16.3941 0 15.4V4.6C0 3.60589 0.805887 2.8 1.8 2.8ZM9 5.5C6.51472 5.5 4.5 7.51472 4.5 10C4.5 12.4853 6.51472 14.5 9 14.5C11.4853 14.5 13.5 12.4853 13.5 10C13.5 7.51472 11.4853 5.5 9 5.5ZM9 7.3C10.4912 7.3 11.7 8.50883 11.7 10C11.7 11.4912 10.4912 12.7 9 12.7C7.50883 12.7 6.3 11.4912 6.3 10C6.3 8.50883 7.50883 7.3 9 7.3Z" fill="#7D7D7D"/>
<mask id="mask0_2461_100884" style="mask-type:luminance" maskUnits="userSpaceOnUse" x="-1" y="0" width="20" height="18">
<path fill-rule="evenodd" clip-rule="evenodd" d="M1.8 2.8H4.5L6.3 1H11.7L13.5 2.8H16.2C17.1941 2.8 18 3.60589 18 4.6V15.4C18 16.3941 17.1941 17.2 16.2 17.2H1.8C0.805887 17.2 0 16.3941 0 15.4V4.6C0 3.60589 0.805887 2.8 1.8 2.8ZM9 5.5C6.51472 5.5 4.5 7.51472 4.5 10C4.5 12.4853 6.51472 14.5 9 14.5C11.4853 14.5 13.5 12.4853 13.5 10C13.5 7.51472 11.4853 5.5 9 5.5V5.5ZM9 7.3C10.4912 7.3 11.7 8.50883 11.7 10C11.7 11.4912 10.4912 12.7 9 12.7C7.50883 12.7 6.3 11.4912 6.3 10C6.3 8.50883 7.50883 7.3 9 7.3Z" fill="white"/>
<path d="M4.5 2.8V3.3H4.70711L4.85355 3.15355L4.5 2.8ZM6.3 1V0.5H6.09289L5.94645 0.646447L6.3 1ZM11.7 1L12.0536 0.646447L11.9071 0.5H11.7V1ZM13.5 2.8L13.1464 3.15355L13.2929 3.3H13.5V2.8ZM9 5.5V5V5.5ZM1.8 3.3H4.5V2.3H1.8V3.3ZM4.85355 3.15355L6.65355 1.35355L5.94645 0.646447L4.14645 2.44645L4.85355 3.15355ZM6.3 1.5H11.7V0.5H6.3V1.5ZM11.3464 1.35355L13.1464 3.15355L13.8536 2.44645L12.0536 0.646447L11.3464 1.35355ZM13.5 3.3H16.2V2.3H13.5V3.3ZM16.2 3.3C16.918 3.3 17.5 3.88203 17.5 4.6H18.5C18.5 3.32975 17.4703 2.3 16.2 2.3V3.3ZM17.5 4.6V15.4H18.5V4.6H17.5ZM17.5 15.4C17.5 16.118 16.918 16.7 16.2 16.7V17.7C17.4703 17.7 18.5 16.6703 18.5 15.4H17.5ZM16.2 16.7H1.8V17.7H16.2V16.7ZM1.8 16.7C1.08203 16.7 0.5 16.118 0.5 15.4H-0.5C-0.5 16.6703 0.529745 17.7 1.8 17.7V16.7ZM0.5 15.4V4.6H-0.5V15.4H0.5ZM0.5 4.6C0.5 3.88203 1.08203 3.3 1.8 3.3V2.3C0.529745 2.3 -0.5 3.32975 -0.5 4.6H0.5ZM9 5C6.23858 5 4 7.23858 4 10H5C5 7.79086 6.79086 6 9 6V5ZM4 10C4 12.7614 6.23858 15 9 15V14C6.79086 14 5 12.2091 5 10H4ZM9 15C11.7614 15 14 12.7614 14 10H13C13 12.2091 11.2091 14 9 14V15ZM14 10C14 7.23858 11.7614 5 9 5V6C11.2091 6 13 7.79086 13 10H14ZM9 7.8C10.215 7.8 11.2 8.78497 11.2 10H12.2C12.2 8.23269 10.7673 6.8 9 6.8V7.8ZM11.2 10C11.2 11.215 10.215 12.2 9 12.2V13.2C10.7673 13.2 12.2 11.7673 12.2 10H11.2ZM9 12.2C7.78497 12.2 6.8 11.215 6.8 10H5.8C5.8 11.7673 7.23269 13.2 9 13.2V12.2ZM6.8 10C6.8 8.78497 7.78497 7.8 9 7.8V6.8C7.23269 6.8 5.8 8.23269 5.8 10H6.8Z" fill="white"/>
</mask>
<g mask="url(#mask0_2461_100884)">
</g>
</svg>
