<svg width="32" height="32" viewBox="0 0 32 32" fill="none" xmlns="http://www.w3.org/2000/svg">
<circle cx="16" cy="16" r="16" fill="#3375BB"/>
<g clip-path="url(#clip0_8_122873)">
<path d="M15.9821 27.0416C15.7316 27.0416 15.4453 26.97 15.2306 26.7911C14.0855 25.968 13.1193 25.4312 12.2604 24.966C8.32406 22.8189 7.17893 21.6738 7 9.72148C7 9.36363 7.14314 9.04156 7.35785 8.79106C7.57256 8.54057 7.93042 8.39742 8.25249 8.39742H8.43141C9.54076 8.39742 12.5467 8.43321 15.159 6.25031C15.6243 5.85667 16.34 5.85667 16.8052 6.25031C19.4175 8.43321 22.4235 8.39742 23.5328 8.39742H23.7117C24.0696 8.39742 24.3916 8.54057 24.6064 8.79106C24.8211 9.04156 24.9642 9.36363 24.9642 9.72148C24.7853 21.6738 23.6402 22.8189 19.668 24.966C18.8091 25.4312 17.8429 25.968 16.6978 26.7911C16.5189 26.97 16.2684 27.0416 15.9821 27.0416ZM9.57654 10.974C9.79125 20.7433 10.6501 21.1728 13.4771 22.7473C14.1928 23.141 15.0159 23.5704 15.9821 24.2145C16.9483 23.5704 17.7714 23.141 18.4871 22.7473C21.2783 21.2443 22.2087 20.7433 22.4235 10.974C20.8847 10.9024 18.3797 10.5088 16.0179 8.86263C13.6203 10.5445 11.1511 10.9024 9.57654 10.974Z" fill="white"/>
</g>
<defs>
<clipPath id="clip0_8_122873">
<rect width="18" height="21.0417" fill="white" transform="translate(7 6)"/>
</clipPath>
</defs>
</svg>
