<svg width="160" height="160" viewBox="0 0 160 160" fill="none" xmlns="http://www.w3.org/2000/svg">
<g clip-path="url(#clip0_27_131968)">
<g filter="url(#filter0_d_27_131968)">
<path fill-rule="evenodd" clip-rule="evenodd" d="M124.284 113.489C142.905 88.4312 140.848 52.8506 118.114 30.1169C93.1197 5.12213 52.5956 5.12197 27.6007 30.1169C2.60576 55.1118 2.60592 95.6359 27.6007 120.631C50.3344 143.364 85.9149 145.421 110.973 126.8L127.432 143.259C131.108 146.935 137.067 146.935 140.743 143.259C144.418 139.584 144.419 133.624 140.743 129.948L124.284 113.489ZM104.804 43.4277C122.447 61.0711 122.447 89.6764 104.804 107.32C87.1602 124.963 58.5549 124.963 40.9115 107.32C23.2681 89.6764 23.2681 61.0711 40.9115 43.4277C58.5549 25.7843 87.1602 25.7843 104.804 43.4277Z" fill="url(#paint0_linear_27_131968)"/>
</g>
<path d="M124.77 140.597L138.08 127.286L143.155 132.361C145.498 134.704 145.498 138.503 143.155 140.847L138.33 145.672C135.987 148.015 132.188 148.015 129.844 145.672L124.77 140.597Z" fill="url(#paint1_linear_27_131968)"/>
<path d="M88.8276 55.0168H57.1724L46 66.2255L73 97.9832L100 66.2255L88.8276 55.0168Z" fill="url(#paint2_linear_27_131968)"/>
<path d="M88.8276 55.0168L73 97.9832L100 66.2255L88.8276 55.0168Z" fill="url(#paint3_linear_27_131968)"/>
<path d="M57.1724 55.0168L61.3018 66.2255H46L57.1724 55.0168Z" fill="#00AAF0"/>
<path d="M72.9999 55.0168L61.3018 66.2255H84.6981L72.9999 55.0168Z" fill="#87DAFF"/>
<path d="M84.6982 66.2255H100L88.8277 55.0168L84.6982 66.2255Z" fill="#A5E9FF"/>
<path d="M46 66.2253H61.3018L73 97.9831L46 66.2253Z" fill="url(#paint4_linear_27_131968)"/>
</g>
<defs>
<filter id="filter0_d_27_131968" x="-15.1455" y="-12.6294" width="182.646" height="182.645" filterUnits="userSpaceOnUse" color-interpolation-filters="sRGB">
<feFlood flood-opacity="0" result="BackgroundImageFix"/>
<feColorMatrix in="SourceAlpha" type="matrix" values="0 0 0 0 0 0 0 0 0 0 0 0 0 0 0 0 0 0 127 0" result="hardAlpha"/>
<feOffset/>
<feGaussianBlur stdDeviation="12"/>
<feComposite in2="hardAlpha" operator="out"/>
<feColorMatrix type="matrix" values="0 0 0 0 0.604167 0 0 0 0 0.92875 0 0 0 0 1 0 0 0 0.41 0"/>
<feBlend mode="normal" in2="BackgroundImageFix" result="effect1_dropShadow_27_131968"/>
<feBlend mode="normal" in="SourceGraphic" in2="effect1_dropShadow_27_131968" result="shape"/>
</filter>
<linearGradient id="paint0_linear_27_131968" x1="27.6007" y1="30.1169" x2="140.743" y2="143.259" gradientUnits="userSpaceOnUse">
<stop stop-color="#FFE0B0"/>
<stop offset="0.817244" stop-color="#6578DB"/>
</linearGradient>
<linearGradient id="paint1_linear_27_131968" x1="131.425" y1="133.942" x2="140.743" y2="143.259" gradientUnits="userSpaceOnUse">
<stop stop-color="#42ADFF"/>
<stop offset="1" stop-color="#6578DB"/>
</linearGradient>
<linearGradient id="paint2_linear_27_131968" x1="73" y1="55.0168" x2="73" y2="97.9832" gradientUnits="userSpaceOnUse">
<stop stop-color="#00BDF7"/>
<stop offset="1" stop-color="#B8F7FF"/>
</linearGradient>
<linearGradient id="paint3_linear_27_131968" x1="93.7" y1="61.2708" x2="75.8319" y2="96.2757" gradientUnits="userSpaceOnUse">
<stop stop-color="#87DAFF"/>
<stop offset="1" stop-color="#058AEA"/>
</linearGradient>
<linearGradient id="paint4_linear_27_131968" x1="54.1" y1="67.5415" x2="71.9762" y2="98.0724" gradientUnits="userSpaceOnUse">
<stop stop-color="#0096DC"/>
<stop offset="1" stop-color="#ABE4FF"/>
</linearGradient>
<clipPath id="clip0_27_131968">
<rect width="160" height="160" fill="white"/>
</clipPath>
</defs>
</svg>
