<svg width="229" height="44" viewBox="0 0 229 44" fill="none" xmlns="http://www.w3.org/2000/svg">
<path d="M68.056 13.2031V15.9151H63.592V29.9551H60.232V15.9151H55.768V13.2031H68.056ZM77.9956 16.4671C79.0036 16.4671 79.8996 16.6911 80.6836 17.1391C81.4676 17.5711 82.0756 18.2191 82.5076 19.0831C82.9556 19.9311 83.1796 20.9551 83.1796 22.1551V29.9551H79.8196V22.6111C79.8196 21.5551 79.5556 20.7471 79.0276 20.1871C78.4996 19.6111 77.7796 19.3231 76.8676 19.3231C75.9396 19.3231 75.2036 19.6111 74.6596 20.1871C74.1316 20.7471 73.8676 21.5551 73.8676 22.6111V29.9551H70.5076V12.1951H73.8676V18.3151C74.2996 17.7391 74.8756 17.2911 75.5956 16.9711C76.3156 16.6351 77.1156 16.4671 77.9956 16.4671ZM98.7348 23.0191C98.7348 23.4991 98.7028 23.9311 98.6388 24.3151H88.9188C88.9988 25.2751 89.3348 26.0271 89.9268 26.5711C90.5188 27.1151 91.2468 27.3871 92.1108 27.3871C93.3588 27.3871 94.2468 26.8511 94.7748 25.7791H98.3988C98.0148 27.0591 97.2788 28.1151 96.1908 28.9471C95.1028 29.7631 93.7668 30.1711 92.1828 30.1711C90.9028 30.1711 89.7508 29.8911 88.7268 29.3311C87.7188 28.7551 86.9268 27.9471 86.3508 26.9071C85.7908 25.8671 85.5107 24.6671 85.5107 23.3071C85.5107 21.9311 85.7908 20.7231 86.3508 19.6831C86.9108 18.6431 87.6948 17.8431 88.7028 17.2831C89.7108 16.7231 90.8708 16.4431 92.1828 16.4431C93.4468 16.4431 94.5748 16.7151 95.5668 17.2591C96.5748 17.8031 97.3508 18.5791 97.8948 19.5871C98.4548 20.5791 98.7348 21.7231 98.7348 23.0191ZM95.2548 22.0591C95.2388 21.1951 94.9268 20.5071 94.3188 19.9951C93.7108 19.4671 92.9668 19.2031 92.0868 19.2031C91.2548 19.2031 90.5508 19.4591 89.9748 19.9711C89.4148 20.4671 89.0708 21.1631 88.9428 22.0591H95.2548ZM117.178 26.7631H110.506L109.402 29.9551H105.874L111.898 13.1791H115.81L121.834 29.9551H118.282L117.178 26.7631ZM116.266 24.0751L113.842 17.0671L111.418 24.0751H116.266ZM127.446 12.1951V29.9551H124.086V12.1951H127.446ZM129.901 23.3071C129.901 21.9311 130.181 20.7311 130.741 19.7071C131.301 18.6671 132.077 17.8671 133.069 17.3071C134.061 16.7311 135.197 16.4431 136.477 16.4431C138.125 16.4431 139.485 16.8591 140.557 17.6911C141.645 18.5071 142.373 19.6591 142.741 21.1471H139.117C138.925 20.5711 138.597 20.1231 138.133 19.8031C137.685 19.4671 137.125 19.2991 136.453 19.2991C135.493 19.2991 134.733 19.6511 134.173 20.3551C133.613 21.0431 133.333 22.0271 133.333 23.3071C133.333 24.5711 133.613 25.5551 134.173 26.2591C134.733 26.9471 135.493 27.2911 136.453 27.2911C137.813 27.2911 138.701 26.6831 139.117 25.4671H142.741C142.373 26.9071 141.645 28.0511 140.557 28.8991C139.469 29.7471 138.109 30.1711 136.477 30.1711C135.197 30.1711 134.061 29.8911 133.069 29.3311C132.077 28.7551 131.301 27.9551 130.741 26.9311C130.181 25.8911 129.901 24.6831 129.901 23.3071ZM152.691 16.4671C153.699 16.4671 154.595 16.6911 155.379 17.1391C156.163 17.5711 156.771 18.2191 157.203 19.0831C157.651 19.9311 157.875 20.9551 157.875 22.1551V29.9551H154.515V22.6111C154.515 21.5551 154.251 20.7471 153.723 20.1871C153.195 19.6111 152.475 19.3231 151.563 19.3231C150.635 19.3231 149.899 19.6111 149.355 20.1871C148.827 20.7471 148.563 21.5551 148.563 22.6111V29.9551H145.203V12.1951H148.563V18.3151C148.995 17.7391 149.571 17.2911 150.291 16.9711C151.011 16.6351 151.811 16.4671 152.691 16.4671ZM173.43 23.0191C173.43 23.4991 173.398 23.9311 173.334 24.3151H163.614C163.694 25.2751 164.03 26.0271 164.622 26.5711C165.214 27.1151 165.942 27.3871 166.806 27.3871C168.054 27.3871 168.942 26.8511 169.47 25.7791H173.094C172.71 27.0591 171.974 28.1151 170.886 28.9471C169.798 29.7631 168.462 30.1711 166.878 30.1711C165.598 30.1711 164.446 29.8911 163.422 29.3311C162.414 28.7551 161.622 27.9471 161.046 26.9071C160.486 25.8671 160.206 24.6671 160.206 23.3071C160.206 21.9311 160.486 20.7231 161.046 19.6831C161.606 18.6431 162.39 17.8431 163.398 17.2831C164.406 16.7231 165.566 16.4431 166.878 16.4431C168.142 16.4431 169.27 16.7151 170.262 17.2591C171.27 17.8031 172.046 18.5791 172.59 19.5871C173.15 20.5791 173.43 21.7231 173.43 23.0191ZM169.95 22.0591C169.934 21.1951 169.622 20.5071 169.014 19.9951C168.406 19.4671 167.662 19.2031 166.782 19.2031C165.95 19.2031 165.246 19.4591 164.67 19.9711C164.11 20.4671 163.766 21.1631 163.638 22.0591H169.95ZM192.395 16.4671C194.027 16.4671 195.339 16.9711 196.331 17.9791C197.339 18.9711 197.843 20.3631 197.843 22.1551V29.9551H194.483V22.6111C194.483 21.5711 194.219 20.7791 193.691 20.2351C193.163 19.6751 192.443 19.3951 191.531 19.3951C190.619 19.3951 189.891 19.6751 189.347 20.2351C188.819 20.7791 188.555 21.5711 188.555 22.6111V29.9551H185.195V22.6111C185.195 21.5711 184.931 20.7791 184.403 20.2351C183.875 19.6751 183.155 19.3951 182.243 19.3951C181.315 19.3951 180.579 19.6751 180.035 20.2351C179.507 20.7791 179.243 21.5711 179.243 22.6111V29.9551H175.883V16.6591H179.243V18.2671C179.675 17.7071 180.227 17.2671 180.899 16.9471C181.587 16.6271 182.339 16.4671 183.155 16.4671C184.195 16.4671 185.123 16.6911 185.939 17.1391C186.755 17.5711 187.387 18.1951 187.835 19.0111C188.267 18.2431 188.891 17.6271 189.707 17.1631C190.539 16.6991 191.435 16.4671 192.395 16.4671ZM202.735 15.0751C202.143 15.0751 201.647 14.8911 201.247 14.5231C200.863 14.1391 200.671 13.6671 200.671 13.1071C200.671 12.5471 200.863 12.0831 201.247 11.7151C201.647 11.3311 202.143 11.1391 202.735 11.1391C203.327 11.1391 203.815 11.3311 204.199 11.7151C204.599 12.0831 204.799 12.5471 204.799 13.1071C204.799 13.6671 204.599 14.1391 204.199 14.5231C203.815 14.8911 203.327 15.0751 202.735 15.0751ZM204.391 16.6591V29.9551H201.031V16.6591H204.391ZM212.799 30.1711C211.711 30.1711 210.735 29.9791 209.871 29.5951C209.007 29.1951 208.319 28.6591 207.807 27.9871C207.311 27.3151 207.039 26.5711 206.991 25.7551H210.375C210.439 26.2671 210.687 26.6911 211.119 27.0271C211.567 27.3631 212.119 27.5311 212.775 27.5311C213.415 27.5311 213.911 27.4031 214.263 27.1471C214.631 26.8911 214.815 26.5631 214.815 26.1631C214.815 25.7311 214.591 25.4111 214.143 25.2031C213.711 24.9791 213.015 24.7391 212.055 24.4831C211.063 24.2431 210.247 23.9951 209.607 23.7391C208.983 23.4831 208.439 23.0911 207.975 22.5631C207.527 22.0351 207.303 21.3231 207.303 20.4271C207.303 19.6911 207.511 19.0191 207.927 18.4111C208.359 17.8031 208.967 17.3231 209.751 16.9711C210.551 16.6191 211.487 16.4431 212.559 16.4431C214.143 16.4431 215.407 16.8431 216.351 17.6431C217.295 18.4271 217.815 19.4911 217.911 20.8351H214.695C214.647 20.3071 214.423 19.8911 214.023 19.5871C213.639 19.2671 213.119 19.1071 212.463 19.1071C211.855 19.1071 211.383 19.2191 211.047 19.4431C210.727 19.6671 210.567 19.9791 210.567 20.3791C210.567 20.8271 210.791 21.1711 211.239 21.4111C211.687 21.6351 212.383 21.8671 213.327 22.1071C214.287 22.3471 215.079 22.5951 215.703 22.8511C216.327 23.1071 216.863 23.5071 217.311 24.0511C217.775 24.5791 218.015 25.2831 218.031 26.1631C218.031 26.9311 217.815 27.6191 217.383 28.2271C216.967 28.8351 216.359 29.3151 215.559 29.6671C214.775 30.0031 213.855 30.1711 212.799 30.1711ZM224.701 19.4191V25.8511C224.701 26.2991 224.805 26.6271 225.013 26.8351C225.237 27.0271 225.605 27.1231 226.117 27.1231H227.677V29.9551H225.565C222.733 29.9551 221.317 28.5791 221.317 25.8271V19.4191H219.733V16.6591H221.317V13.3711H224.701V16.6591H227.677V19.4191H224.701Z" fill="#1A64F0"/>
<g clip-path="url(#clip0_8_1092)">
<path d="M23.2185 11.7702L38.6372 36.8134H43.0414L24.8405 7.25304C23.8126 5.58232 21.2381 5.58232 20.2101 7.25304L2 36.8134H6.40401L21.8228 11.7702C22.134 11.2663 22.9073 11.2663 23.2185 11.7702Z" fill="#1A64F0"/>
<path d="M14.5754 36.8137L22.0807 24.3407C22.2706 24.0177 22.7543 24.0177 22.953 24.3407L30.4582 36.8137H34.4915L23.3502 18.3112C22.9789 17.6983 22.0547 17.6983 21.692 18.3112L10.5508 36.8137H14.5754Z" fill="#26BEFF"/>
<path d="M22.6228 20.2212L32.0776 36.8131H13.168L22.6228 20.2212Z" fill="#26BEFF"/>
</g>
<defs>
<clipPath id="clip0_8_1092">
<rect width="41" height="31" fill="white" transform="translate(2 6)"/>
</clipPath>
</defs>
</svg>
