<svg width="229" height="44" viewBox="0 0 229 44" fill="none" xmlns="http://www.w3.org/2000/svg">
<path d="M68.056 13.3549V16.0669H63.592V30.1069H60.232V16.0669H55.768V13.3549H68.056ZM77.9956 16.6189C79.0036 16.6189 79.8996 16.8429 80.6836 17.2909C81.4676 17.7229 82.0756 18.3709 82.5076 19.2349C82.9556 20.0829 83.1796 21.1069 83.1796 22.3069V30.1069H79.8196V22.7629C79.8196 21.7069 79.5556 20.8989 79.0276 20.3389C78.4996 19.7629 77.7796 19.4749 76.8676 19.4749C75.9396 19.4749 75.2036 19.7629 74.6596 20.3389C74.1316 20.8989 73.8676 21.7069 73.8676 22.7629V30.1069H70.5076V12.3469H73.8676V18.4669C74.2996 17.8909 74.8756 17.4429 75.5956 17.1229C76.3156 16.7869 77.1156 16.6189 77.9956 16.6189ZM98.7348 23.1709C98.7348 23.6509 98.7028 24.0829 98.6388 24.4669H88.9188C88.9988 25.4269 89.3348 26.1789 89.9268 26.7229C90.5188 27.2669 91.2468 27.5389 92.1108 27.5389C93.3588 27.5389 94.2468 27.0029 94.7748 25.9309H98.3988C98.0148 27.2109 97.2788 28.2669 96.1908 29.0989C95.1028 29.9149 93.7668 30.3229 92.1828 30.3229C90.9028 30.3229 89.7508 30.0429 88.7268 29.4829C87.7188 28.9069 86.9268 28.0989 86.3508 27.0589C85.7908 26.0189 85.5107 24.8189 85.5107 23.4589C85.5107 22.0829 85.7908 20.8749 86.3508 19.8349C86.9108 18.7949 87.6948 17.9949 88.7028 17.4349C89.7108 16.8749 90.8708 16.5949 92.1828 16.5949C93.4468 16.5949 94.5748 16.8669 95.5668 17.4109C96.5748 17.9549 97.3508 18.7309 97.8948 19.7389C98.4548 20.7309 98.7348 21.8749 98.7348 23.1709ZM95.2548 22.2109C95.2388 21.3469 94.9268 20.6589 94.3188 20.1469C93.7108 19.6189 92.9668 19.3549 92.0868 19.3549C91.2548 19.3549 90.5508 19.6109 89.9748 20.1229C89.4148 20.6189 89.0708 21.3149 88.9428 22.2109H95.2548ZM117.178 26.9149H110.506L109.402 30.1069H105.874L111.898 13.3309H115.81L121.834 30.1069H118.282L117.178 26.9149ZM116.266 24.2269L113.842 17.2189L111.418 24.2269H116.266ZM127.446 12.3469V30.1069H124.086V12.3469H127.446ZM129.901 23.4589C129.901 22.0829 130.181 20.8829 130.741 19.8589C131.301 18.8189 132.077 18.0189 133.069 17.4589C134.061 16.8829 135.197 16.5949 136.477 16.5949C138.125 16.5949 139.485 17.0109 140.557 17.8429C141.645 18.6589 142.373 19.8109 142.741 21.2989H139.117C138.925 20.7229 138.597 20.2749 138.133 19.9549C137.685 19.6189 137.125 19.4509 136.453 19.4509C135.493 19.4509 134.733 19.8029 134.173 20.5069C133.613 21.1949 133.333 22.1789 133.333 23.4589C133.333 24.7229 133.613 25.7069 134.173 26.4109C134.733 27.0989 135.493 27.4429 136.453 27.4429C137.813 27.4429 138.701 26.8349 139.117 25.6189H142.741C142.373 27.0589 141.645 28.2029 140.557 29.0509C139.469 29.8989 138.109 30.3229 136.477 30.3229C135.197 30.3229 134.061 30.0429 133.069 29.4829C132.077 28.9069 131.301 28.1069 130.741 27.0829C130.181 26.0429 129.901 24.8349 129.901 23.4589ZM152.691 16.6189C153.699 16.6189 154.595 16.8429 155.379 17.2909C156.163 17.7229 156.771 18.3709 157.203 19.2349C157.651 20.0829 157.875 21.1069 157.875 22.3069V30.1069H154.515V22.7629C154.515 21.7069 154.251 20.8989 153.723 20.3389C153.195 19.7629 152.475 19.4749 151.563 19.4749C150.635 19.4749 149.899 19.7629 149.355 20.3389C148.827 20.8989 148.563 21.7069 148.563 22.7629V30.1069H145.203V12.3469H148.563V18.4669C148.995 17.8909 149.571 17.4429 150.291 17.1229C151.011 16.7869 151.811 16.6189 152.691 16.6189ZM173.43 23.1709C173.43 23.6509 173.398 24.0829 173.334 24.4669H163.614C163.694 25.4269 164.03 26.1789 164.622 26.7229C165.214 27.2669 165.942 27.5389 166.806 27.5389C168.054 27.5389 168.942 27.0029 169.47 25.9309H173.094C172.71 27.2109 171.974 28.2669 170.886 29.0989C169.798 29.9149 168.462 30.3229 166.878 30.3229C165.598 30.3229 164.446 30.0429 163.422 29.4829C162.414 28.9069 161.622 28.0989 161.046 27.0589C160.486 26.0189 160.206 24.8189 160.206 23.4589C160.206 22.0829 160.486 20.8749 161.046 19.8349C161.606 18.7949 162.39 17.9949 163.398 17.4349C164.406 16.8749 165.566 16.5949 166.878 16.5949C168.142 16.5949 169.27 16.8669 170.262 17.4109C171.27 17.9549 172.046 18.7309 172.59 19.7389C173.15 20.7309 173.43 21.8749 173.43 23.1709ZM169.95 22.2109C169.934 21.3469 169.622 20.6589 169.014 20.1469C168.406 19.6189 167.662 19.3549 166.782 19.3549C165.95 19.3549 165.246 19.6109 164.67 20.1229C164.11 20.6189 163.766 21.3149 163.638 22.2109H169.95ZM192.395 16.6189C194.027 16.6189 195.339 17.1229 196.331 18.1309C197.339 19.1229 197.843 20.5149 197.843 22.3069V30.1069H194.483V22.7629C194.483 21.7229 194.219 20.9309 193.691 20.3869C193.163 19.8269 192.443 19.5469 191.531 19.5469C190.619 19.5469 189.891 19.8269 189.347 20.3869C188.819 20.9309 188.555 21.7229 188.555 22.7629V30.1069H185.195V22.7629C185.195 21.7229 184.931 20.9309 184.403 20.3869C183.875 19.8269 183.155 19.5469 182.243 19.5469C181.315 19.5469 180.579 19.8269 180.035 20.3869C179.507 20.9309 179.243 21.7229 179.243 22.7629V30.1069H175.883V16.8109H179.243V18.4189C179.675 17.8589 180.227 17.4189 180.899 17.0989C181.587 16.7789 182.339 16.6189 183.155 16.6189C184.195 16.6189 185.123 16.8429 185.939 17.2909C186.755 17.7229 187.387 18.3469 187.835 19.1629C188.267 18.3949 188.891 17.7789 189.707 17.3149C190.539 16.8509 191.435 16.6189 192.395 16.6189ZM202.735 15.2269C202.143 15.2269 201.647 15.0429 201.247 14.6749C200.863 14.2909 200.671 13.8189 200.671 13.2589C200.671 12.6989 200.863 12.2349 201.247 11.8669C201.647 11.4829 202.143 11.2909 202.735 11.2909C203.327 11.2909 203.815 11.4829 204.199 11.8669C204.599 12.2349 204.799 12.6989 204.799 13.2589C204.799 13.8189 204.599 14.2909 204.199 14.6749C203.815 15.0429 203.327 15.2269 202.735 15.2269ZM204.391 16.8109V30.1069H201.031V16.8109H204.391ZM212.799 30.3229C211.711 30.3229 210.735 30.1309 209.871 29.7469C209.007 29.3469 208.319 28.8109 207.807 28.1389C207.311 27.4669 207.039 26.7229 206.991 25.9069H210.375C210.439 26.4189 210.687 26.8429 211.119 27.1789C211.567 27.5149 212.119 27.6829 212.775 27.6829C213.415 27.6829 213.911 27.5549 214.263 27.2989C214.631 27.0429 214.815 26.7149 214.815 26.3149C214.815 25.8829 214.591 25.5629 214.143 25.3549C213.711 25.1309 213.015 24.8909 212.055 24.6349C211.063 24.3949 210.247 24.1469 209.607 23.8909C208.983 23.6349 208.439 23.2429 207.975 22.7149C207.527 22.1869 207.303 21.4749 207.303 20.5789C207.303 19.8429 207.511 19.1709 207.927 18.5629C208.359 17.9549 208.967 17.4749 209.751 17.1229C210.551 16.7709 211.487 16.5949 212.559 16.5949C214.143 16.5949 215.407 16.9949 216.351 17.7949C217.295 18.5789 217.815 19.6429 217.911 20.9869H214.695C214.647 20.4589 214.423 20.0429 214.023 19.7389C213.639 19.4189 213.119 19.2589 212.463 19.2589C211.855 19.2589 211.383 19.3709 211.047 19.5949C210.727 19.8189 210.567 20.1309 210.567 20.5309C210.567 20.9789 210.791 21.3229 211.239 21.5629C211.687 21.7869 212.383 22.0189 213.327 22.2589C214.287 22.4989 215.079 22.7469 215.703 23.0029C216.327 23.2589 216.863 23.6589 217.311 24.2029C217.775 24.7309 218.015 25.4349 218.031 26.3149C218.031 27.0829 217.815 27.7709 217.383 28.3789C216.967 28.9869 216.359 29.4669 215.559 29.8189C214.775 30.1549 213.855 30.3229 212.799 30.3229ZM224.701 19.5709V26.0029C224.701 26.4509 224.805 26.7789 225.013 26.9869C225.237 27.1789 225.605 27.2749 226.117 27.2749H227.677V30.1069H225.565C222.733 30.1069 221.317 28.7309 221.317 25.9789V19.5709H219.733V16.8109H221.317V13.5229H224.701V16.8109H227.677V19.5709H224.701Z" fill="white"/>
<g clip-path="url(#clip0_8_385)">
<path d="M23.2185 11.7702L38.6372 36.8134H43.0414L24.8405 7.25304C23.8126 5.58232 21.2381 5.58232 20.2101 7.25304L2 36.8134H6.40401L21.8228 11.7702C22.134 11.2663 22.9073 11.2663 23.2185 11.7702Z" fill="#1A64F0"/>
<path d="M14.5754 36.8137L22.0807 24.3407C22.2706 24.0177 22.7543 24.0177 22.953 24.3407L30.4582 36.8137H34.4915L23.3502 18.3112C22.9789 17.6983 22.0547 17.6983 21.692 18.3112L10.5508 36.8137H14.5754Z" fill="#26BEFF"/>
<path d="M22.6228 20.2214L32.0776 36.8133H13.168L22.6228 20.2214Z" fill="#26BEFF"/>
</g>
<defs>
<clipPath id="clip0_8_385">
<rect width="41" height="31" fill="white" transform="translate(2 6)"/>
</clipPath>
</defs>
</svg>
