<svg width="20" height="20" viewBox="0 0 20 20" fill="none" xmlns="http://www.w3.org/2000/svg">
<g clip-path="url(#clip0_1_23137)">
<path d="M10 20C15.5227 20 20 15.5227 20 10C20 4.47724 15.5227 0 10 0C4.47724 0 0 4.47724 0 10C0 15.5227 4.47724 20 10 20Z" fill="#24A980"/>
<path d="M11.2413 10.9968L10.0194 11.029C9.37617 11.029 8.94217 11.0128 8.78125 10.9968C6.35365 10.9003 4.52078 10.4662 4.52078 9.96783C4.52078 9.45333 6.33756 9.03542 8.78125 8.92275V10.5786C8.94217 10.5947 9.39225 10.6108 10.0353 10.6108C10.7909 10.6108 11.1768 10.5786 11.2413 10.5786V8.92275C13.6849 9.03542 15.5017 9.45333 15.5017 9.96783C15.5017 10.4662 13.6849 10.9003 11.2413 10.9968ZM11.2413 8.746V7.2669H14.6495V5H5.38906V7.2669H8.79734V8.746C6.03204 8.8745 3.95825 9.42117 3.95825 10.0805C3.95825 10.7397 6.03204 11.2862 8.79734 11.4149V16.1738H11.2573V11.4148C14.0224 11.2862 16.0964 10.7395 16.0964 10.0803C16.0803 9.42117 14.0065 8.8745 11.2413 8.74575V8.746Z" fill="#FFFDFA"/>
</g>
<defs>
<clipPath id="clip0_1_23137">
<rect width="20" height="20" fill="white"/>
</clipPath>
</defs>
</svg>
