<svg width="40" height="51" viewBox="0 0 40 51" fill="none" xmlns="http://www.w3.org/2000/svg">
<path d="M29.48 25.224L29.1797 24.2701L29.2967 26.2071L29.48 25.224ZM36.464 29.472L37.248 28.8513L36.464 29.472ZM37.184 44.52L36.346 43.9743L36.3428 43.9792L37.184 44.52ZM31.496 49.272L31.9151 50.18L31.496 49.272ZM0.968 51H-0.0319996V52H0.968V51ZM0.968 0.743999V-0.256001H-0.0319996V0.743999H0.968ZM30.488 2.4L30.0769 3.31161L30.0835 3.31454L30.488 2.4ZM36.104 7.008L35.2595 7.54354L35.2641 7.55081L35.2688 7.55799L36.104 7.008ZM35.672 21.048L34.893 20.421L34.8883 20.4268L34.8837 20.4327L35.672 21.048ZM11.048 21.48H10.048V22.48H11.048V21.48ZM25.808 19.896L26.4397 20.6712L26.4481 20.6643L26.4565 20.6572L25.808 19.896ZM25.808 10.536L26.4565 9.77475L25.808 10.536ZM11.048 8.88V7.88H10.048V8.88H11.048ZM26.888 41.064L26.2504 40.2936L26.2438 40.2991L26.2372 40.3047L26.888 41.064ZM26.816 31.128L26.1611 31.8837L26.1684 31.89L26.1758 31.8962L26.816 31.128ZM11.048 29.256V28.256H10.048V29.256H11.048ZM11.048 42.792H10.048V43.792H11.048V42.792ZM29.2967 26.2071C31.8861 26.6898 34.0026 27.9739 35.68 30.0927L37.248 28.8513C35.2774 26.3621 32.7379 24.8142 29.6633 24.2409L29.2967 26.2071ZM35.68 30.0927C37.3622 32.2176 38.2 34.6382 38.2 37.392H40.2C40.2 34.1938 39.2138 31.3344 37.248 28.8513L35.68 30.0927ZM38.2 37.392C38.2 39.9047 37.5747 42.0875 36.346 43.9743L38.022 45.0657C39.4813 42.8245 40.2 40.2553 40.2 37.392H38.2ZM36.3428 43.9792C35.1642 45.8127 33.4262 47.2798 31.0769 48.364L31.9151 50.18C34.5578 48.9602 36.6118 47.2593 38.0252 45.0608L36.3428 43.9792ZM31.0769 48.364C28.7399 49.4427 25.9371 50 22.64 50V52C26.1589 52 29.2601 51.4053 31.9151 50.18L31.0769 48.364ZM22.64 50H0.968V52H22.64V50ZM1.968 51V0.743999H-0.0319996V51H1.968ZM0.968 1.744H21.704V-0.256001H0.968V1.744ZM21.704 1.744C25.0071 1.744 27.7879 2.27931 30.0769 3.31159L30.8991 1.48841C28.2921 0.312689 25.2169 -0.256001 21.704 -0.256001V1.744ZM30.0835 3.31454C32.4302 4.35252 34.1346 5.76965 35.2595 7.54354L36.9485 6.47246C35.5774 4.31035 33.5378 2.65548 30.8925 1.48546L30.0835 3.31454ZM35.2688 7.55799C36.4508 9.35283 37.048 11.3913 37.048 13.704H39.048C39.048 11.0247 38.3492 8.59916 36.9392 6.45801L35.2688 7.55799ZM37.048 13.704C37.048 16.4419 36.3118 18.6582 34.893 20.421L36.451 21.675C38.2002 19.5018 39.048 16.8221 39.048 13.704H37.048ZM34.8837 20.4327C33.4834 22.2268 31.5964 23.5093 29.1797 24.2701L29.7803 26.1778C32.5476 25.3067 34.7886 23.8052 36.4603 21.6633L34.8837 20.4327ZM11.048 22.48H20.264V20.48H11.048V22.48ZM20.264 22.48C22.7962 22.48 24.9018 21.9243 26.4397 20.6712L25.1763 19.1208C24.1222 19.9797 22.5318 20.48 20.264 20.48V22.48ZM26.4565 20.6572C28.0172 19.3278 28.752 17.4654 28.752 15.216H26.752C26.752 16.9986 26.1908 18.2562 25.1595 19.1348L26.4565 20.6572ZM28.752 15.216C28.752 12.9666 28.0172 11.1042 26.4565 9.77475L25.1595 11.2972C26.1908 12.1758 26.752 13.4334 26.752 15.216H28.752ZM26.4565 9.77475C24.9177 8.46396 22.8053 7.88 20.264 7.88V9.88C22.5227 9.88 24.1063 10.4 25.1595 11.2972L26.4565 9.77475ZM20.264 7.88H11.048V9.88H20.264V7.88ZM10.048 8.88V21.48H12.048V8.88H10.048ZM21.2 43.792C23.7956 43.792 25.9546 43.1811 27.5388 41.8233L26.2372 40.3047C25.1334 41.2509 23.5004 41.792 21.2 41.792V43.792ZM27.5256 41.8344C29.1871 40.4594 29.976 38.5219 29.976 36.168H27.976C27.976 38.0381 27.3729 39.3646 26.2504 40.2936L27.5256 41.8344ZM29.976 36.168C29.976 33.7617 29.1603 31.7799 27.4562 30.3598L26.1758 31.8962C27.3517 32.8761 27.976 34.2543 27.976 36.168H29.976ZM27.4709 30.3723C25.8023 28.9262 23.6024 28.256 20.984 28.256V30.256C23.2616 30.256 24.9497 30.8338 26.1611 31.8837L27.4709 30.3723ZM20.984 28.256H11.048V30.256H20.984V28.256ZM10.048 29.256V42.792H12.048V29.256H10.048ZM11.048 43.792H21.2V41.792H11.048V43.792Z" fill="#111111"/>
</svg>
