<svg width="46" height="51" viewBox="0 0 46 51" fill="none" xmlns="http://www.w3.org/2000/svg">
<path d="M32.432 3.84L31.972 4.72792L31.9763 4.73015L32.432 3.84ZM41.72 12.696L40.8484 13.1863L40.8521 13.1928L40.8558 13.1992L41.72 12.696ZM41.72 39.192L40.8558 38.6888L40.8538 38.6923L41.72 39.192ZM32.432 47.904L31.9763 47.0138L31.972 47.0161L32.432 47.904ZM0.968 51H-0.0319996V52H0.968V51ZM0.968 0.743999V-0.256001H-0.0319996V0.743999H0.968ZM30.416 38.112L29.7089 37.4049L30.416 38.112ZM30.416 13.704L29.6974 14.3994L29.7031 14.4052L30.416 13.704ZM11.048 9.24V8.24H10.048V9.24H11.048ZM11.048 42.432H10.048V43.432H11.048V42.432ZM18.536 1.744C23.6842 1.744 28.1533 2.74954 31.972 4.72791L32.892 2.95208C28.7427 0.802456 23.9478 -0.256001 18.536 -0.256001V1.744ZM31.9763 4.73015C35.8386 6.70727 38.7876 9.52255 40.8484 13.1863L42.5916 12.2057C40.3324 8.18945 37.0894 5.10072 32.8877 2.94985L31.9763 4.73015ZM40.8558 13.1992C42.9623 16.8169 44.032 21.0541 44.032 25.944H46.032C46.032 20.7539 44.8937 16.1591 42.5842 12.1928L40.8558 13.1992ZM44.032 25.944C44.032 30.8339 42.9623 35.0711 40.8558 38.6888L42.5842 39.6952C44.8937 35.7289 46.032 31.1341 46.032 25.944H44.032ZM40.8538 38.6923C38.7949 42.2611 35.8454 45.0333 31.9763 47.0139L32.8877 48.7942C37.0826 46.6467 40.3251 43.6109 42.5862 39.6917L40.8538 38.6923ZM31.972 47.0161C28.1533 48.9945 23.6842 50 18.536 50V52C23.9478 52 28.7427 50.9415 32.892 48.7919L31.972 47.0161ZM18.536 50H0.968V52H18.536V50ZM1.968 51V0.743999H-0.0319996V51H1.968ZM0.968 1.744H18.536V-0.256001H0.968V1.744ZM18.176 43.432C23.6392 43.432 28.0046 41.9376 31.1231 38.8191L29.7089 37.4049C27.0674 40.0464 23.2728 41.432 18.176 41.432V43.432ZM31.1231 38.8191C34.24 35.7023 35.736 31.3622 35.736 25.944H33.736C33.736 30.9898 32.352 34.7617 29.7089 37.4049L31.1231 38.8191ZM35.736 25.944C35.736 20.5249 34.2397 16.1653 31.1289 13.0028L29.7031 14.4052C32.3523 17.0987 33.736 20.8991 33.736 25.944H35.736ZM31.1346 13.0086C28.0178 9.78788 23.6483 8.24 18.176 8.24V10.24C23.2637 10.24 27.0542 11.6681 29.6974 14.3994L31.1346 13.0086ZM18.176 8.24H11.048V10.24H18.176V8.24ZM10.048 9.24V42.432H12.048V9.24H10.048ZM11.048 43.432H18.176V41.432H11.048V43.432Z" fill="#111111"/>
</svg>
