<svg width="28" height="51" viewBox="0 0 28 51" fill="none" xmlns="http://www.w3.org/2000/svg">
<path d="M11.048 43.008H10.048V44.008H11.048V43.008ZM27.608 43.008H28.608V42.008H27.608V43.008ZM27.608 51V52H28.608V51H27.608ZM0.968 51H-0.0319996V52H0.968V51ZM0.968 0.743999V-0.256001H-0.0319996V0.743999H0.968ZM11.048 0.743999H12.048V-0.256001H11.048V0.743999ZM11.048 44.008H27.608V42.008H11.048V44.008ZM26.608 43.008V51H28.608V43.008H26.608ZM27.608 50H0.968V52H27.608V50ZM1.968 51V0.743999H-0.0319996V51H1.968ZM0.968 1.744H11.048V-0.256001H0.968V1.744ZM10.048 0.743999V43.008H12.048V0.743999H10.048Z" fill="#111111"/>
</svg>
