<svg width="56" height="51" viewBox="0 0 56 51" fill="none" xmlns="http://www.w3.org/2000/svg">
<path d="M55.76 0.743999H56.76V-0.256001H55.76V0.743999ZM55.76 51V52H56.76V51H55.76ZM45.68 51H44.68V52H45.68V51ZM45.68 18.312H46.68L44.7554 17.9311L45.68 18.312ZM32.216 51V52H32.8856L33.1406 51.3809L32.216 51ZM24.584 51L23.6601 51.3826L23.9158 52H24.584V51ZM11.048 18.312L11.9719 17.9294L10.048 18.312H11.048ZM11.048 51V52H12.048V51H11.048ZM0.968 51H-0.0319996V52H0.968V51ZM0.968 0.743999V-0.256001H-0.0319996V0.743999H0.968ZM12.416 0.743999L13.3354 0.350721L13.0759 -0.256001H12.416V0.743999ZM28.4 38.112L27.4806 38.5053L28.4 40.6547L29.3194 38.5053L28.4 38.112ZM44.384 0.743999V-0.256001H43.7241L43.4646 0.350721L44.384 0.743999ZM54.76 0.743999V51H56.76V0.743999H54.76ZM55.76 50H45.68V52H55.76V50ZM46.68 51V18.312H44.68V51H46.68ZM44.7554 17.9311L31.2914 50.6191L33.1406 51.3809L46.6046 18.6929L44.7554 17.9311ZM32.216 50H24.584V52H32.216V50ZM25.5079 50.6174L11.9719 17.9294L10.1241 18.6946L23.6601 51.3826L25.5079 50.6174ZM10.048 18.312V51H12.048V18.312H10.048ZM11.048 50H0.968V52H11.048V50ZM1.968 51V0.743999H-0.0319996V51H1.968ZM0.968 1.744H12.416V-0.256001H0.968V1.744ZM11.4966 1.13728L27.4806 38.5053L29.3194 37.7187L13.3354 0.350721L11.4966 1.13728ZM29.3194 38.5053L45.3034 1.13728L43.4646 0.350721L27.4806 37.7187L29.3194 38.5053ZM44.384 1.744H55.76V-0.256001H44.384V1.744Z" fill="#111111"/>
</svg>
