<svg width="42" height="42" viewBox="0 0 42 42" fill="none" xmlns="http://www.w3.org/2000/svg">
<path d="M10.312 39.128L9.8217 39.9996L9.83219 40.0054L10.312 39.128ZM3.04 31.856L2.16515 32.3405L2.17094 32.3507L3.04 31.856ZM3.112 10.256L2.24865 9.75127L2.24294 9.7613L3.112 10.256ZM10.528 3.056L11.0021 3.93653L11.0125 3.93079L10.528 3.056ZM31.408 3.056L30.9235 3.93085L30.9339 3.93647L31.408 3.056ZM38.752 10.256L37.8829 10.7507L37.8887 10.7607L38.752 10.256ZM38.68 31.856L37.8225 31.3415L37.8167 31.3513L38.68 31.856ZM31.192 39.128L31.6661 40.0085L31.6709 40.0059L31.192 39.128ZM25.792 31.568L26.2709 32.4459L26.2798 32.4409L25.792 31.568ZM29.68 27.536L30.5597 28.0115V28.0115L29.68 27.536ZM28.096 12.344L27.3723 13.0341L27.3805 13.0427L27.3889 13.0511L28.096 12.344ZM13.552 12.344L12.8283 11.6539L12.8279 11.6543L13.552 12.344ZM13.48 29.84L12.7393 30.5118L12.7475 30.5208L12.7559 30.5297L13.48 29.84ZM20.68 40.648C16.9911 40.648 13.7028 39.8426 10.7918 38.2506L9.83219 40.0054C13.0652 41.7734 16.6889 42.648 20.68 42.648V40.648ZM10.8023 38.2564C7.89144 36.6191 5.59707 34.3267 3.90906 31.3613L2.17094 32.3507C4.03493 35.6253 6.58856 38.1809 9.82174 39.9996L10.8023 38.2564ZM3.91479 31.3715C2.2801 28.42 1.448 24.9912 1.448 21.056H-0.552C-0.552 25.2808 0.343898 29.052 2.16521 32.3405L3.91479 31.3715ZM1.448 21.056C1.448 17.1254 2.30204 13.7003 3.98106 10.7507L2.24294 9.7613C0.369957 13.0517 -0.552 16.8266 -0.552 21.056H1.448ZM3.9753 10.7607C5.7085 7.79601 8.04725 5.52754 11.0021 3.93647L10.0539 2.17553C6.76875 3.94445 4.1635 6.47599 2.2487 9.7513L3.9753 10.7607ZM11.0125 3.93079C13.9729 2.29116 17.2841 1.464 20.968 1.464V-0.536003C16.9719 -0.536003 13.3231 0.364838 10.0435 2.18121L11.0125 3.93079ZM20.968 1.464C24.6519 1.464 27.9631 2.29116 30.9235 3.93079L31.8925 2.18121C28.6129 0.364838 24.9641 -0.536003 20.968 -0.536003V1.464ZM30.9339 3.93647C33.8864 5.52626 36.1985 7.79154 37.8829 10.7507L39.6211 9.7613C37.7535 6.48046 35.1696 3.94574 31.8821 2.17553L30.9339 3.93647ZM37.8887 10.7607C39.6121 13.7086 40.488 17.13 40.488 21.056H42.488C42.488 16.822 41.5399 13.0434 39.6153 9.7513L37.8887 10.7607ZM40.488 21.056C40.488 24.9773 39.5903 28.3952 37.8225 31.3415L39.5375 32.3705C41.5137 29.0768 42.488 25.2947 42.488 21.056H40.488ZM37.8167 31.3513C36.0844 34.3145 33.7212 36.6094 30.7132 38.2501L31.6709 40.0059C34.9988 38.1906 37.6276 35.6375 39.5433 32.3607L37.8167 31.3513ZM30.7179 38.2475C27.7574 39.8416 24.419 40.648 20.68 40.648V42.648C24.7171 42.648 28.3866 41.7744 31.6661 40.0085L30.7179 38.2475ZM20.68 33.864C22.6694 33.864 24.5383 33.3909 26.2709 32.4459L25.3131 30.6901C23.8777 31.4731 22.3386 31.864 20.68 31.864V33.864ZM26.2798 32.4409C28.0908 31.4289 29.517 29.9406 30.5597 28.0115L28.8003 27.0605C27.923 28.6834 26.7572 29.8831 25.3042 30.6951L26.2798 32.4409ZM30.5597 28.0115C31.6166 26.0563 32.12 23.7237 32.12 21.056H30.12C30.12 23.4763 29.6634 25.4637 28.8003 27.0605L30.5597 28.0115ZM32.12 21.056C32.12 17.0893 31.0622 13.896 28.8031 11.6369L27.3889 13.0511C29.1618 14.824 30.12 17.4387 30.12 21.056H32.12ZM28.8197 11.6539C26.6609 9.3898 23.9744 8.248 20.824 8.248V10.248C23.4336 10.248 25.5951 11.1702 27.3723 13.0341L28.8197 11.6539ZM20.824 8.248C17.6736 8.248 14.9871 9.3898 12.8283 11.6539L14.2757 13.0341C16.0529 11.1702 18.2144 10.248 20.824 10.248V8.248ZM12.8279 11.6543C10.6748 13.9151 9.672 17.1018 9.672 21.056H11.672C11.672 17.4262 12.5892 14.8049 14.2761 13.0337L12.8279 11.6543ZM9.672 21.056C9.672 25.0058 10.6482 28.2063 12.7393 30.5118L14.2207 29.1682C12.5678 27.3457 11.672 24.6902 11.672 21.056H9.672ZM12.7559 30.5297C14.8718 32.7514 17.537 33.864 20.68 33.864V31.864C18.0631 31.864 15.9282 30.9606 14.2041 29.1503L12.7559 30.5297Z" fill="#111111"/>
</svg>
