<svg width="38" height="52" viewBox="0 0 38 52" fill="none" xmlns="http://www.w3.org/2000/svg">
<path d="M9.816 49.704L9.42016 50.6223L9.42585 50.6247L9.816 49.704ZM3.192 44.52L2.38178 45.1061L3.192 44.52ZM0.672 36.528V35.528H-0.343747L-0.327878 36.5436L0.672 36.528ZM11.472 36.528L12.4696 36.4584L12.4047 35.528H11.472V36.528ZM13.632 41.424L12.9526 42.1578L12.9592 42.1639L12.966 42.1699L13.632 41.424ZM24.648 41.568L25.2827 42.3407L25.2908 42.3341L25.2988 42.3273L24.648 41.568ZM25.296 33.432L24.571 34.1207L25.296 33.432ZM21.84 31.2L21.4461 32.1191L21.4655 32.1275L21.4853 32.135L21.84 31.2ZM16.224 29.328L15.9418 30.2874L15.9544 30.291L16.224 29.328ZM8.232 26.52L7.80207 27.4229L7.81487 27.429L7.82784 27.4347L8.232 26.52ZM2.976 22.272L2.176 22.872L2.18443 22.8832L2.19318 22.8942L2.976 22.272ZM3.048 6.864L3.87727 7.42285L3.048 6.864ZM9.312 1.824L9.70592 2.74314L9.71281 2.74019L9.71965 2.73714L9.312 1.824ZM31.128 3.84L30.5076 4.62428L30.514 4.62937L30.5206 4.63436L31.128 3.84ZM36.528 14.352V15.352H37.6052L37.5252 14.2777L36.528 14.352ZM25.44 14.352L24.4415 14.4075L24.494 15.352H25.44V14.352ZM23.208 10.104L22.5572 10.8633L22.5717 10.8757L22.5866 10.8875L23.208 10.104ZM13.056 9.888L12.4128 9.12229L12.4051 9.12878L12.3975 9.13542L13.056 9.888ZM12.624 17.664L11.898 18.3517L11.9166 18.3714L11.9363 18.3899L12.624 17.664ZM15.936 19.824L15.5299 20.7378L15.5499 20.7467L15.5703 20.7547L15.936 19.824ZM21.552 21.696L21.2646 22.6538L21.2698 22.6554L21.552 21.696ZM34.872 28.896L34.0816 29.5086L34.872 28.896ZM35.016 43.944L34.1601 43.4269V43.4269L35.016 43.944ZM28.896 49.488L29.3432 50.3824L29.3496 50.3793L29.3559 50.376L28.896 49.488ZM19.32 50.504C15.9315 50.504 12.8987 49.9242 10.2061 48.7832L9.42585 50.6247C12.3973 51.8838 15.7005 52.504 19.32 52.504V50.504ZM10.2118 48.7857C7.5782 47.6505 5.51927 46.031 4.00222 43.9339L2.38178 45.1061C4.12873 47.521 6.4858 49.3575 9.42017 50.6223L10.2118 48.7857ZM4.00222 43.9339C2.50285 41.8612 1.71702 39.4015 1.67188 36.5124L-0.327878 36.5436C-0.27702 39.7985 0.617154 42.6668 2.38178 45.1061L4.00222 43.9339ZM0.672 37.528H11.472V35.528H0.672V37.528ZM10.4744 36.5976C10.6329 38.8689 11.4383 40.7557 12.9526 42.1578L14.3114 40.6902C13.2337 39.6923 12.5991 38.3151 12.4696 36.4584L10.4744 36.5976ZM12.966 42.1699C14.5398 43.5752 16.6249 44.224 19.104 44.224V42.224C16.9751 42.224 15.4122 41.6728 14.298 40.6781L12.966 42.1699ZM19.104 44.224C21.606 44.224 23.7056 43.6362 25.2827 42.3407L24.0133 40.7953C22.9024 41.7078 21.306 42.224 19.104 42.224V44.224ZM25.2988 42.3273C26.8721 40.9787 27.664 39.2097 27.664 37.104H25.664C25.664 38.6463 25.1119 39.8533 23.9972 40.8087L25.2988 42.3273ZM27.664 37.104C27.664 35.394 27.1319 33.9126 26.021 32.7432L24.571 34.1207C25.2841 34.8714 25.664 35.838 25.664 37.104H27.664ZM26.021 32.7432C24.9934 31.6616 23.7095 30.8396 22.1947 30.265L21.4853 32.135C22.7545 32.6164 23.7746 33.2824 24.571 34.1207L26.021 32.7432ZM22.2339 30.2809C20.8311 29.6797 18.911 29.0419 16.4936 28.365L15.9544 30.291C18.337 30.9581 20.1609 31.5683 21.4461 32.1191L22.2339 30.2809ZM16.5062 28.3686C13.2652 27.4154 10.646 26.4934 8.63616 25.6053L7.82784 27.4347C9.94597 28.3706 12.6548 29.3206 15.9418 30.2874L16.5062 28.3686ZM8.66193 25.6171C6.79302 24.7272 5.15896 23.4112 3.75882 21.6498L2.19318 22.8942C3.76904 24.8768 5.63898 26.3928 7.80207 27.4229L8.66193 25.6171ZM3.776 21.672C2.50188 19.9732 1.816 17.6606 1.816 14.64H-0.184C-0.184 17.9554 0.570117 20.7308 2.176 22.872L3.776 21.672ZM1.816 14.64C1.816 11.8388 2.51341 9.44664 3.87727 7.42285L2.21873 6.30515C0.606589 8.69736 -0.184 11.4892 -0.184 14.64H1.816ZM3.87727 7.42285C5.24734 5.38984 7.17661 3.82713 9.70592 2.74314L8.91808 0.904854C6.07139 2.12486 3.82466 3.92215 2.21873 6.30515L3.87727 7.42285ZM9.71965 2.73714C12.259 1.6035 15.1883 1.024 18.528 1.024V-0.976C14.9557 -0.976 11.741 -0.355503 8.90435 0.91086L9.71965 2.73714ZM18.528 1.024C23.5474 1.024 27.5105 2.25343 30.5076 4.62428L31.7484 3.05571C28.3135 0.338572 23.8766 -0.976 18.528 -0.976V1.024ZM30.5206 4.63436C33.5333 6.93825 35.2136 10.1667 35.5308 14.4263L37.5252 14.2777C37.1704 9.5133 35.2507 5.73374 31.7355 3.04564L30.5206 4.63436ZM36.528 13.352H25.44V15.352H36.528V13.352ZM26.4385 14.2965C26.3261 12.2746 25.4386 10.5967 23.8294 9.3205L22.5866 10.8875C23.7614 11.8193 24.3619 12.9734 24.4415 14.4075L26.4385 14.2965ZM23.8588 9.34474C22.2883 7.99862 20.2355 7.376 17.808 7.376V9.376C19.8925 9.376 21.4397 9.90538 22.5572 10.8633L23.8588 9.34474ZM17.808 7.376C15.6666 7.376 13.8353 7.92743 12.4128 9.12229L13.6992 10.6537C14.6767 9.83257 16.0134 9.376 17.808 9.376V7.376ZM12.3975 9.13542C10.9753 10.3798 10.328 12.1507 10.328 14.28H12.328C12.328 12.5693 12.8327 11.4122 13.7145 10.6406L12.3975 9.13542ZM10.328 14.28C10.328 15.8602 10.845 17.2402 11.898 18.3517L13.35 16.9763C12.675 16.2638 12.328 15.3877 12.328 14.28H10.328ZM11.9363 18.3899C12.9407 19.3415 14.1432 20.1215 15.5299 20.7378L16.3421 18.9102C15.1368 18.3745 14.1313 17.7145 13.3117 16.938L11.9363 18.3899ZM15.5703 20.7547C16.952 21.2976 18.8543 21.9307 21.2647 22.6538L21.8393 20.7382C19.4497 20.0213 17.608 19.4064 16.3017 18.8932L15.5703 20.7547ZM21.2698 22.6554C24.507 23.6075 27.1196 24.5513 29.1223 25.4827L29.9657 23.6693C27.8404 22.6807 25.125 21.7045 21.8342 20.7366L21.2698 22.6554ZM29.1223 25.4827C31.032 26.371 32.6845 27.7059 34.0816 29.5086L35.6624 28.2834C34.0835 26.2461 32.184 24.701 29.9657 23.6693L29.1223 25.4827ZM34.0816 29.5086C35.3993 31.2088 36.104 33.4941 36.104 36.456H38.104C38.104 33.1779 37.3207 30.4232 35.6624 28.2834L34.0816 29.5086ZM36.104 36.456C36.104 38.9614 35.458 41.2787 34.1601 43.4269L35.8719 44.4611C37.358 42.0013 38.104 39.3266 38.104 36.456H36.104ZM34.1601 43.4269C32.8749 45.5541 30.9814 47.2819 28.4361 48.6L29.3559 50.376C32.1866 48.9101 34.3731 46.9419 35.8719 44.4611L34.1601 43.4269ZM28.4488 48.5936C25.9279 49.854 22.8958 50.504 19.32 50.504V52.504C23.1362 52.504 26.4881 51.81 29.3432 50.3824L28.4488 48.5936Z" fill="#111111"/>
</svg>
