<svg width="38" height="51" viewBox="0 0 38 51" fill="none" xmlns="http://www.w3.org/2000/svg">
<path d="M37.168 0.743999H38.168V-0.256001H37.168V0.743999ZM37.168 8.88V9.88H38.168V8.88H37.168ZM23.776 8.88V7.88H22.776V8.88H23.776ZM23.776 51V52H24.776V51H23.776ZM13.696 51H12.696V52H13.696V51ZM13.696 8.88H14.696V7.88H13.696V8.88ZM0.304 8.88H-0.696V9.88H0.304V8.88ZM0.304 0.743999V-0.256001H-0.696V0.743999H0.304ZM36.168 0.743999V8.88H38.168V0.743999H36.168ZM37.168 7.88H23.776V9.88H37.168V7.88ZM22.776 8.88V51H24.776V8.88H22.776ZM23.776 50H13.696V52H23.776V50ZM14.696 51V8.88H12.696V51H14.696ZM13.696 7.88H0.304V9.88H13.696V7.88ZM1.304 8.88V0.743999H-0.696V8.88H1.304ZM0.304 1.744H37.168V-0.256001H0.304V1.744Z" fill="#111111"/>
</svg>
