<svg width="60" height="54" viewBox="0 0 60 54" fill="none" xmlns="http://www.w3.org/2000/svg">
<path d="M48.248 21.672V20.672H47.4396L47.2702 21.4625L48.248 21.672ZM45.872 32.76L44.8942 32.5505L44.635 33.76H45.872V32.76ZM55.016 32.76H56.016V31.76H55.016V32.76ZM55.016 41.76V42.76H56.016V41.76H55.016ZM43.928 41.76V40.76H43.1176L42.9497 41.5528L43.928 41.76ZM41.336 54V55H42.1464L42.3143 54.2072L41.336 54ZM31.76 54L30.7817 53.7928L30.5261 55H31.76V54ZM34.352 41.76L35.3303 41.9672L35.5859 40.76H34.352V41.76ZM21.248 41.76V40.76H20.4376L20.2697 41.5528L21.248 41.76ZM18.656 54V55H19.4664L19.6343 54.2072L18.656 54ZM9.152 54L8.1737 53.7928L7.91806 55H9.152V54ZM11.744 41.76L12.7223 41.9672L12.9779 40.76H11.744V41.76ZM0.872 41.76H-0.128V42.76H0.872V41.76ZM0.872 32.76V31.76H-0.128V32.76H0.872ZM13.688 32.76V33.76H14.4964L14.6658 32.9695L13.688 32.76ZM16.064 21.672L17.0418 21.8815L17.301 20.672H16.064V21.672ZM5.264 21.672H4.264V22.672H5.264V21.672ZM5.264 12.672V11.672H4.264V12.672H5.264ZM18.008 12.672V13.672H18.8191L18.9865 12.8783L18.008 12.672ZM20.528 0.719999V-0.280001H19.7169L19.5495 0.513691L20.528 0.719999ZM30.032 0.719999L31.0105 0.926308L31.2648 -0.280001H30.032V0.719999ZM27.512 12.672L26.5335 12.4657L26.2792 13.672H27.512V12.672ZM40.616 12.672V13.672H41.4271L41.5945 12.8783L40.616 12.672ZM43.136 0.719999V-0.280001H42.3249L42.1575 0.513691L43.136 0.719999ZM52.712 0.719999L53.6905 0.926308L53.9448 -0.280001H52.712V0.719999ZM50.192 12.672L49.2135 12.4657L48.9592 13.672H50.192V12.672ZM59.408 12.672H60.408V11.672H59.408V12.672ZM59.408 21.672V22.672H60.408V21.672H59.408ZM38.672 21.672L39.6498 21.8815L39.909 20.672H38.672V21.672ZM25.568 21.672V20.672H24.7596L24.5902 21.4625L25.568 21.672ZM23.192 32.76L22.2142 32.5505L21.955 33.76H23.192V32.76ZM36.296 32.76V33.76H37.1044L37.2738 32.9695L36.296 32.76ZM47.2702 21.4625L44.8942 32.5505L46.8498 32.9695L49.2258 21.8815L47.2702 21.4625ZM45.872 33.76H55.016V31.76H45.872V33.76ZM54.016 32.76V41.76H56.016V32.76H54.016ZM55.016 40.76H43.928V42.76H55.016V40.76ZM42.9497 41.5528L40.3577 53.7928L42.3143 54.2072L44.9063 41.9672L42.9497 41.5528ZM41.336 53H31.76V55H41.336V53ZM32.7383 54.2072L35.3303 41.9672L33.3737 41.5528L30.7817 53.7928L32.7383 54.2072ZM34.352 40.76H21.248V42.76H34.352V40.76ZM20.2697 41.5528L17.6777 53.7928L19.6343 54.2072L22.2263 41.9672L20.2697 41.5528ZM18.656 53H9.152V55H18.656V53ZM10.1303 54.2072L12.7223 41.9672L10.7657 41.5528L8.1737 53.7928L10.1303 54.2072ZM11.744 40.76H0.872V42.76H11.744V40.76ZM1.872 41.76V32.76H-0.128V41.76H1.872ZM0.872 33.76H13.688V31.76H0.872V33.76ZM14.6658 32.9695L17.0418 21.8815L15.0862 21.4625L12.7102 32.5505L14.6658 32.9695ZM16.064 20.672H5.264V22.672H16.064V20.672ZM6.264 21.672V12.672H4.264V21.672H6.264ZM5.264 13.672H18.008V11.672H5.264V13.672ZM18.9865 12.8783L21.5065 0.926308L19.5495 0.513691L17.0295 12.4657L18.9865 12.8783ZM20.528 1.72H30.032V-0.280001H20.528V1.72ZM29.0535 0.513691L26.5335 12.4657L28.4905 12.8783L31.0105 0.926308L29.0535 0.513691ZM27.512 13.672H40.616V11.672H27.512V13.672ZM41.5945 12.8783L44.1145 0.926308L42.1575 0.513691L39.6375 12.4657L41.5945 12.8783ZM43.136 1.72H52.712V-0.280001H43.136V1.72ZM51.7335 0.513691L49.2135 12.4657L51.1705 12.8783L53.6905 0.926308L51.7335 0.513691ZM50.192 13.672H59.408V11.672H50.192V13.672ZM58.408 12.672V21.672H60.408V12.672H58.408ZM59.408 20.672H48.248V22.672H59.408V20.672ZM38.672 20.672H25.568V22.672H38.672V20.672ZM24.5902 21.4625L22.2142 32.5505L24.1698 32.9695L26.5458 21.8815L24.5902 21.4625ZM23.192 33.76H36.296V31.76H23.192V33.76ZM37.2738 32.9695L39.6498 21.8815L37.6942 21.4625L35.3182 32.5505L37.2738 32.9695Z" fill="#111111"/>
</svg>
