<svg width="50" height="51" viewBox="0 0 50 51" fill="none" xmlns="http://www.w3.org/2000/svg">
<path d="M49.112 0.743999L50.0508 1.08833L50.5439 -0.256001H49.112V0.743999ZM30.68 51V52H31.3784L31.6189 51.3443L30.68 51ZM18.44 51L17.5012 51.3443L17.7416 52H18.44V51ZM0.00800002 0.743999V-0.256001H-1.4239L-0.930847 1.08833L0.00800002 0.743999ZM10.808 0.743999L11.753 0.417065L11.5202 -0.256001H10.808V0.743999ZM24.632 40.704L23.687 41.0309L24.6345 43.7698L25.5776 41.0294L24.632 40.704ZM38.384 0.743999V-0.256001H37.6706L37.4384 0.418587L38.384 0.743999ZM48.1732 0.399666L29.7412 50.6557L31.6189 51.3443L50.0508 1.08833L48.1732 0.399666ZM30.68 50H18.44V52H30.68V50ZM19.3788 50.6557L0.946847 0.399666L-0.930847 1.08833L17.5012 51.3443L19.3788 50.6557ZM0.00800002 1.744H10.808V-0.256001H0.00800002V1.744ZM9.86295 1.07093L23.687 41.0309L25.577 40.3771L11.753 0.417065L9.86295 1.07093ZM25.5776 41.0294L39.3296 1.06941L37.4384 0.418587L23.6864 40.3786L25.5776 41.0294ZM38.384 1.744H49.112V-0.256001H38.384V1.744Z" fill="#111111"/>
</svg>
