<svg width="72" height="52" viewBox="0 0 72 52" fill="none" xmlns="http://www.w3.org/2000/svg">
<path d="M71.144 0.743999L72.1071 1.01307L72.4617 -0.256001H71.144V0.743999ZM57.104 51V52H57.8629L58.0671 51.2691L57.104 51ZM45.224 51L44.257 51.2549L44.4534 52H45.224V51ZM35.792 15.216L36.759 14.9611L35.8136 11.3745L34.828 14.9503L35.792 15.216ZM25.928 51L25.9341 52L26.6909 51.9954L26.892 51.2657L25.928 51ZM14.12 51.072L13.1543 51.3317L13.3547 52.0767L14.1261 52.072L14.12 51.072ZM0.584 0.743999V-0.256001H-0.720493L-0.381682 1.00373L0.584 0.743999ZM11.384 0.743999L12.3592 0.52269L12.1825 -0.256001H11.384V0.743999ZM20.24 39.768L19.2648 39.9893L21.2074 40.0214L20.24 39.768ZM30.464 0.743999V-0.256001H29.6922L29.4966 0.490561L30.464 0.743999ZM41.696 0.743999L42.6665 0.502735L42.4778 -0.256001H41.696V0.743999ZM51.344 39.552L50.3735 39.7933L52.3185 39.7762L51.344 39.552ZM60.272 0.743999V-0.256001H59.4759L59.2975 0.5198L60.272 0.743999ZM70.1809 0.474932L56.1409 50.7309L58.0671 51.2691L72.1071 1.01307L70.1809 0.474932ZM57.104 50H45.224V52H57.104V50ZM46.191 50.7451L36.759 14.9611L34.825 15.4709L44.257 51.2549L46.191 50.7451ZM34.828 14.9503L24.964 50.7343L26.892 51.2657L36.756 15.4817L34.828 14.9503ZM25.9219 50L14.1139 50.072L14.1261 52.072L25.9341 52L25.9219 50ZM15.0857 50.8123L1.54968 0.484274L-0.381682 1.00373L13.1543 51.3317L15.0857 50.8123ZM0.584 1.744H11.384V-0.256001H0.584V1.744ZM10.4088 0.965309L19.2648 39.9893L21.2152 39.5467L12.3592 0.52269L10.4088 0.965309ZM21.2074 40.0214L31.4314 0.997438L29.4966 0.490561L19.2726 39.5146L21.2074 40.0214ZM30.464 1.744H41.696V-0.256001H30.464V1.744ZM40.7255 0.985264L50.3735 39.7933L52.3145 39.3107L42.6665 0.502735L40.7255 0.985264ZM52.3185 39.7762L61.2465 0.968199L59.2975 0.5198L50.3695 39.3278L52.3185 39.7762ZM60.272 1.744H71.144V-0.256001H60.272V1.744Z" fill="#111111"/>
</svg>
