<svg width="35" height="51" viewBox="0 0 35 51" fill="none" xmlns="http://www.w3.org/2000/svg">
<path d="M12.264 42.504L11.4314 41.9501L10.3977 43.504H12.264V42.504ZM34.872 42.504H35.872V41.504H34.872V42.504ZM34.872 51V52H35.872V51H34.872ZM0.6 51H-0.4V52H0.6V51ZM0.6 43.224L-0.234219 42.6726L-0.4 42.9234V43.224H0.6ZM23.064 9.24L23.8982 9.79143L24.9237 8.24H23.064V9.24ZM0.6 9.24H-0.4V10.24H0.6V9.24ZM0.6 0.743999V-0.256001H-0.4V0.743999H0.6ZM34.872 0.743999H35.872V-0.256001H34.872V0.743999ZM34.872 8.52L35.7046 9.07388L35.872 8.82224V8.52H34.872ZM12.264 43.504H34.872V41.504H12.264V43.504ZM33.872 42.504V51H35.872V42.504H33.872ZM34.872 50H0.6V52H34.872V50ZM1.6 51V43.224H-0.4V51H1.6ZM1.43422 43.7754L23.8982 9.79143L22.2298 8.68856L-0.234219 42.6726L1.43422 43.7754ZM23.064 8.24H0.6V10.24H23.064V8.24ZM1.6 9.24V0.743999H-0.4V9.24H1.6ZM0.6 1.744H34.872V-0.256001H0.6V1.744ZM33.872 0.743999V8.52H35.872V0.743999H33.872ZM34.0394 7.96611L11.4314 41.9501L13.0966 43.0579L35.7046 9.07388L34.0394 7.96611Z" fill="#111111"/>
</svg>
