<svg width="49" height="51" viewBox="0 0 49 51" fill="none" xmlns="http://www.w3.org/2000/svg">
<path d="M34.784 41.424L35.7291 41.0971L35.4963 40.424H34.784V41.424ZM14.768 41.424V40.424H14.0557L13.8229 41.0971L14.768 41.424ZM11.456 51V52H12.1683L12.4011 51.3269L11.456 51ZM0.872 51L-0.0691617 50.662L-0.549601 52H0.872V51ZM18.944 0.671995V-0.328005H18.2406L18.0028 0.33404L18.944 0.671995ZM30.68 0.671995L31.6212 0.33404L31.3834 -0.328005H30.68V0.671995ZM48.752 51V52H50.1736L49.6932 50.662L48.752 51ZM38.096 51L37.1509 51.3269L37.3837 52H38.096V51ZM32.048 33.36V34.36H33.452L32.9931 33.0331L32.048 33.36ZM24.776 12.336L25.7211 12.0091L24.776 9.27685L23.8309 12.0091L24.776 12.336ZM17.504 33.36L16.5589 33.0331L16.1 34.36H17.504V33.36ZM34.784 40.424H14.768V42.424H34.784V40.424ZM13.8229 41.0971L10.5109 50.6731L12.4011 51.3269L15.7131 41.7509L13.8229 41.0971ZM11.456 50H0.872V52H11.456V50ZM1.81316 51.338L19.8852 1.00995L18.0028 0.33404L-0.0691617 50.662L1.81316 51.338ZM18.944 1.672H30.68V-0.328005H18.944V1.672ZM29.7388 1.00995L47.8108 51.338L49.6932 50.662L31.6212 0.33404L29.7388 1.00995ZM48.752 50H38.096V52H48.752V50ZM39.0411 50.6731L35.7291 41.0971L33.8389 41.7509L37.1509 51.3269L39.0411 50.6731ZM32.9931 33.0331L25.7211 12.0091L23.8309 12.6629L31.1029 33.6869L32.9931 33.0331ZM23.8309 12.0091L16.5589 33.0331L18.4491 33.6869L25.7211 12.6629L23.8309 12.0091ZM17.504 34.36H32.048V32.36H17.504V34.36Z" fill="#111111"/>
</svg>
