<svg width="50" height="52" viewBox="0 0 50 52" fill="none" xmlns="http://www.w3.org/2000/svg">
<path d="M3.832 12.552L2.9644 12.0547L2.96244 12.0582L3.832 12.552ZM12.976 3.408L13.4663 4.27958L13.4698 4.27756L12.976 3.408ZM49.624 16.368V17.368H51.0073L50.5736 16.0545L49.624 16.368ZM38.032 16.368L37.1305 16.8007L37.4028 17.368H38.032V16.368ZM33.136 10.968L32.6334 11.8325L32.642 11.8375L33.136 10.968ZM18.088 11.256L18.5998 12.1151L18.6051 12.1119L18.088 11.256ZM12.76 17.016L11.8725 16.5552L11.869 16.562L11.8656 16.5688L12.76 17.016ZM12.76 34.584L11.8622 35.0244L11.8672 35.0347L11.8725 35.0448L12.76 34.584ZM18.088 40.416L17.5629 41.267L17.5734 41.2735L17.5841 41.2798L18.088 40.416ZM33.136 40.632L33.6386 41.4965L33.6447 41.4929L33.136 40.632ZM38.032 35.16V34.16H37.4028L37.1305 34.7273L38.032 35.16ZM49.624 35.16L50.5744 35.4709L51.0032 34.16H49.624V35.16ZM40.768 47.184L41.3293 48.0116L41.3313 48.0102L40.768 47.184ZM12.976 48.192L12.4775 49.0589L12.4839 49.0626L12.4904 49.0662L12.976 48.192ZM3.832 39.048L2.9624 39.5418L2.96706 39.5499L3.832 39.048ZM1.52 25.8C1.52 21.0104 2.58786 16.7678 4.70156 13.0458L2.96244 12.0582C0.660141 16.1122 -0.48 20.7016 -0.48 25.8H1.52ZM4.69959 13.0493C6.86868 9.26492 9.78833 6.34841 13.4663 4.27958L12.4857 2.53642C8.48368 4.78758 5.30733 7.96708 2.96441 12.0547L4.69959 13.0493ZM13.4698 4.27756C17.1963 2.16132 21.368 1.096 26.008 1.096V-0.904001C21.048 -0.904001 16.5317 0.238678 12.4822 2.53844L13.4698 4.27756ZM26.008 1.096C31.4437 1.096 36.163 2.48656 40.2047 5.24223L41.3313 3.58977C36.925 0.585442 31.8043 -0.904001 26.008 -0.904001V1.096ZM40.2047 5.24223C44.2379 7.99218 47.0598 11.7915 48.6744 16.6815L50.5736 16.0545C48.8282 10.7685 45.7461 6.59982 41.3313 3.58977L40.2047 5.24223ZM49.624 15.368H38.032V17.368H49.624V15.368ZM38.9335 15.9353C37.7022 13.37 35.9362 11.4089 33.63 10.0985L32.642 11.8375C34.5598 12.9271 36.0578 14.566 37.1305 16.8007L38.9335 15.9353ZM33.6386 10.1035C31.4008 8.80245 28.8224 8.168 25.936 8.168V10.168C28.5216 10.168 30.7432 10.7335 32.6334 11.8325L33.6386 10.1035ZM25.936 8.168C22.8423 8.168 20.0445 8.90562 17.5709 10.4001L18.6051 12.1119C20.7395 10.8224 23.1737 10.168 25.936 10.168V8.168ZM17.5762 10.3969C15.1489 11.8429 13.2479 13.9063 11.8725 16.5552L13.6475 17.4768C14.8641 15.1337 16.5151 13.3571 18.5998 12.1151L17.5762 10.3969ZM11.8656 16.5688C10.5354 19.2292 9.888 22.3161 9.888 25.8H11.888C11.888 22.5639 12.4886 19.7948 13.6544 17.4632L11.8656 16.5688ZM9.888 25.8C9.888 29.239 10.5365 32.322 11.8622 35.0244L13.6578 34.1436C12.4875 31.758 11.888 28.985 11.888 25.8H9.888ZM11.8725 35.0448C13.2465 37.6911 15.1436 39.7743 17.5629 41.267L18.6131 39.565C16.5204 38.2737 14.8655 36.4689 13.6475 34.1232L11.8725 35.0448ZM17.5841 41.2798C20.0557 42.7215 22.8487 43.432 25.936 43.432V41.432C23.1673 41.432 20.7283 40.7984 18.5919 39.5522L17.5841 41.2798ZM25.936 43.432C28.8224 43.432 31.4008 42.7975 33.6386 41.4965L32.6334 39.7675C30.7432 40.8665 28.5216 41.432 25.936 41.432V43.432ZM33.6447 41.4929C35.9417 40.1356 37.7035 38.1553 38.9335 35.5927L37.1305 34.7273C36.0565 36.9647 34.5543 38.6324 32.6273 39.7711L33.6447 41.4929ZM38.032 36.16H49.624V34.16H38.032V36.16ZM48.6736 34.8491C47.058 39.7881 44.2355 43.6095 40.2047 46.3578L41.3313 48.0102C45.7485 44.9985 48.83 40.8039 50.5744 35.4709L48.6736 34.8491ZM40.2067 46.3564C36.2162 49.0626 31.4973 50.432 26.008 50.432V52.432C31.8467 52.432 36.9678 50.9694 41.3293 48.0116L40.2067 46.3564ZM26.008 50.432C21.3641 50.432 17.1894 49.3888 13.4616 47.3178L12.4904 49.0662C16.5386 51.3152 21.0519 52.432 26.008 52.432V50.432ZM13.4745 47.3251C9.78887 45.2059 6.86628 42.2848 4.69694 38.5461L2.96706 39.5499C5.30972 43.5872 8.48313 46.7621 12.4775 49.0589L13.4745 47.3251ZM4.70156 38.5542C2.58786 34.8322 1.52 30.5896 1.52 25.8H-0.48C-0.48 30.8984 0.660141 35.4878 2.96244 39.5418L4.70156 38.5542Z" fill="#111111"/>
</svg>
