<svg width="31" height="51" viewBox="0 0 31 51" fill="none" xmlns="http://www.w3.org/2000/svg">
<path d="M11.048 8.88V7.88H10.048V8.88H11.048ZM11.048 21.48H10.048V22.48H11.048V21.48ZM27.968 21.48H28.968V20.48H27.968V21.48ZM27.968 29.472V30.472H28.968V29.472H27.968ZM11.048 29.472V28.472H10.048V29.472H11.048ZM11.048 42.792H10.048V43.792H11.048V42.792ZM30.128 42.792H31.128V41.792H30.128V42.792ZM30.128 51V52H31.128V51H30.128ZM0.968 51H-0.0319996V52H0.968V51ZM0.968 0.671995V-0.328005H-0.0319996V0.671995H0.968ZM30.128 0.671995H31.128V-0.328005H30.128V0.671995ZM30.128 8.88V9.88H31.128V8.88H30.128ZM10.048 8.88V21.48H12.048V8.88H10.048ZM11.048 22.48H27.968V20.48H11.048V22.48ZM26.968 21.48V29.472H28.968V21.48H26.968ZM27.968 28.472H11.048V30.472H27.968V28.472ZM10.048 29.472V42.792H12.048V29.472H10.048ZM11.048 43.792H30.128V41.792H11.048V43.792ZM29.128 42.792V51H31.128V42.792H29.128ZM30.128 50H0.968V52H30.128V50ZM1.968 51V0.671995H-0.0319996V51H1.968ZM0.968 1.672H30.128V-0.328005H0.968V1.672ZM29.128 0.671995V8.88H31.128V0.671995H29.128ZM30.128 7.88H11.048V9.88H30.128V7.88Z" fill="#111111"/>
</svg>
