<svg width="32" height="51" viewBox="0 0 32 51" fill="none" xmlns="http://www.w3.org/2000/svg">
<path d="M32 0.743999H33V-0.256001H32V0.743999ZM32 8.88V9.88H33V8.88H32ZM11.048 8.88V7.88H10.048V8.88H11.048ZM11.048 21.768H10.048V22.768H11.048V21.768ZM27.104 21.768H28.104V20.768H27.104V21.768ZM27.104 29.76V30.76H28.104V29.76H27.104ZM11.048 29.76V28.76H10.048V29.76H11.048ZM11.048 51V52H12.048V51H11.048ZM0.968 51H-0.0319996V52H0.968V51ZM0.968 0.743999V-0.256001H-0.0319996V0.743999H0.968ZM31 0.743999V8.88H33V0.743999H31ZM32 7.88H11.048V9.88H32V7.88ZM10.048 8.88V21.768H12.048V8.88H10.048ZM11.048 22.768H27.104V20.768H11.048V22.768ZM26.104 21.768V29.76H28.104V21.768H26.104ZM27.104 28.76H11.048V30.76H27.104V28.76ZM10.048 29.76V51H12.048V29.76H10.048ZM11.048 50H0.968V52H11.048V50ZM1.968 51V0.743999H-0.0319996V51H1.968ZM0.968 1.744H32V-0.256001H0.968V1.744Z" fill="#111111"/>
</svg>
