<svg width="51" height="52" viewBox="0 0 51 52" fill="none" xmlns="http://www.w3.org/2000/svg">
<path d="M37.96 15.864L37.0821 16.3428L37.3664 16.864H37.96V15.864ZM12.832 17.16L11.9445 16.6992L12.832 17.16ZM12.832 34.584L11.9445 35.0448L11.948 35.0515L11.9515 35.0581L12.832 34.584ZM18.376 40.344L17.8799 41.2122L18.376 40.344ZM36.016 39.336L36.6517 40.108L36.6606 40.1005L36.016 39.336ZM40.84 30.768L41.8186 30.974L42.0724 29.768H40.84V30.768ZM23.56 30.768H22.56V31.768H23.56V30.768ZM23.56 23.064V22.064H22.56V23.064H23.56ZM50.776 23.064H51.776V22.064H50.776V23.064ZM50.776 31.848L51.7581 32.0363L51.776 31.943V31.848H50.776ZM46.456 41.568L45.6529 40.9722L46.456 41.568ZM37.888 48.768L38.3451 49.6574L38.3497 49.655L37.888 48.768ZM13.048 48.192L12.5542 49.0616L12.5605 49.0652L12.5669 49.0687L13.048 48.192ZM3.832 39.048L2.9624 39.5418L2.96706 39.5499L3.832 39.048ZM3.832 12.552L2.9644 12.0547L2.96244 12.0582L3.832 12.552ZM13.048 3.408L13.5336 4.28216L13.5373 4.28014L13.048 3.408ZM40.912 4.272L40.3573 5.10407L40.364 5.10846L40.912 4.272ZM49.552 15.864V16.864H50.9184L50.5052 15.5616L49.552 15.864ZM38.8379 15.3851C37.5987 13.1133 35.8803 11.3633 33.6883 10.1629L32.7277 11.9171C34.5677 12.9247 36.0173 14.3907 37.0821 16.3428L38.8379 15.3851ZM33.6883 10.1629C31.5019 8.96557 28.9793 8.384 26.152 8.384V10.384C28.7007 10.384 30.8821 10.9064 32.7277 11.9171L33.6883 10.1629ZM26.152 8.384C23.0199 8.384 20.2022 9.093 17.7281 10.5362L18.7359 12.2638C20.8698 11.019 23.3321 10.384 26.152 10.384V8.384ZM17.7281 10.5362C15.2516 11.9808 13.3227 14.0448 11.9445 16.6992L13.7195 17.6208C14.9333 15.2831 16.6044 13.5072 18.7359 12.2638L17.7281 10.5362ZM11.9445 16.6992C10.5635 19.3588 9.888 22.4014 9.888 25.8H11.888C11.888 22.6706 12.5085 19.9532 13.7195 17.6208L11.9445 16.6992ZM9.888 25.8C9.888 29.2894 10.5615 32.3812 11.9445 35.0448L13.7195 34.1232C12.5105 31.7948 11.888 29.0306 11.888 25.8H9.888ZM11.9515 35.0581C13.3799 37.7108 15.3577 39.771 17.8799 41.2122L18.8721 39.4758C16.6903 38.229 14.9721 36.4492 13.7125 34.1099L11.9515 35.0581ZM17.8799 41.2122C20.4046 42.6549 23.3167 43.36 26.584 43.36V41.36C23.6113 41.36 21.0514 40.7211 18.8721 39.4758L17.8799 41.2122ZM26.584 43.36C30.6052 43.36 33.9891 42.3007 36.6517 40.1079L35.3803 38.5641C33.1469 40.4033 30.2428 41.36 26.584 41.36V43.36ZM36.6606 40.1005C39.3061 37.87 41.0125 34.8028 41.8186 30.974L39.8615 30.562C39.1315 34.0292 37.6219 36.674 35.3714 38.5715L36.6606 40.1005ZM40.84 29.768H23.56V31.768H40.84V29.768ZM24.56 30.768V23.064H22.56V30.768H24.56ZM23.56 24.064H50.776V22.064H23.56V24.064ZM49.776 23.064V31.848H51.776V23.064H49.776ZM49.7939 31.6597C49.1513 35.0103 47.7749 38.112 45.6529 40.9722L47.2591 42.1638C49.5531 39.072 51.0567 35.6937 51.7581 32.0363L49.7939 31.6597ZM45.6529 40.9722C43.5411 43.8185 40.805 46.1222 37.4263 47.881L38.3497 49.655C41.979 47.7658 44.9549 45.2695 47.2591 42.1638L45.6529 40.9722ZM37.4309 47.8786C34.1315 49.5741 30.4031 50.432 26.224 50.432V52.432C30.685 52.432 34.7325 51.5139 38.3451 49.6574L37.4309 47.8786ZM26.224 50.432C21.5304 50.432 17.306 49.388 13.5291 47.3153L12.5669 49.0687C16.662 51.316 21.2216 52.432 26.224 52.432V50.432ZM13.5418 47.3224C9.80879 45.2024 6.8645 42.2817 4.69694 38.5461L2.96706 39.5499C5.3115 43.5903 8.51121 46.7656 12.5542 49.0616L13.5418 47.3224ZM4.70156 38.5542C2.58786 34.8322 1.52 30.5896 1.52 25.8H-0.48C-0.48 30.8984 0.660141 35.4878 2.96244 39.5418L4.70156 38.5542ZM1.52 25.8C1.52 21.0104 2.58786 16.7678 4.70156 13.0458L2.96244 12.0582C0.660141 16.1122 -0.48 20.7016 -0.48 25.8H1.52ZM4.69959 13.0493C6.86689 9.26802 9.80824 6.35183 13.5336 4.28216L12.5624 2.53384C8.51176 4.78417 5.30911 7.96397 2.96441 12.0547L4.69959 13.0493ZM13.5373 4.28014C17.3143 2.16132 21.5121 1.096 26.152 1.096V-0.904001C21.1919 -0.904001 16.6537 0.23868 12.5587 2.53586L13.5373 4.28014ZM26.152 1.096C31.6448 1.096 36.3661 2.44326 40.3573 5.10405L41.4667 3.43995C37.1059 0.532736 31.9872 -0.904001 26.152 -0.904001V1.096ZM40.364 5.10846C44.3376 7.71184 47.0807 11.3821 48.5988 16.1664L50.5052 15.5616C48.8553 10.3619 45.8384 6.30416 41.46 3.43554L40.364 5.10846ZM49.552 14.864H37.96V16.864H49.552V14.864Z" fill="#111111"/>
</svg>
