<svg width="43" height="51" viewBox="0 0 43 51" fill="none" xmlns="http://www.w3.org/2000/svg">
<path d="M42.656 0.743999H43.656V-0.256001H42.656V0.743999ZM42.656 51V52H43.656V51H42.656ZM32.576 51H31.576V52H32.576V51ZM32.576 29.616H33.576V28.616H32.576V29.616ZM11.048 29.616V28.616H10.048V29.616H11.048ZM11.048 51V52H12.048V51H11.048ZM0.968 51H-0.0319996V52H0.968V51ZM0.968 0.743999V-0.256001H-0.0319996V0.743999H0.968ZM11.048 0.743999H12.048V-0.256001H11.048V0.743999ZM11.048 21.408H10.048V22.408H11.048V21.408ZM32.576 21.408V22.408H33.576V21.408H32.576ZM32.576 0.743999V-0.256001H31.576V0.743999H32.576ZM41.656 0.743999V51H43.656V0.743999H41.656ZM42.656 50H32.576V52H42.656V50ZM33.576 51V29.616H31.576V51H33.576ZM32.576 28.616H11.048V30.616H32.576V28.616ZM10.048 29.616V51H12.048V29.616H10.048ZM11.048 50H0.968V52H11.048V50ZM1.968 51V0.743999H-0.0319996V51H1.968ZM0.968 1.744H11.048V-0.256001H0.968V1.744ZM10.048 0.743999V21.408H12.048V0.743999H10.048ZM11.048 22.408H32.576V20.408H11.048V22.408ZM33.576 21.408V0.743999H31.576V21.408H33.576ZM32.576 1.744H42.656V-0.256001H32.576V1.744Z" fill="#111111"/>
</svg>
