<svg width="33" height="52" viewBox="0 0 33 52" fill="none" xmlns="http://www.w3.org/2000/svg">
<path d="M32.272 0.743999H33.272V-0.256001H32.272V0.743999ZM28.024 47.472L28.7125 48.1973L28.7188 48.1912L28.024 47.472ZM4.984 47.328L4.29492 48.0527L4.30084 48.0583L4.984 47.328ZM0.592 35.664V34.664H-0.408V35.664H0.592ZM10.672 35.664L11.6718 35.6418L11.65 34.664H10.672V35.664ZM12.184 40.704L11.4031 41.3287L11.4106 41.338L11.4183 41.3472L12.184 40.704ZM20.68 40.776L21.4482 41.4162L20.68 40.776ZM22.12 0.743999V-0.256001H21.12V0.743999H22.12ZM31.272 0.743999V36.024H33.272V0.743999H31.272ZM31.272 36.024C31.272 40.719 29.9208 44.249 27.3292 46.7528L28.7188 48.1912C31.7912 45.223 33.272 41.121 33.272 36.024H31.272ZM27.3356 46.7467C24.728 49.2216 21.2026 50.504 16.648 50.504V52.504C21.5974 52.504 25.656 51.0984 28.7124 48.1973L27.3356 46.7467ZM16.648 50.504C12.0536 50.504 8.42554 49.1781 5.66716 46.5977L4.30084 48.0583C7.49446 51.0459 11.6424 52.504 16.648 52.504V50.504ZM5.67306 46.6033C2.98859 44.0508 1.592 40.451 1.592 35.664H-0.408C-0.408 40.861 1.12341 45.0372 4.29494 48.0527L5.67306 46.6033ZM0.592 36.664H10.672V34.664H0.592V36.664ZM9.67225 35.6862C9.72319 37.9787 10.2601 39.9 11.4031 41.3287L12.9649 40.0793C12.1879 39.108 11.7168 37.6693 11.6718 35.6418L9.67225 35.6862ZM11.4183 41.3472C12.6536 42.8178 14.4 43.504 16.504 43.504V41.504C14.864 41.504 13.7304 40.9902 12.9497 40.0608L11.4183 41.3472ZM16.504 43.504C18.5543 43.504 20.2573 42.8453 21.4482 41.4162L19.9118 40.1358C19.1827 41.0107 18.1017 41.504 16.504 41.504V43.504ZM21.4482 41.4162C22.6027 40.0309 23.12 38.1931 23.12 36.024H21.12C21.12 37.8869 20.6773 39.2171 19.9118 40.1358L21.4482 41.4162ZM23.12 36.024V0.743999H21.12V36.024H23.12ZM22.12 1.744H32.272V-0.256001H22.12V1.744Z" fill="#111111"/>
</svg>
