<svg width="43" height="51" viewBox="0 0 43 51" fill="none" xmlns="http://www.w3.org/2000/svg">
<path d="M29.336 51L28.5615 51.6326L28.8616 52H29.336V51ZM11.048 28.608L11.8225 27.9754L10.048 25.8027V28.608H11.048ZM11.048 51V52H12.048V51H11.048ZM0.968 51H-0.0319996V52H0.968V51ZM0.968 0.743999V-0.256001H-0.0319996V0.743999H0.968ZM11.048 0.743999H12.048V-0.256001H11.048V0.743999ZM11.048 23.28H10.048V26.0993L11.8245 23.9101L11.048 23.28ZM29.336 0.743999V-0.256001H28.8597L28.5595 0.113873L29.336 0.743999ZM41.504 0.743999L42.2726 1.38375L43.6375 -0.256001H41.504V0.743999ZM20.768 25.656L19.9994 25.0163L19.4642 25.6593L20.0026 26.2996L20.768 25.656ZM42.08 51V52H44.2275L42.8454 50.3564L42.08 51ZM30.1105 50.3674L11.8225 27.9754L10.2735 29.2406L28.5615 51.6326L30.1105 50.3674ZM10.048 28.608V51H12.048V28.608H10.048ZM11.048 50H0.968V52H11.048V50ZM1.968 51V0.743999H-0.0319996V51H1.968ZM0.968 1.744H11.048V-0.256001H0.968V1.744ZM10.048 0.743999V23.28H12.048V0.743999H10.048ZM11.8245 23.9101L30.1125 1.37412L28.5595 0.113873L10.2715 22.6499L11.8245 23.9101ZM29.336 1.744H41.504V-0.256001H29.336V1.744ZM40.7354 0.104252L19.9994 25.0163L21.5366 26.2957L42.2726 1.38375L40.7354 0.104252ZM20.0026 26.2996L41.3146 51.6436L42.8454 50.3564L21.5334 25.0124L20.0026 26.2996ZM42.08 50H29.336V52H42.08V50Z" fill="#111111"/>
</svg>
