<svg width="44" height="51" viewBox="0 0 44 51" fill="none" xmlns="http://www.w3.org/2000/svg">
<path d="M43.952 51V52H44.952V51H43.952ZM33.872 51L33.0381 51.5519L33.3346 52H33.872V51ZM11.048 16.512L11.8819 15.9601L10.048 13.189V16.512H11.048ZM11.048 51V52H12.048V51H11.048ZM0.968 51H-0.0319996V52H0.968V51ZM0.968 0.671995V-0.328005H-0.0319996V0.671995H0.968ZM11.048 0.671995L11.8825 0.120911L11.586 -0.328005H11.048V0.671995ZM33.872 35.232L33.0376 35.7831L34.872 38.5608V35.232H33.872ZM33.872 0.671995V-0.328005H32.872V0.671995H33.872ZM43.952 0.671995H44.952V-0.328005H43.952V0.671995ZM43.952 50H33.872V52H43.952V50ZM34.7059 50.4481L11.8819 15.9601L10.2141 17.0639L33.0381 51.5519L34.7059 50.4481ZM10.048 16.512V51H12.048V16.512H10.048ZM11.048 50H0.968V52H11.048V50ZM1.968 51V0.671995H-0.0319996V51H1.968ZM0.968 1.672H11.048V-0.328005H0.968V1.672ZM10.2136 1.22308L33.0376 35.7831L34.7065 34.6809L11.8825 0.120911L10.2136 1.22308ZM34.872 35.232V0.671995H32.872V35.232H34.872ZM33.872 1.672H43.952V-0.328005H33.872V1.672ZM42.952 0.671995V51H44.952V0.671995H42.952Z" fill="#111111"/>
</svg>
