<svg width="38" height="51" viewBox="0 0 38 51" fill="none" xmlns="http://www.w3.org/2000/svg">
<path d="M35.672 23.856L34.7962 23.3734L34.7924 23.3803L34.7887 23.3873L35.672 23.856ZM29.696 29.544L29.2302 28.6591L29.2238 28.6625L29.696 29.544ZM11.048 31.704V30.704H10.048V31.704H11.048ZM11.048 51V52H12.048V51H11.048ZM0.968 51H-0.0319996V52H0.968V51ZM0.968 0.743999V-0.256001H-0.0319996V0.743999H0.968ZM35.528 8.304L34.6598 8.80014L34.6635 8.80676L34.6674 8.81332L35.528 8.304ZM25.232 21.696L25.9125 22.4288L25.9194 22.4224L25.9261 22.4158L25.232 21.696ZM11.048 8.952V7.952H10.048V8.952H11.048ZM11.048 23.568H10.048V24.568H11.048V23.568ZM36.616 16.296C36.616 18.8154 36.0106 21.1694 34.7962 23.3734L36.5478 24.3386C37.9254 21.8386 38.616 19.1526 38.616 16.296H36.616ZM34.7887 23.3873C33.6493 25.5344 31.8179 27.2972 29.2303 28.6591L30.1617 30.4289C33.0462 28.9108 35.1987 26.8816 36.5553 24.3247L34.7887 23.3873ZM29.2238 28.6625C26.7233 30.0021 23.4909 30.704 19.472 30.704V32.704C23.7091 32.704 27.2927 31.9659 30.1682 30.4255L29.2238 28.6625ZM19.472 30.704H11.048V32.704H19.472V30.704ZM10.048 31.704V51H12.048V31.704H10.048ZM11.048 50H0.968V52H11.048V50ZM1.968 51V0.743999H-0.0319996V51H1.968ZM0.968 1.744H19.472V-0.256001H0.968V1.744ZM19.472 1.744C23.248 1.744 26.4008 2.3969 28.9671 3.65755L29.8489 1.86244C26.9432 0.435102 23.472 -0.256001 19.472 -0.256001V1.744ZM28.9671 3.65755C31.547 4.92489 33.427 6.64287 34.6598 8.80014L36.3962 7.80786C34.941 5.26113 32.741 3.28311 29.8489 1.86244L28.9671 3.65755ZM34.6674 8.81332C35.9601 10.9975 36.616 13.4828 36.616 16.296H38.616C38.616 13.1572 37.8799 10.3145 36.3886 7.79467L34.6674 8.81332ZM19.04 24.568C21.9492 24.568 24.3077 23.919 25.9125 22.4288L24.5515 20.9632C23.4684 21.969 21.6988 22.568 19.04 22.568V24.568ZM25.9261 22.4158C27.5095 20.889 28.248 18.8037 28.248 16.296H26.248C26.248 18.3963 25.6425 19.911 24.5379 20.9762L25.9261 22.4158ZM28.248 16.296C28.248 13.6633 27.5073 11.5141 25.8628 10.0428C24.2395 8.59031 21.9044 7.952 19.04 7.952V9.952C21.6476 9.952 23.4165 10.5377 24.5292 11.5332C25.6207 12.5098 26.248 14.0327 26.248 16.296H28.248ZM19.04 7.952H11.048V9.952H19.04V7.952ZM10.048 8.952V23.568H12.048V8.952H10.048ZM11.048 24.568H19.04V22.568H11.048V24.568Z" fill="#111111"/>
</svg>
