<svg width="53" height="60" viewBox="0 0 53 60" fill="none" xmlns="http://www.w3.org/2000/svg">
<path d="M40.408 59.856L39.6403 60.4968L39.9401 60.856H40.408V59.856ZM32.776 50.712L33.5437 50.0712L33.1419 49.5898L32.5335 49.7419L32.776 50.712ZM13.336 48.192L13.8253 47.3199L13.336 48.192ZM3.976 39.048L3.11297 39.5532L3.11571 39.5578L3.976 39.048ZM3.976 12.552L4.8363 13.0618L4.83902 13.0572L3.976 12.552ZM13.336 3.33599L12.8468 2.46385L13.336 3.33599ZM39.256 3.33599L38.7622 4.20557L38.7668 4.20814L39.256 3.33599ZM48.544 12.552L47.6764 13.0493L47.68 13.0556L47.6837 13.0618L48.544 12.552ZM49.12 37.968L48.2326 37.507L48.2303 37.5114L49.12 37.968ZM41.416 46.896L40.8393 46.079L39.9253 46.7242L40.6686 47.5604L41.416 46.896ZM52.936 59.856V60.856H55.1628L53.6834 59.1916L52.936 59.856ZM12.832 34.584L13.723 34.1301L12.832 34.584ZM18.232 40.488L17.7149 41.3439L17.7253 41.3502L17.7359 41.3562L18.232 40.488ZM34.288 40.488L34.7919 41.3518L34.7985 41.3479L34.8051 41.3439L34.288 40.488ZM39.688 34.584L40.579 35.0379L39.688 34.584ZM39.688 16.944L38.7969 17.3979L38.8005 17.4048L39.688 16.944ZM34.288 11.112L33.7841 11.9758L34.288 11.112ZM18.232 11.112L17.7358 10.2437L17.7281 10.2482L18.232 11.112ZM12.832 16.944L13.7195 17.4048L13.723 17.3979L12.832 16.944ZM41.1757 59.2152L33.5437 50.0712L32.0083 51.3528L39.6403 60.4968L41.1757 59.2152ZM32.5335 49.7419C30.5019 50.2497 28.4234 50.504 26.296 50.504V52.504C28.5846 52.504 30.8261 52.2303 33.0185 51.6821L32.5335 49.7419ZM26.296 50.504C21.7558 50.504 17.6054 49.4404 13.8253 47.3199L12.8468 49.0641C16.9386 51.3596 21.4282 52.504 26.296 52.504V50.504ZM13.8253 47.3199C10.0429 45.198 7.05076 42.2751 4.83629 38.5382L3.11571 39.5578C5.50924 43.5969 8.75713 46.77 12.8468 49.0641L13.8253 47.3199ZM4.83901 38.5428C2.63219 34.7728 1.52 30.5098 1.52 25.728H-0.48C-0.48 30.8342 0.711805 35.4512 3.11299 39.5532L4.83901 38.5428ZM1.52 25.728C1.52 20.9959 2.63132 16.7827 4.83629 13.0618L3.11571 12.0422C0.712685 16.0973 -0.48 20.6681 -0.48 25.728H1.52ZM4.83902 13.0572C7.05424 9.27283 10.0459 6.32824 13.8253 4.20814L12.8468 2.46385C8.75406 4.75975 5.50576 7.95917 3.11299 12.0468L4.83902 13.0572ZM13.8253 4.20814C17.6054 2.08759 21.7558 1.024 26.296 1.024V-0.976C21.4282 -0.976 16.9386 0.168411 12.8468 2.46385L13.8253 4.20814ZM26.296 1.024C30.8861 1.024 35.0342 2.08845 38.7622 4.20556L39.7498 2.46643C35.7018 0.167551 31.2099 -0.976 26.296 -0.976V1.024ZM38.7668 4.20814C42.5442 6.32719 45.5098 9.26926 47.6764 13.0493L49.4116 12.0547C47.0662 7.96273 43.8398 4.7608 39.7453 2.46385L38.7668 4.20814ZM47.6837 13.0618C49.8887 16.7827 51 20.9959 51 25.728H53C53 20.6681 51.8073 16.0973 49.4043 12.0422L47.6837 13.0618ZM51 25.728C51 30.0433 50.0734 33.9635 48.2326 37.507L50.0074 38.429C52.0066 34.5805 53 30.3407 53 25.728H51ZM48.2303 37.5114C46.43 41.0197 43.9679 43.8707 40.8393 46.079L41.9927 47.713C45.3921 45.3134 48.066 42.2123 50.0097 38.4246L48.2303 37.5114ZM40.6686 47.5604L52.1886 60.5204L53.6834 59.1916L42.1634 46.2316L40.6686 47.5604ZM52.936 58.856H40.408V60.856H52.936V58.856ZM9.888 25.728C9.888 29.218 10.5617 32.3305 11.941 35.0379L13.723 34.1301C12.5103 31.7495 11.888 28.958 11.888 25.728H9.888ZM11.941 35.0379C13.3163 37.7377 15.2414 39.8495 17.7149 41.3439L18.7491 39.6321C16.6146 38.3425 14.9397 36.5183 13.723 34.1301L11.941 35.0379ZM17.7359 41.3562C20.256 42.7963 23.1187 43.504 26.296 43.504V41.504C23.4253 41.504 20.912 40.8677 18.7281 39.6198L17.7359 41.3562ZM26.296 43.504C29.4729 43.504 32.3154 42.7964 34.7919 41.3518L33.7841 39.6242C31.6526 40.8676 29.1671 41.504 26.296 41.504V43.504ZM34.8051 41.3439C37.2786 39.8495 39.2037 37.7377 40.579 35.0379L38.797 34.1301C37.5803 36.5183 35.9054 38.3425 33.7709 39.6321L34.8051 41.3439ZM40.579 35.0379C41.9583 32.3305 42.632 29.218 42.632 25.728H40.632C40.632 28.958 40.0097 31.7495 38.797 34.1301L40.579 35.0379ZM42.632 25.728C42.632 22.2386 41.9585 19.1467 40.5755 16.4832L38.8005 17.4048C40.0095 19.7332 40.632 22.4974 40.632 25.728H42.632ZM40.579 16.4901C39.2024 13.7877 37.2734 11.6958 34.7919 10.2482L33.7841 11.9758C35.9107 13.2162 37.5816 15.0123 38.797 17.3979L40.579 16.4901ZM34.7919 10.2482C32.3154 8.80359 29.4729 8.096 26.296 8.096V10.096C29.1671 10.096 31.6526 10.7324 33.7841 11.9758L34.7919 10.2482ZM26.296 8.096C23.1187 8.096 20.256 8.8037 17.7359 10.2438L18.7281 11.9802C20.912 10.7323 23.4253 10.096 26.296 10.096V8.096ZM17.7281 10.2482C15.2466 11.6958 13.3176 13.7877 11.941 16.4901L13.723 17.3979C14.9384 15.0123 16.6094 13.2162 18.7359 11.9758L17.7281 10.2482ZM11.9445 16.4832C10.5615 19.1467 9.888 22.2386 9.888 25.728H11.888C11.888 22.4974 12.5105 19.7332 13.7195 17.4048L11.9445 16.4832Z" fill="#111111"/>
</svg>
