<svg width="39" height="51" viewBox="0 0 39 51" fill="none" xmlns="http://www.w3.org/2000/svg">
<path d="M26.888 51L26.0178 51.4927L26.305 52H26.888V51ZM15.8 31.416L16.6702 30.9233L16.383 30.416H15.8V31.416ZM11.048 31.416V30.416H10.048V31.416H11.048ZM11.048 51V52H12.048V51H11.048ZM0.968 51H-0.0319996V52H0.968V51ZM0.968 0.743999V-0.256001H-0.0319996V0.743999H0.968ZM29.768 2.832L29.3145 3.72336L29.3271 3.72955L29.768 2.832ZM35.888 8.376L35.0198 8.87214L35.0258 8.8827L35.0321 8.89312L35.888 8.376ZM35.096 25.152L35.9048 25.7402L35.9097 25.7332L35.096 25.152ZM26.528 30.624L26.2711 29.6576L24.9965 29.9964L25.6668 31.1322L26.528 30.624ZM38.552 51V52H40.3032L39.4132 50.4918L38.552 51ZM11.048 23.856H10.048V24.856H11.048V23.856ZM25.592 21.912L26.2861 22.6318L26.2927 22.6255L26.2991 22.6191L25.592 21.912ZM25.592 11.04L24.8979 11.7598L24.9046 11.7664L24.9116 11.7728L25.592 11.04ZM11.048 9.096V8.096H10.048V9.096H11.048ZM27.7582 50.5073L16.6702 30.9233L14.9298 31.9087L26.0178 51.4927L27.7582 50.5073ZM15.8 30.416H11.048V32.416H15.8V30.416ZM10.048 31.416V51H12.048V31.416H10.048ZM11.048 50H0.968V52H11.048V50ZM1.968 51V0.743999H-0.0319996V51H1.968ZM0.968 1.744H19.832V-0.256001H0.968V1.744ZM19.832 1.744C23.6033 1.744 26.7514 2.41924 29.3145 3.72328L30.2215 1.94072C27.3126 0.460758 23.8367 -0.256001 19.832 -0.256001V1.744ZM29.3271 3.72955C31.907 4.99689 33.787 6.71487 35.0198 8.87214L36.7562 7.87986C35.301 5.33313 33.101 3.35511 30.2089 1.93444L29.3271 3.72955ZM35.0321 8.89312C36.3232 11.0301 36.976 13.441 36.976 16.152H38.976C38.976 13.103 38.2368 10.3299 36.7439 7.85888L35.0321 8.89312ZM36.976 16.152C36.976 19.2562 36.0808 22.0528 34.2823 24.5708L35.9097 25.7332C37.9512 22.8752 38.976 19.6718 38.976 16.152H36.976ZM34.2873 24.5638C32.5282 26.9826 29.8877 28.6962 26.2711 29.6576L26.7849 31.5904C30.7523 30.5358 33.8238 28.6014 35.9047 25.7402L34.2873 24.5638ZM25.6668 31.1322L37.6908 51.5082L39.4132 50.4918L27.3892 30.1158L25.6668 31.1322ZM38.552 50H26.888V52H38.552V50ZM11.048 24.856H19.472V22.856H11.048V24.856ZM19.472 24.856C22.3474 24.856 24.6845 24.1762 26.2861 22.6318L24.8979 21.1922C23.8115 22.2398 22.0686 22.856 19.472 22.856V24.856ZM26.2991 22.6191C27.8731 21.0451 28.608 18.9185 28.608 16.368H26.608C26.608 18.5215 25.9989 20.0909 24.8849 21.2049L26.2991 22.6191ZM28.608 16.368C28.608 13.862 27.8699 11.7906 26.2725 10.3072L24.9116 11.7728C26.0021 12.7854 26.608 14.266 26.608 16.368H28.608ZM26.2861 10.3202C24.6845 8.77575 22.3474 8.096 19.472 8.096V10.096C22.0686 10.096 23.8115 10.7122 24.8979 11.7598L26.2861 10.3202ZM19.472 8.096H11.048V10.096H19.472V8.096ZM10.048 9.096V23.856H12.048V9.096H10.048Z" fill="#111111"/>
</svg>
