<svg width="42" height="52" viewBox="0 0 42 52" fill="none" xmlns="http://www.w3.org/2000/svg">
<path d="M10.904 0.743999H11.904V-0.256001H10.904V0.743999ZM13.568 39.696L12.8515 40.3937L12.8609 40.4031L13.568 39.696ZM28.616 39.696L29.3232 40.4032L29.3325 40.3936L28.616 39.696ZM31.28 0.743999V-0.256001H30.28V0.743999H31.28ZM41.432 0.743999H42.432V-0.256001H41.432V0.743999ZM38.624 42.648L37.7775 42.1155L37.7752 42.1193L38.624 42.648ZM31.208 49.272L30.7775 48.3694L30.7721 48.372L31.208 49.272ZM10.688 49.272L10.2465 50.1693L10.2521 50.172L10.688 49.272ZM3.488 42.648L2.62927 43.1605L2.63299 43.1666L3.488 42.648ZM0.824 0.743999V-0.256001H-0.176V0.743999H0.824ZM9.904 0.743999V31.848H11.904V0.743999H9.904ZM9.904 31.848C9.904 35.4259 10.839 38.3267 12.8515 40.3936L14.2845 38.9984C12.745 37.4173 11.904 35.0861 11.904 31.848H9.904ZM12.8609 40.4031C14.8732 42.4154 17.6527 43.36 21.056 43.36V41.36C18.0273 41.36 15.8148 40.5286 14.2751 38.9889L12.8609 40.4031ZM21.056 43.36C24.5024 43.36 27.3082 42.418 29.3231 40.4031L27.9089 38.9889C26.3718 40.526 24.1376 41.36 21.056 41.36V43.36ZM29.3325 40.3936C31.345 38.3267 32.28 35.4259 32.28 31.848H30.28C30.28 35.0861 29.439 37.4173 27.8995 38.9984L29.3325 40.3936ZM32.28 31.848V0.743999H30.28V31.848H32.28ZM31.28 1.744H41.432V-0.256001H31.28V1.744ZM40.432 0.743999V31.776H42.432V0.743999H40.432ZM40.432 31.776C40.432 35.9003 39.5295 39.3303 37.7775 42.1155L39.4705 43.1805C41.4625 40.0137 42.432 36.1957 42.432 31.776H40.432ZM37.7752 42.1193C36.0523 44.8849 33.7256 46.9634 30.7775 48.3694L31.6385 50.1746C34.9304 48.6046 37.5477 46.2671 39.4728 43.1768L37.7752 42.1193ZM30.7721 48.372C27.8504 49.7872 24.5699 50.504 20.912 50.504V52.504C24.8381 52.504 28.4216 51.7328 31.6439 50.172L30.7721 48.372ZM20.912 50.504C17.3042 50.504 14.0473 49.788 11.1239 48.372L10.2521 50.172C13.4727 51.732 17.0318 52.504 20.912 52.504V50.504ZM11.1295 48.3747C8.27952 46.9724 6.02179 44.8971 4.34301 42.1294L2.63299 43.1666C4.50621 46.2549 7.04848 48.5956 10.2465 50.1693L11.1295 48.3747ZM4.34671 42.1355C2.68247 39.3468 1.824 35.9094 1.824 31.776H-0.176C-0.176 36.1866 0.741526 39.9972 2.62929 43.1605L4.34671 42.1355ZM1.824 31.776V0.743999H-0.176V31.776H1.824ZM0.824 1.744H10.904V-0.256001H0.824V1.744Z" fill="#111111"/>
</svg>
