<svg width="50" height="50" viewBox="0 0 50 50" fill="none" xmlns="http://www.w3.org/2000/svg">
<g clip-path="url(#clip0_1_5343)">
<path d="M24.9996 50C38.8067 50 49.9996 38.8071 49.9996 25C49.9996 11.1929 38.8067 0 24.9996 0C11.1924 0 -0.000488281 11.1929 -0.000488281 25C-0.000488281 38.8071 11.1924 50 24.9996 50Z" fill="#F3BA2F"/>
<path d="M18.9308 22.5063L24.9996 16.4375L31.0715 22.5094L34.6027 18.9781L24.9996 9.375L15.3995 18.975L18.9308 22.5063ZM9.37451 25L12.9058 21.4688L16.437 25L12.9058 28.5312L9.37451 25ZM18.9308 27.4937L24.9996 33.5625L31.0715 27.4906L34.6027 31.0204L24.9996 40.625L15.3995 31.025L15.3948 31.0204L18.9308 27.4937ZM33.5621 25L37.0933 21.4688L40.6246 25L37.0933 28.5312L33.5621 25ZM28.5808 24.9969H28.584V25L24.9996 28.5844L21.4198 25.0063L21.4136 25L21.4198 24.9952L22.0465 24.3671L22.3511 24.0625L24.9996 21.4156L28.5823 24.9983L28.5808 24.9969Z" fill="white"/>
</g>
<defs>
<clipPath id="clip0_1_5343">
<rect width="50" height="50" fill="white"/>
</clipPath>
</defs>
</svg>
