<svg width="24" height="24" viewBox="0 0 24 24" fill="none" xmlns="http://www.w3.org/2000/svg">
<path fill-rule="evenodd" clip-rule="evenodd" d="M16.246 15.2597L21.0032 20.2074C21.4057 20.626 21.3924 21.2934 20.9741 21.6959C20.7773 21.8853 20.518 21.9895 20.2446 21.9895C19.9559 21.9895 19.6864 21.8748 19.486 21.6667L14.6927 16.6815C13.3317 17.638 11.7397 18.1418 10.0692 18.1418C5.61937 18.1418 1.99902 14.5215 1.99902 10.0716C1.99902 5.62182 5.61937 2.00146 10.0692 2.00146C14.519 2.00146 18.1394 5.62182 18.1394 10.0716C18.1394 11.9762 17.4692 13.8057 16.246 15.2597ZM16.0335 10.0711C16.0335 6.78194 13.3577 4.10615 10.0686 4.10615C6.7795 4.10615 4.10371 6.78194 4.10371 10.0711C4.10371 13.3602 6.7795 16.036 10.0686 16.036C13.3577 16.036 16.0335 13.3602 16.0335 10.0711Z" fill="#1A64F0"/>
</svg>
