<svg width="50" height="50" viewBox="0 0 50 50" fill="none" xmlns="http://www.w3.org/2000/svg">
<path d="M25 50C38.8069 50 50 38.8069 50 25C50 11.1931 38.8069 0 25 0C11.1931 0 0 11.1931 0 25C0 38.8069 11.1931 50 25 50Z" fill="#24A980"/>
<path d="M28.1035 27.4919L25.0489 27.5725C23.4408 27.5725 22.3558 27.5321 21.9535 27.4919C15.8845 27.2506 11.3023 26.1654 11.3023 24.9196C11.3023 23.6333 15.8443 22.5885 21.9535 22.3069V26.4465C22.3558 26.4869 23.481 26.5271 25.0885 26.5271C26.9777 26.5271 27.9425 26.4465 28.1035 26.4465V22.3069C34.2127 22.5885 38.7545 23.6333 38.7545 24.9196C38.7545 26.1654 34.2127 27.2506 28.1035 27.4919ZM28.1035 21.865V18.1672H36.6241V12.5H13.473V18.1672H21.9937V21.865C15.0805 22.1863 9.896 23.5529 9.896 25.2013C9.896 26.8494 15.0805 28.2154 21.9937 28.5373V40.4346H28.1437V28.5369C35.0564 28.2154 40.2414 26.8488 40.2414 25.2006C40.2012 23.5529 35.0166 22.1862 28.1035 21.8644V21.865Z" fill="#FFFDFA"/>
</svg>
