<svg width="50" height="50" viewBox="0 0 50 50" fill="none" xmlns="http://www.w3.org/2000/svg">
<path d="M24.9998 48.0767C37.7446 48.0767 48.0767 37.7446 48.0767 24.9998C48.0767 12.2549 37.7446 1.92285 24.9998 1.92285C12.2549 1.92285 1.92285 12.2549 1.92285 24.9998C1.92285 37.7446 12.2549 48.0767 24.9998 48.0767Z" fill="url(#paint0_linear_1_5330)"/>
<path d="M22.5183 23.1904C22.6521 23.0125 22.7496 22.8102 22.8054 22.5946C22.854 22.3863 22.8664 22.1711 22.8414 21.9586L22.8233 21.8021L22.7412 21.7007L21.635 20.4359L21.2314 19.9819L19.714 18.289L16.6737 14.9119L10.5767 8.17285L19.1634 18.7612L20.9156 20.9432L21.7246 21.9632C21.7921 22.0509 21.8275 22.1588 21.825 22.2694C21.8217 22.3798 21.7814 22.4863 21.7098 22.5702C21.6419 22.6484 21.5577 22.7109 21.4631 22.7532C21.3687 22.7954 21.2662 22.8161 21.1627 22.8138C21.0594 22.8117 20.9577 22.7867 20.8652 22.7405C20.7725 22.6944 20.6912 22.6286 20.6265 22.5475L14.9708 15.5363L18.9088 22.6504C18.9772 22.7729 19.0025 22.9148 18.9806 23.0534C18.9586 23.1921 18.8907 23.3194 18.7878 23.4148C18.5912 23.5948 18.427 23.8073 18.3024 24.0429C18.1199 24.4027 17.9956 24.789 17.9342 25.1877L17.8424 25.863L17.8011 26.1988C17.6302 27.3919 16.8573 28.5961 16.1204 29.5155L15.8546 29.8413C15.3034 30.5098 14.7316 31.2048 14.5783 32.0736C14.409 33.0344 14.6005 34.0482 15.0133 34.9252C15.1692 35.2609 15.3692 35.5632 15.5703 35.8679L15.5708 35.8684L15.5745 35.8736L15.7782 36.1861L15.7814 36.1919C15.8403 36.2923 16.3682 37.1967 16.1284 37.2332C18.5984 36.8429 20.356 35.7255 20.5681 34.6609C20.8275 33.3469 20.0398 32.8254 19.3258 32.3521C19.07 32.1829 18.8244 32.0202 18.6387 31.8296C18.2483 31.4311 17.9544 31.045 17.8918 30.4688C17.8122 29.7209 18.0897 29.1623 18.3968 28.5442L18.3974 28.5436L18.3979 28.5427L18.5703 28.1894C18.8506 27.6125 19.0339 26.9934 19.113 26.3569L19.1438 25.9171L19.1873 25.3761C19.2006 25.2613 19.2212 25.1477 19.2489 25.0355C19.3089 24.8102 19.4392 24.61 19.6212 24.464C19.8031 24.3182 20.026 24.2355 20.2583 24.2265L20.2706 24.2254L20.4998 24.2042C20.8665 24.1642 21.2252 24.0694 21.5639 23.923C21.9408 23.7665 22.2696 23.5136 22.5177 23.1898L22.5183 23.1904ZM37.3481 24.9819L37.3421 24.9729C37.25 24.8011 37.145 24.6365 37.0281 24.4805C36.6838 24.0121 36.1904 23.6769 35.6296 23.53C35.2567 23.4332 34.8754 23.3729 34.4902 23.35L33.6371 23.3013L33.6233 23.3007L33.3019 23.2842C32.4965 23.2398 31.6721 23.1569 30.8669 22.9261L30.27 22.73L29.9762 22.6115L29.6742 22.4688C29.2954 22.2604 28.9446 22.0046 28.6302 21.7077C28.0594 21.174 27.6006 20.574 27.1502 19.9846V19.984L27.035 19.8332C26.575 19.1939 26.0812 18.5796 25.5554 17.993C25.0375 17.4187 24.4246 16.9378 23.7439 16.5713C23.0392 16.2148 22.2737 15.9951 21.4881 15.924C22.3029 15.8349 23.1279 15.9363 23.8977 16.2195C24.6748 16.5224 25.3846 16.9755 25.9883 17.5532C26.3825 17.9246 26.7523 18.3203 27.0954 18.7394C29.6519 18.2339 31.7258 18.6827 33.3189 19.5542L33.3548 19.5723C33.8623 19.8488 34.3377 20.1804 34.7725 20.5611C34.8412 20.6204 34.9081 20.6813 34.9735 20.7442C35.3129 21.0577 35.6289 21.3955 35.9189 21.7554L35.9406 21.7846C36.8823 22.9819 37.3469 24.2265 37.3481 24.9807V24.9819ZM23.5442 26.6407C24.2275 26.575 25.6844 26.2179 25.0329 25.0663C24.8929 24.8323 24.6896 24.6423 24.4471 24.5188C24.2048 24.3952 23.9321 24.3427 23.661 24.368C23.3858 24.398 23.1265 24.5119 22.9183 24.6944C22.7104 24.8769 22.5629 25.1198 22.4965 25.3894C22.2944 26.1427 22.5087 26.7421 23.5442 26.6407ZM33.9931 28.1952H33.9937C36.2637 29.1209 38.4425 30.009 38.3517 32.1713C39.3587 30.8567 39.7915 27.2854 36.8281 25.4471C35.5725 24.6679 34.1352 24.4615 32.7967 24.27H32.7964C31.3204 24.0582 29.9635 23.864 29.0987 22.9367C28.6954 26.0355 31.4037 27.14 33.9931 28.1952Z" fill="#FF007A"/>
<path d="M34.8547 20.6322L34.9777 20.7441L34.836 20.6168L34.7762 20.5612L34.8547 20.6322ZM21.6181 16.6763C22.27 16.7712 22.9352 17.0322 23.3645 17.5298C23.7937 18.0275 23.9512 18.6747 24.0749 19.2901L24.1241 19.5299C24.2052 19.9287 24.2864 20.3293 24.4424 20.706C24.5014 20.8497 24.5783 20.9818 24.6556 21.1139V21.1145L24.7766 21.3278C24.8143 21.3993 24.8652 21.4678 24.9162 21.5362L24.9168 21.5374C24.9889 21.6349 25.0622 21.7329 25.0997 21.8412C25.1108 21.8679 25.115 21.897 25.112 21.9256C25.1087 21.9543 25.0975 21.9818 25.0806 22.0053C24.8531 22.2583 24.2387 21.977 24.0074 21.8635C23.6074 21.6641 23.2489 21.3899 22.9518 21.0545C22.0224 20.0179 21.5427 18.5267 21.572 17.1686C21.5783 17.0038 21.5937 16.8394 21.6181 16.6763ZM34 33.367C32.9337 31.8014 31.861 30.2264 32.5258 28.3622C32.9904 28.6837 33.5316 28.976 34.0891 29.2779C35.5268 30.0556 37.0752 30.8928 37.7177 32.4381C38.7374 34.881 37.5708 37.9601 35.1135 38.9791C36.3783 36.8587 35.1931 35.1193 34 33.3676V33.367ZM24.0731 33.5287C24.457 33.2381 24.8768 32.9985 25.322 32.8158C25.7724 32.6347 26.2399 32.4993 26.7172 32.4116L27.6 32.2689C28.2366 32.1754 28.8483 32.0858 29.3883 31.8672C29.7777 31.7147 30.1356 31.4918 30.4445 31.2099C30.7437 30.9308 30.9724 30.5839 31.1129 30.1989C31.2564 29.792 31.3145 29.3601 31.2839 28.9299C31.2483 28.4678 31.1443 28.0133 30.975 27.5818C31.3262 27.9489 31.5816 28.3968 31.7189 28.8858C31.8562 29.3753 31.8714 29.891 31.7629 30.3878C31.64 30.9129 31.3743 31.3943 30.9952 31.7781C30.6204 32.1491 30.1679 32.4324 29.6706 32.6074C29.1962 32.7745 28.7014 32.8762 28.2 32.9108L27.2987 32.9637L26.7904 32.9893C25.8624 33.0285 24.946 33.2103 24.0731 33.5283V33.5287ZM32.9989 40.5453L33.0381 40.5139L33.07 40.4879L33.0891 40.4731C32.7618 40.6222 32.4212 40.7395 32.071 40.8216C31.9024 40.8587 31.7316 40.8831 31.5591 40.8954L31.3083 40.8895L31.0668 40.8551C29.8095 40.6349 29.6402 39.3691 29.4933 38.272L29.3889 37.5872C29.3118 37.1939 29.1918 36.8103 29.0308 36.4433C28.8524 36.052 28.6 35.6987 28.2875 35.4031C27.9725 35.1214 27.6108 34.897 27.2185 34.7399C26.8445 34.5872 26.452 34.4847 26.0514 34.4364C25.2722 34.341 24.4822 34.402 23.7274 34.6153C22.9985 34.8201 22.3 35.1203 21.6499 35.5081C21.016 35.8924 20.4224 36.3395 19.8779 36.8429C19.9204 36.8035 20.1597 36.8454 20.3066 36.871H20.3072L20.4085 36.8874L20.9347 36.9724C21.2812 37.0383 21.6191 37.1435 21.9416 37.2858C22.4099 37.5143 22.8331 37.8249 23.1916 38.2031L23.41 38.4333C23.5716 38.647 23.7552 38.8429 23.9581 39.0179L24.1087 39.1474C24.4016 39.3839 24.7527 39.5368 25.1252 39.5903C25.3904 39.6231 25.6595 39.5951 25.9125 39.5087C26.037 39.4668 26.1562 39.4101 26.2674 39.3399C26.3799 39.2687 26.4818 39.182 26.5697 39.0822C26.7352 38.8879 26.8456 38.6524 26.8897 38.4004C26.9352 38.1587 26.9125 37.9091 26.8245 37.6795C26.7395 37.4566 26.5714 37.2753 26.356 37.1739C26.5412 37.2997 26.6706 37.4933 26.7168 37.7129C26.7591 37.9231 26.7427 38.141 26.6695 38.3426C26.6027 38.5356 26.4843 38.707 26.3279 38.8381C26.2535 38.9001 26.1702 38.9506 26.0812 38.9887C25.992 39.0253 25.8989 39.051 25.8037 39.0656C24.6833 39.2545 23.8049 37.9193 24.4164 36.9654C24.6493 36.6004 25.042 36.4116 25.4604 36.3585C26.487 36.2333 27.3639 36.9097 27.8758 37.7501C28.0966 38.1112 28.2604 38.5028 28.4239 38.8943L28.7449 39.6206C29.1877 40.5256 29.9443 41.3262 31.0154 41.3468C31.411 41.3499 31.8018 41.2608 32.157 41.0868C32.3275 41.0074 32.492 40.9154 32.6489 40.8116C32.7724 40.7287 32.8864 40.636 32.9989 40.5453Z" fill="#FF007A"/>
<defs>
<linearGradient id="paint0_linear_1_5330" x1="48.0767" y1="1.92285" x2="1.92285" y2="48.0767" gradientUnits="userSpaceOnUse">
<stop stop-color="#FFE8F1"/>
<stop offset="1" stop-color="#FDFEFE"/>
</linearGradient>
</defs>
</svg>
