<svg width="161" height="48" viewBox="0 0 161 48" fill="none" xmlns="http://www.w3.org/2000/svg">
<g clip-path="url(#clip0_45_132012)">
<path d="M11.012 0H37.988C43.7938 0 48.5 4.70625 48.5 10.512V37.488C48.5 43.2938 43.7938 48 37.988 48H11.012C5.20625 48 0.5 43.2938 0.5 37.488V10.512C0.5 4.70625 5.20625 0 11.012 0Z" fill="url(#paint0_linear_45_132012)"/>
<path d="M15.8831 34.8395L15.8876 34.841L14.2465 37.6835C13.6474 38.7211 12.3206 39.0766 11.283 38.4776C10.2456 37.8785 9.88989 36.5518 10.489 35.5141L11.698 33.4201L11.814 33.2191C12.0212 32.9214 12.5325 32.4073 13.5553 32.504C13.5553 32.504 15.9623 32.7652 16.1365 34.0162C16.1365 34.0162 16.1601 34.4277 15.8831 34.8395V34.8395ZM39.16 27.5795H34.0423C33.6938 27.5561 33.5417 27.4316 33.4817 27.3592L33.478 27.3526L27.9998 17.864L27.9926 17.8687L27.6641 17.3977C27.1256 16.5742 26.2706 18.6802 26.2706 18.6802C25.2497 21.0269 26.4156 23.6949 26.8219 24.5013L34.431 37.6807C35.0299 38.7181 36.3566 39.0738 37.3945 38.4746C38.4319 37.8755 38.7876 36.5487 38.1883 35.5111L36.2858 32.2156C36.2488 32.1357 36.1847 31.919 36.5749 31.9181H39.16C40.3581 31.9181 41.3293 30.9468 41.3293 29.7487C41.3293 28.5506 40.3581 27.5793 39.16 27.5793V27.5795ZM29.2198 30.5285C29.2198 30.5285 29.493 31.9181 28.4361 31.9181H9.51752C8.31939 31.9181 7.34814 30.9468 7.34814 29.7487C7.34814 28.5506 8.31939 27.5793 9.51752 27.5793H14.3813C15.1665 27.5339 15.3525 27.0806 15.3525 27.0806L15.357 27.0828L21.7058 16.0863L21.7039 16.0859C21.8196 15.8735 21.7232 15.6727 21.7065 15.641L19.6097 12.0093C19.0106 10.9719 19.3661 9.64494 20.4038 9.04606C21.4414 8.447 22.7681 8.80231 23.3672 9.83994L24.3396 11.5242L25.3103 9.84294C25.9093 8.8055 27.2361 8.44981 28.2737 9.04906C29.3113 9.64812 29.6668 10.9747 29.0678 12.0123L20.2331 27.3142C20.1945 27.4074 20.1827 27.5536 20.4701 27.5793H25.7509L25.752 27.6309C25.752 27.6309 28.8041 27.6783 29.2198 30.5285Z" fill="white"/>
</g>
<path d="M71.233 7H70.3523C70.3002 6.74669 70.209 6.52415 70.0788 6.33239C69.951 6.14062 69.7947 5.97964 69.6101 5.84943C69.4278 5.71686 69.2254 5.61742 69.0028 5.55114C68.7803 5.48485 68.5483 5.4517 68.3068 5.4517C67.8665 5.4517 67.4676 5.56297 67.1101 5.78551C66.755 6.00805 66.4721 6.33594 66.2614 6.76918C66.053 7.20241 65.9489 7.7339 65.9489 8.36364C65.9489 8.99337 66.053 9.52486 66.2614 9.9581C66.4721 10.3913 66.755 10.7192 67.1101 10.9418C67.4676 11.1643 67.8665 11.2756 68.3068 11.2756C68.5483 11.2756 68.7803 11.2424 69.0028 11.1761C69.2254 11.1098 69.4278 11.0116 69.6101 10.8814C69.7947 10.7488 69.951 10.5866 70.0788 10.3949C70.209 10.2008 70.3002 9.97822 70.3523 9.72727H71.233C71.1667 10.099 71.0459 10.4316 70.8707 10.7251C70.6955 11.0187 70.4777 11.2685 70.2173 11.4744C69.9569 11.678 69.6645 11.8331 69.3402 11.9396C69.0182 12.0462 68.6738 12.0994 68.3068 12.0994C67.6866 12.0994 67.1349 11.9479 66.652 11.6449C66.169 11.3419 65.7891 10.911 65.5121 10.3523C65.2351 9.79356 65.0966 9.13068 65.0966 8.36364C65.0966 7.59659 65.2351 6.93371 65.5121 6.375C65.7891 5.81629 66.169 5.38542 66.652 5.08239C67.1349 4.77936 67.6866 4.62784 68.3068 4.62784C68.6738 4.62784 69.0182 4.68111 69.3402 4.78764C69.6645 4.89418 69.9569 5.05043 70.2173 5.25639C70.4777 5.45999 70.6955 5.70857 70.8707 6.00213C71.0459 6.29332 71.1667 6.62595 71.233 7ZM74.7583 12.1136C74.2659 12.1136 73.8339 11.9964 73.4622 11.7621C73.0929 11.5277 72.804 11.1998 72.5957 10.7784C72.3897 10.357 72.2868 9.86458 72.2868 9.30114C72.2868 8.73295 72.3897 8.23698 72.5957 7.81321C72.804 7.38944 73.0929 7.06037 73.4622 6.82599C73.8339 6.59162 74.2659 6.47443 74.7583 6.47443C75.2508 6.47443 75.6816 6.59162 76.051 6.82599C76.4226 7.06037 76.7115 7.38944 76.9174 7.81321C77.1258 8.23698 77.2299 8.73295 77.2299 9.30114C77.2299 9.86458 77.1258 10.357 76.9174 10.7784C76.7115 11.1998 76.4226 11.5277 76.051 11.7621C75.6816 11.9964 75.2508 12.1136 74.7583 12.1136ZM74.7583 11.3608C75.1324 11.3608 75.4402 11.2649 75.6816 11.0732C75.9231 10.8814 76.1019 10.6293 76.2179 10.3168C76.3339 10.0043 76.3919 9.66572 76.3919 9.30114C76.3919 8.93655 76.3339 8.59683 76.2179 8.28196C76.1019 7.96709 75.9231 7.71259 75.6816 7.51847C75.4402 7.32434 75.1324 7.22727 74.7583 7.22727C74.3843 7.22727 74.0765 7.32434 73.835 7.51847C73.5936 7.71259 73.4148 7.96709 73.2988 8.28196C73.1828 8.59683 73.1248 8.93655 73.1248 9.30114C73.1248 9.66572 73.1828 10.0043 73.2988 10.3168C73.4148 10.6293 73.5936 10.8814 73.835 11.0732C74.0765 11.2649 74.3843 11.3608 74.7583 11.3608ZM78.5092 12V6.54545H79.3189V7.39773H79.3899C79.5036 7.10653 79.687 6.88045 79.9403 6.71946C80.1937 6.55611 80.4979 6.47443 80.853 6.47443C81.2128 6.47443 81.5123 6.55611 81.7514 6.71946C81.9929 6.88045 82.1811 7.10653 82.3161 7.39773H82.3729C82.5125 7.116 82.7221 6.89228 83.0014 6.72656C83.2808 6.55848 83.6158 6.47443 84.0064 6.47443C84.4941 6.47443 84.893 6.62713 85.2031 6.93253C85.5133 7.23556 85.6683 7.70786 85.6683 8.34943V12H84.8303V8.34943C84.8303 7.94697 84.7202 7.65933 84.5 7.48651C84.2798 7.31368 84.0206 7.22727 83.7223 7.22727C83.3388 7.22727 83.0417 7.34328 82.831 7.57528C82.6203 7.80492 82.5149 8.09612 82.5149 8.44886V12H81.6626V8.2642C81.6626 7.95407 81.562 7.70431 81.3608 7.51491C81.1596 7.32315 80.9003 7.22727 80.5831 7.22727C80.3653 7.22727 80.1617 7.28527 79.9723 7.40128C79.7853 7.51728 79.6338 7.67827 79.5178 7.88423C79.4041 8.08783 79.3473 8.32339 79.3473 8.59091V12H78.5092ZM87.2006 12V6.54545H88.0387V12H87.2006ZM87.6268 5.63636C87.4634 5.63636 87.3226 5.58073 87.2042 5.46946C87.0882 5.35819 87.0302 5.22443 87.0302 5.06818C87.0302 4.91193 87.0882 4.77817 87.2042 4.6669C87.3226 4.55563 87.4634 4.5 87.6268 4.5C87.7901 4.5 87.9298 4.55563 88.0458 4.6669C88.1642 4.77817 88.2234 4.91193 88.2234 5.06818C88.2234 5.22443 88.1642 5.35819 88.0458 5.46946C87.9298 5.58073 87.7901 5.63636 87.6268 5.63636ZM90.4118 8.71875V12H89.5737V6.54545H90.3833V7.39773H90.4544C90.5822 7.12074 90.7763 6.8982 91.0368 6.73011C91.2972 6.55966 91.6333 6.47443 92.0453 6.47443C92.4146 6.47443 92.7377 6.55019 93.0147 6.7017C93.2917 6.85085 93.5072 7.07812 93.661 7.38352C93.8149 7.68655 93.8919 8.07008 93.8919 8.53409V12H93.0538V8.59091C93.0538 8.16241 92.9425 7.8286 92.72 7.58949C92.4975 7.34801 92.1921 7.22727 91.8038 7.22727C91.5363 7.22727 91.2972 7.28527 91.0865 7.40128C90.8781 7.51728 90.7136 7.68655 90.5929 7.90909C90.4721 8.13163 90.4118 8.40152 90.4118 8.71875ZM97.625 14.1591C97.2202 14.1591 96.8722 14.107 96.581 14.0028C96.2898 13.901 96.0471 13.7661 95.853 13.598C95.6612 13.4323 95.5085 13.2547 95.3949 13.0653L96.0625 12.5966C96.1383 12.696 96.2341 12.8097 96.3501 12.9375C96.4661 13.0677 96.6248 13.1802 96.826 13.2749C97.0296 13.3719 97.2959 13.4205 97.625 13.4205C98.0653 13.4205 98.4287 13.3139 98.7152 13.1009C99.0017 12.8878 99.1449 12.554 99.1449 12.0994V10.9915H99.0739C99.0123 11.0909 98.9247 11.214 98.8111 11.3608C98.6998 11.5052 98.5388 11.6342 98.3281 11.7479C98.1198 11.8591 97.8381 11.9148 97.483 11.9148C97.0426 11.9148 96.6473 11.8106 96.2969 11.6023C95.9489 11.3939 95.6731 11.0909 95.4695 10.6932C95.2682 10.2955 95.1676 9.8125 95.1676 9.24432C95.1676 8.68561 95.2659 8.1991 95.4624 7.7848C95.6589 7.36813 95.9323 7.04616 96.2827 6.81889C96.633 6.58925 97.0379 6.47443 97.4972 6.47443C97.8523 6.47443 98.134 6.53362 98.3423 6.65199C98.553 6.76799 98.714 6.90057 98.8253 7.04972C98.9389 7.1965 99.0265 7.31723 99.0881 7.41193H99.1733V6.54545H99.983V12.1562C99.983 12.625 99.8764 13.0062 99.6634 13.2997C99.4527 13.5956 99.1686 13.8123 98.8111 13.9496C98.456 14.0893 98.0606 14.1591 97.625 14.1591ZM97.5966 11.1619C97.9328 11.1619 98.2169 11.085 98.4489 10.9311C98.6809 10.7772 98.8572 10.5559 98.978 10.267C99.0987 9.97822 99.1591 9.63258 99.1591 9.23011C99.1591 8.83712 99.0999 8.49029 98.9815 8.18963C98.8632 7.88897 98.688 7.65341 98.456 7.48295C98.224 7.3125 97.9375 7.22727 97.5966 7.22727C97.2415 7.22727 96.9455 7.31723 96.7088 7.49716C96.4744 7.67708 96.2981 7.91856 96.1797 8.22159C96.0637 8.52462 96.0057 8.8608 96.0057 9.23011C96.0057 9.6089 96.0649 9.94389 96.1832 10.2351C96.304 10.5239 96.4815 10.7512 96.7159 10.9169C96.9527 11.0803 97.2462 11.1619 97.5966 11.1619ZM108.193 7.76705L107.44 7.98011C107.393 7.85464 107.323 7.73272 107.231 7.61435C107.141 7.49361 107.018 7.39418 106.862 7.31605C106.705 7.23793 106.505 7.19886 106.261 7.19886C105.928 7.19886 105.649 7.2758 105.427 7.42969C105.207 7.5812 105.097 7.77415 105.097 8.00852C105.097 8.21686 105.172 8.38139 105.324 8.50213C105.475 8.62287 105.712 8.72348 106.034 8.80398L106.844 9.00284C107.331 9.12121 107.695 9.30232 107.934 9.54616C108.173 9.78764 108.293 10.099 108.293 10.4801C108.293 10.7926 108.203 11.072 108.023 11.3182C107.845 11.5644 107.597 11.7585 107.277 11.9006C106.957 12.0426 106.586 12.1136 106.162 12.1136C105.606 12.1136 105.145 11.9929 104.781 11.7514C104.416 11.5099 104.185 11.1572 104.088 10.6932L104.884 10.4943C104.959 10.7879 105.103 11.008 105.313 11.1548C105.526 11.3016 105.804 11.375 106.148 11.375C106.538 11.375 106.848 11.2921 107.078 11.1264C107.31 10.9583 107.426 10.7571 107.426 10.5227C107.426 10.3333 107.36 10.1747 107.227 10.0469C107.095 9.91667 106.891 9.8196 106.616 9.75568L105.707 9.54261C105.208 9.42424 104.841 9.24077 104.607 8.99219C104.375 8.74124 104.259 8.42756 104.259 8.05114C104.259 7.74337 104.345 7.47112 104.518 7.23438C104.693 6.99763 104.931 6.81179 105.232 6.67685C105.535 6.5419 105.878 6.47443 106.261 6.47443C106.801 6.47443 107.225 6.5928 107.533 6.82955C107.843 7.06629 108.063 7.37879 108.193 7.76705ZM111.77 12.1136C111.278 12.1136 110.846 11.9964 110.474 11.7621C110.105 11.5277 109.816 11.1998 109.607 10.7784C109.401 10.357 109.298 9.86458 109.298 9.30114C109.298 8.73295 109.401 8.23698 109.607 7.81321C109.816 7.38944 110.105 7.06037 110.474 6.82599C110.846 6.59162 111.278 6.47443 111.77 6.47443C112.262 6.47443 112.693 6.59162 113.063 6.82599C113.434 7.06037 113.723 7.38944 113.929 7.81321C114.137 8.23698 114.242 8.73295 114.242 9.30114C114.242 9.86458 114.137 10.357 113.929 10.7784C113.723 11.1998 113.434 11.5277 113.063 11.7621C112.693 11.9964 112.262 12.1136 111.77 12.1136ZM111.77 11.3608C112.144 11.3608 112.452 11.2649 112.693 11.0732C112.935 10.8814 113.114 10.6293 113.23 10.3168C113.346 10.0043 113.404 9.66572 113.404 9.30114C113.404 8.93655 113.346 8.59683 113.23 8.28196C113.114 7.96709 112.935 7.71259 112.693 7.51847C112.452 7.32434 112.144 7.22727 111.77 7.22727C111.396 7.22727 111.088 7.32434 110.847 7.51847C110.605 7.71259 110.427 7.96709 110.311 8.28196C110.195 8.59683 110.137 8.93655 110.137 9.30114C110.137 9.66572 110.195 10.0043 110.311 10.3168C110.427 10.6293 110.605 10.8814 110.847 11.0732C111.088 11.2649 111.396 11.3608 111.77 11.3608ZM117.737 12.1136C117.244 12.1136 116.812 11.9964 116.441 11.7621C116.071 11.5277 115.783 11.1998 115.574 10.7784C115.368 10.357 115.265 9.86458 115.265 9.30114C115.265 8.73295 115.368 8.23698 115.574 7.81321C115.783 7.38944 116.071 7.06037 116.441 6.82599C116.812 6.59162 117.244 6.47443 117.737 6.47443C118.229 6.47443 118.66 6.59162 119.029 6.82599C119.401 7.06037 119.69 7.38944 119.896 7.81321C120.104 8.23698 120.208 8.73295 120.208 9.30114C120.208 9.86458 120.104 10.357 119.896 10.7784C119.69 11.1998 119.401 11.5277 119.029 11.7621C118.66 11.9964 118.229 12.1136 117.737 12.1136ZM117.737 11.3608C118.111 11.3608 118.419 11.2649 118.66 11.0732C118.902 10.8814 119.08 10.6293 119.196 10.3168C119.312 10.0043 119.37 9.66572 119.37 9.30114C119.37 8.93655 119.312 8.59683 119.196 8.28196C119.08 7.96709 118.902 7.71259 118.66 7.51847C118.419 7.32434 118.111 7.22727 117.737 7.22727C117.363 7.22727 117.055 7.32434 116.814 7.51847C116.572 7.71259 116.393 7.96709 116.277 8.28196C116.161 8.59683 116.103 8.93655 116.103 9.30114C116.103 9.66572 116.161 10.0043 116.277 10.3168C116.393 10.6293 116.572 10.8814 116.814 11.0732C117.055 11.2649 117.363 11.3608 117.737 11.3608ZM122.326 8.71875V12H121.488V6.54545H122.297V7.39773H122.368C122.496 7.12074 122.69 6.8982 122.951 6.73011C123.211 6.55966 123.547 6.47443 123.959 6.47443C124.329 6.47443 124.652 6.55019 124.929 6.7017C125.206 6.85085 125.421 7.07812 125.575 7.38352C125.729 7.68655 125.806 8.07008 125.806 8.53409V12H124.968V8.59091C124.968 8.16241 124.857 7.8286 124.634 7.58949C124.412 7.34801 124.106 7.22727 123.718 7.22727C123.45 7.22727 123.211 7.28527 123.001 7.40128C122.792 7.51728 122.628 7.68655 122.507 7.90909C122.386 8.13163 122.326 8.40152 122.326 8.71875ZM132.366 12.1136C131.873 12.1136 131.441 11.9964 131.07 11.7621C130.7 11.5277 130.411 11.1998 130.203 10.7784C129.997 10.357 129.894 9.86458 129.894 9.30114C129.894 8.73295 129.997 8.23698 130.203 7.81321C130.411 7.38944 130.7 7.06037 131.07 6.82599C131.441 6.59162 131.873 6.47443 132.366 6.47443C132.858 6.47443 133.289 6.59162 133.658 6.82599C134.03 7.06037 134.319 7.38944 134.525 7.81321C134.733 8.23698 134.837 8.73295 134.837 9.30114C134.837 9.86458 134.733 10.357 134.525 10.7784C134.319 11.1998 134.03 11.5277 133.658 11.7621C133.289 11.9964 132.858 12.1136 132.366 12.1136ZM132.366 11.3608C132.74 11.3608 133.048 11.2649 133.289 11.0732C133.531 10.8814 133.709 10.6293 133.825 10.3168C133.941 10.0043 133.999 9.66572 133.999 9.30114C133.999 8.93655 133.941 8.59683 133.825 8.28196C133.709 7.96709 133.531 7.71259 133.289 7.51847C133.048 7.32434 132.74 7.22727 132.366 7.22727C131.992 7.22727 131.684 7.32434 131.442 7.51847C131.201 7.71259 131.022 7.96709 130.906 8.28196C130.79 8.59683 130.732 8.93655 130.732 9.30114C130.732 9.66572 130.79 10.0043 130.906 10.3168C131.022 10.6293 131.201 10.8814 131.442 11.0732C131.684 11.2649 131.992 11.3608 132.366 11.3608ZM136.955 8.71875V12H136.117V6.54545H136.926V7.39773H136.997C137.125 7.12074 137.319 6.8982 137.58 6.73011C137.84 6.55966 138.176 6.47443 138.588 6.47443C138.958 6.47443 139.281 6.55019 139.558 6.7017C139.835 6.85085 140.05 7.07812 140.204 7.38352C140.358 7.68655 140.435 8.07008 140.435 8.53409V12H139.597V8.59091C139.597 8.16241 139.485 7.8286 139.263 7.58949C139.04 7.34801 138.735 7.22727 138.347 7.22727C138.079 7.22727 137.84 7.28527 137.629 7.40128C137.421 7.51728 137.257 7.68655 137.136 7.90909C137.015 8.13163 136.955 8.40152 136.955 8.71875Z" fill="#00176A"/>
<path d="M65.2 39C65.0933 39 64.9933 38.96 64.9 38.88C64.82 38.8 64.78 38.7 64.78 38.58C64.78 38.5267 64.7933 38.4667 64.82 38.4L69.64 25.5C69.68 25.3667 69.7533 25.2533 69.86 25.16C69.98 25.0533 70.14 25 70.34 25H72.52C72.72 25 72.8733 25.0533 72.98 25.16C73.0867 25.2533 73.1667 25.3667 73.22 25.5L78.04 38.4C78.0533 38.4667 78.06 38.5267 78.06 38.58C78.06 38.7 78.02 38.8 77.94 38.88C77.86 38.96 77.7667 39 77.66 39H75.92C75.7333 39 75.5933 38.96 75.5 38.88C75.42 38.7867 75.3667 38.7 75.34 38.62L74.4 36.18H68.46L67.52 38.62C67.4933 38.7 67.4333 38.7867 67.34 38.88C67.26 38.96 67.1267 39 66.94 39H65.2ZM69.16 33.88H73.7L71.42 27.7L69.16 33.88ZM80.1872 42.8C80.0539 42.8 79.9405 42.7533 79.8472 42.66C79.7539 42.5667 79.7072 42.4533 79.7072 42.32V29.08C79.7072 28.9467 79.7539 28.8333 79.8472 28.74C79.9405 28.6467 80.0539 28.6 80.1872 28.6H81.7672C81.9139 28.6 82.0272 28.6467 82.1072 28.74C82.2005 28.8333 82.2472 28.9467 82.2472 29.08V29.88C82.5672 29.4533 82.9872 29.1 83.5072 28.82C84.0272 28.54 84.6739 28.4 85.4472 28.4C86.1539 28.4 86.7672 28.5133 87.2872 28.74C87.8072 28.9667 88.2405 29.2933 88.5872 29.72C88.9339 30.1333 89.2005 30.6267 89.3872 31.2C89.5739 31.7733 89.6805 32.4067 89.7072 33.1C89.7205 33.3267 89.7272 33.56 89.7272 33.8C89.7272 34.04 89.7205 34.28 89.7072 34.52C89.6939 35.1867 89.5939 35.8067 89.4072 36.38C89.2205 36.94 88.9472 37.4333 88.5872 37.86C88.2405 38.2733 87.8072 38.6 87.2872 38.84C86.7672 39.08 86.1539 39.2 85.4472 39.2C84.7272 39.2 84.1139 39.0733 83.6072 38.82C83.1005 38.5533 82.6872 38.2067 82.3672 37.78V42.32C82.3672 42.4533 82.3205 42.5667 82.2272 42.66C82.1472 42.7533 82.0339 42.8 81.8872 42.8H80.1872ZM84.7072 37.06C85.2805 37.06 85.7272 36.94 86.0472 36.7C86.3672 36.4467 86.5939 36.12 86.7272 35.72C86.8739 35.32 86.9605 34.88 86.9872 34.4C87.0139 34 87.0139 33.6 86.9872 33.2C86.9605 32.72 86.8739 32.28 86.7272 31.88C86.5939 31.48 86.3672 31.16 86.0472 30.92C85.7272 30.6667 85.2805 30.54 84.7072 30.54C84.1605 30.54 83.7139 30.6667 83.3672 30.92C83.0339 31.1733 82.7872 31.5 82.6272 31.9C82.4805 32.2867 82.3939 32.6867 82.3672 33.1C82.3539 33.34 82.3472 33.5933 82.3472 33.86C82.3472 34.1267 82.3539 34.3867 82.3672 34.64C82.3805 35.04 82.4739 35.4267 82.6472 35.8C82.8205 36.16 83.0739 36.46 83.4072 36.7C83.7405 36.94 84.1739 37.06 84.7072 37.06ZM92.4723 42.8C92.339 42.8 92.2257 42.7533 92.1323 42.66C92.039 42.5667 91.9923 42.4533 91.9923 42.32V29.08C91.9923 28.9467 92.039 28.8333 92.1323 28.74C92.2257 28.6467 92.339 28.6 92.4723 28.6H94.0523C94.199 28.6 94.3123 28.6467 94.3923 28.74C94.4857 28.8333 94.5323 28.9467 94.5323 29.08V29.88C94.8523 29.4533 95.2723 29.1 95.7923 28.82C96.3123 28.54 96.959 28.4 97.7323 28.4C98.439 28.4 99.0523 28.5133 99.5723 28.74C100.092 28.9667 100.526 29.2933 100.872 29.72C101.219 30.1333 101.486 30.6267 101.672 31.2C101.859 31.7733 101.966 32.4067 101.992 33.1C102.006 33.3267 102.012 33.56 102.012 33.8C102.012 34.04 102.006 34.28 101.992 34.52C101.979 35.1867 101.879 35.8067 101.692 36.38C101.506 36.94 101.232 37.4333 100.872 37.86C100.526 38.2733 100.092 38.6 99.5723 38.84C99.0523 39.08 98.439 39.2 97.7323 39.2C97.0123 39.2 96.399 39.0733 95.8923 38.82C95.3857 38.5533 94.9723 38.2067 94.6523 37.78V42.32C94.6523 42.4533 94.6057 42.5667 94.5123 42.66C94.4323 42.7533 94.319 42.8 94.1723 42.8H92.4723ZM96.9923 37.06C97.5657 37.06 98.0123 36.94 98.3323 36.7C98.6523 36.4467 98.879 36.12 99.0123 35.72C99.159 35.32 99.2457 34.88 99.2723 34.4C99.299 34 99.299 33.6 99.2723 33.2C99.2457 32.72 99.159 32.28 99.0123 31.88C98.879 31.48 98.6523 31.16 98.3323 30.92C98.0123 30.6667 97.5657 30.54 96.9923 30.54C96.4457 30.54 95.999 30.6667 95.6523 30.92C95.319 31.1733 95.0723 31.5 94.9123 31.9C94.7657 32.2867 94.679 32.6867 94.6523 33.1C94.639 33.34 94.6323 33.5933 94.6323 33.86C94.6323 34.1267 94.639 34.3867 94.6523 34.64C94.6657 35.04 94.759 35.4267 94.9323 35.8C95.1057 36.16 95.359 36.46 95.6923 36.7C96.0257 36.94 96.459 37.06 96.9923 37.06ZM113.928 39.2C112.688 39.2 111.648 39.02 110.808 38.66C109.981 38.2867 109.348 37.8067 108.908 37.22C108.481 36.62 108.254 35.9933 108.228 35.34C108.228 35.22 108.268 35.12 108.348 35.04C108.428 34.96 108.528 34.92 108.648 34.92H110.428C110.601 34.92 110.728 34.96 110.808 35.04C110.901 35.1067 110.981 35.1933 111.048 35.3C111.128 35.5533 111.281 35.8067 111.508 36.06C111.734 36.3 112.041 36.5 112.428 36.66C112.828 36.82 113.328 36.9 113.928 36.9C114.888 36.9 115.601 36.74 116.068 36.42C116.548 36.1 116.788 35.6667 116.788 35.12C116.788 34.7333 116.661 34.4267 116.408 34.2C116.154 33.96 115.761 33.7467 115.228 33.56C114.708 33.36 114.014 33.1533 113.148 32.94C112.148 32.7 111.308 32.4133 110.628 32.08C109.961 31.7333 109.454 31.3 109.108 30.78C108.774 30.26 108.608 29.6 108.608 28.8C108.608 28.0267 108.814 27.34 109.228 26.74C109.654 26.14 110.254 25.6667 111.028 25.32C111.814 24.9733 112.748 24.8 113.828 24.8C114.694 24.8 115.461 24.92 116.128 25.16C116.794 25.3867 117.348 25.6933 117.788 26.08C118.228 26.4533 118.561 26.86 118.788 27.3C119.028 27.7267 119.154 28.1467 119.168 28.56C119.168 28.6667 119.128 28.7667 119.048 28.86C118.981 28.94 118.881 28.98 118.748 28.98H116.888C116.781 28.98 116.674 28.9533 116.568 28.9C116.461 28.8467 116.374 28.7467 116.308 28.6C116.228 28.1867 115.968 27.8333 115.528 27.54C115.088 27.2467 114.521 27.1 113.828 27.1C113.108 27.1 112.528 27.2333 112.088 27.5C111.648 27.7667 111.428 28.18 111.428 28.74C111.428 29.1133 111.534 29.4267 111.748 29.68C111.974 29.92 112.328 30.1333 112.808 30.32C113.301 30.5067 113.948 30.7067 114.748 30.92C115.881 31.1733 116.808 31.4667 117.528 31.8C118.248 32.1333 118.774 32.56 119.108 33.08C119.441 33.5867 119.608 34.2333 119.608 35.02C119.608 35.9 119.368 36.6533 118.888 37.28C118.421 37.8933 117.761 38.3667 116.908 38.7C116.054 39.0333 115.061 39.2 113.928 39.2ZM126.36 39C125.56 39 124.887 38.86 124.34 38.58C123.793 38.3 123.387 37.8867 123.12 37.34C122.853 36.78 122.72 36.0867 122.72 35.26V30.72H121.14C121.007 30.72 120.893 30.6733 120.8 30.58C120.707 30.4867 120.66 30.3733 120.66 30.24V29.08C120.66 28.9467 120.707 28.8333 120.8 28.74C120.893 28.6467 121.007 28.6 121.14 28.6H122.72V25.28C122.72 25.1467 122.76 25.0333 122.84 24.94C122.933 24.8467 123.053 24.8 123.2 24.8H124.82C124.953 24.8 125.067 24.8467 125.16 24.94C125.253 25.0333 125.3 25.1467 125.3 25.28V28.6H127.8C127.933 28.6 128.047 28.6467 128.14 28.74C128.233 28.8333 128.28 28.9467 128.28 29.08V30.24C128.28 30.3733 128.233 30.4867 128.14 30.58C128.047 30.6733 127.933 30.72 127.8 30.72H125.3V35.06C125.3 35.6067 125.393 36.0333 125.58 36.34C125.78 36.6467 126.12 36.8 126.6 36.8H127.98C128.113 36.8 128.227 36.8467 128.32 36.94C128.413 37.0333 128.46 37.1467 128.46 37.28V38.52C128.46 38.6533 128.413 38.7667 128.32 38.86C128.227 38.9533 128.113 39 127.98 39H126.36ZM134.834 39.2C133.767 39.2 132.867 39.0133 132.134 38.64C131.414 38.2667 130.861 37.74 130.474 37.06C130.101 36.38 129.887 35.5867 129.834 34.68C129.821 34.44 129.814 34.1467 129.814 33.8C129.814 33.4533 129.821 33.16 129.834 32.92C129.887 32 130.107 31.2067 130.494 30.54C130.894 29.86 131.454 29.3333 132.174 28.96C132.907 28.5867 133.794 28.4 134.834 28.4C135.874 28.4 136.754 28.5867 137.474 28.96C138.207 29.3333 138.767 29.86 139.154 30.54C139.554 31.2067 139.781 32 139.834 32.92C139.847 33.16 139.854 33.4533 139.854 33.8C139.854 34.1467 139.847 34.44 139.834 34.68C139.781 35.5867 139.561 36.38 139.174 37.06C138.801 37.74 138.247 38.2667 137.514 38.64C136.794 39.0133 135.901 39.2 134.834 39.2ZM134.834 37.22C135.541 37.22 136.087 37 136.474 36.56C136.861 36.1067 137.074 35.4467 137.114 34.58C137.127 34.38 137.134 34.12 137.134 33.8C137.134 33.48 137.127 33.22 137.114 33.02C137.074 32.1667 136.861 31.5133 136.474 31.06C136.087 30.6067 135.541 30.38 134.834 30.38C134.127 30.38 133.581 30.6067 133.194 31.06C132.807 31.5133 132.594 32.1667 132.554 33.02C132.541 33.22 132.534 33.48 132.534 33.8C132.534 34.12 132.541 34.38 132.554 34.58C132.594 35.4467 132.807 36.1067 133.194 36.56C133.581 37 134.127 37.22 134.834 37.22ZM142.55 39C142.417 39 142.303 38.9533 142.21 38.86C142.117 38.7667 142.07 38.6533 142.07 38.52V29.1C142.07 28.9533 142.117 28.8333 142.21 28.74C142.303 28.6467 142.417 28.6 142.55 28.6H144.17C144.303 28.6 144.417 28.6467 144.51 28.74C144.617 28.8333 144.67 28.9533 144.67 29.1V29.92C144.977 29.4933 145.37 29.1667 145.85 28.94C146.343 28.7133 146.91 28.6 147.55 28.6H148.37C148.517 28.6 148.63 28.6467 148.71 28.74C148.803 28.8333 148.85 28.9467 148.85 29.08V30.52C148.85 30.6533 148.803 30.7667 148.71 30.86C148.63 30.9533 148.517 31 148.37 31H146.81C146.17 31 145.67 31.18 145.31 31.54C144.963 31.9 144.79 32.3933 144.79 33.02V38.52C144.79 38.6533 144.743 38.7667 144.65 38.86C144.557 38.9533 144.437 39 144.29 39H142.55ZM154.753 39.2C153.273 39.2 152.1 38.7733 151.233 37.92C150.366 37.0667 149.9 35.8533 149.833 34.28C149.82 34.1467 149.813 33.98 149.813 33.78C149.813 33.5667 149.82 33.4 149.833 33.28C149.886 32.28 150.113 31.4133 150.513 30.68C150.926 29.9467 151.493 29.3867 152.213 29C152.933 28.6 153.78 28.4 154.753 28.4C155.833 28.4 156.74 28.6267 157.473 29.08C158.206 29.52 158.76 30.14 159.133 30.94C159.506 31.7267 159.693 32.64 159.693 33.68V34.1C159.693 34.2333 159.646 34.3467 159.553 34.44C159.46 34.5333 159.34 34.58 159.193 34.58H152.553C152.553 34.58 152.553 34.6 152.553 34.64C152.553 34.68 152.553 34.7133 152.553 34.74C152.566 35.2067 152.653 35.64 152.813 36.04C152.986 36.4267 153.233 36.74 153.553 36.98C153.886 37.22 154.28 37.34 154.733 37.34C155.106 37.34 155.42 37.2867 155.673 37.18C155.926 37.06 156.133 36.9267 156.293 36.78C156.453 36.6333 156.566 36.5133 156.633 36.42C156.753 36.26 156.846 36.1667 156.913 36.14C156.993 36.1 157.106 36.08 157.253 36.08H158.973C159.106 36.08 159.213 36.12 159.293 36.2C159.386 36.28 159.426 36.38 159.413 36.5C159.4 36.7133 159.286 36.9733 159.073 37.28C158.873 37.5867 158.58 37.8867 158.193 38.18C157.806 38.4733 157.32 38.72 156.733 38.92C156.16 39.1067 155.5 39.2 154.753 39.2ZM152.553 32.9H156.973V32.84C156.973 32.32 156.886 31.8667 156.713 31.48C156.54 31.0933 156.286 30.7867 155.953 30.56C155.62 30.3333 155.22 30.22 154.753 30.22C154.286 30.22 153.886 30.3333 153.553 30.56C153.22 30.7867 152.966 31.0933 152.793 31.48C152.633 31.8667 152.553 32.32 152.553 32.84V32.9Z" fill="#00176A"/>
<defs>
<linearGradient id="paint0_linear_45_132012" x1="24.5" y1="0" x2="24.5" y2="48" gradientUnits="userSpaceOnUse">
<stop stop-color="#17C9FB"/>
<stop offset="1" stop-color="#1A74E8"/>
</linearGradient>
<clipPath id="clip0_45_132012">
<rect width="48" height="48" fill="white" transform="translate(0.5)"/>
</clipPath>
</defs>
</svg>
