<svg width="16" height="16" viewBox="0 0 16 16" fill="none" xmlns="http://www.w3.org/2000/svg">
<path fill-rule="evenodd" clip-rule="evenodd" d="M8.00043 11.5556C8.98227 11.5556 9.77821 12.3515 9.77821 13.3334C9.77821 14.3152 8.98227 15.1111 8.00043 15.1111C7.01859 15.1111 6.22266 14.3152 6.22266 13.3334C6.22266 12.3515 7.01859 11.5556 8.00043 11.5556ZM8.00043 6.22225C8.98227 6.22225 9.77821 7.01819 9.77821 8.00003C9.77821 8.98187 8.98227 9.7778 8.00043 9.7778C7.01859 9.7778 6.22266 8.98187 6.22266 8.00003C6.22266 7.01819 7.01859 6.22225 8.00043 6.22225ZM8.00043 0.888916C8.98227 0.888916 9.77821 1.68485 9.77821 2.66669C9.77821 3.64853 8.98227 4.44447 8.00043 4.44447C7.01859 4.44447 6.22266 3.64853 6.22266 2.66669C6.22266 1.68485 7.01859 0.888916 8.00043 0.888916Z" fill="#1A64F0"/>
<mask id="mask0_2461_101064" style="mask-type:luminance" maskUnits="userSpaceOnUse" x="6" y="0" width="4" height="16">
<path fill-rule="evenodd" clip-rule="evenodd" d="M8.00043 11.5556C8.98227 11.5556 9.77821 12.3515 9.77821 13.3334C9.77821 14.3152 8.98227 15.1111 8.00043 15.1111C7.01859 15.1111 6.22266 14.3152 6.22266 13.3334C6.22266 12.3515 7.01859 11.5556 8.00043 11.5556ZM8.00043 6.22225C8.98227 6.22225 9.77821 7.01819 9.77821 8.00003C9.77821 8.98187 8.98227 9.7778 8.00043 9.7778C7.01859 9.7778 6.22266 8.98187 6.22266 8.00003C6.22266 7.01819 7.01859 6.22225 8.00043 6.22225ZM8.00043 0.888916C8.98227 0.888916 9.77821 1.68485 9.77821 2.66669C9.77821 3.64853 8.98227 4.44447 8.00043 4.44447C7.01859 4.44447 6.22266 3.64853 6.22266 2.66669C6.22266 1.68485 7.01859 0.888916 8.00043 0.888916Z" fill="white"/>
</mask>
<g mask="url(#mask0_2461_101064)">
</g>
</svg>
