<svg width="177" height="48" viewBox="0 0 177 48" fill="none" xmlns="http://www.w3.org/2000/svg">
<g clip-path="url(#clip0_45_132013)">
<path d="M26.4297 23.0442L3.21362 46.2603C2.10381 45.2104 1.50391 43.7707 1.50391 42.2109V5.79705C1.50391 4.20732 2.1338 2.76756 3.27361 1.68774L26.4297 23.0442Z" fill="#2196F3"/>
<path d="M46.4963 24.004C46.4963 26.1036 45.3565 27.9633 43.4668 29.0132L36.8679 32.6725L28.6793 25.1138L26.4297 23.0442L35.0982 14.3756L43.4668 18.9948C45.3565 20.0447 46.4963 21.9043 46.4963 24.004Z" fill="#FFC107"/>
<path d="M26.4295 23.0442L3.27344 1.68782C3.57339 1.38788 3.96332 1.11792 4.35326 0.877961C6.24294 -0.261848 8.52256 -0.291843 10.4722 0.787976L35.0981 14.3757L26.4295 23.0442Z" fill="#4CAF50"/>
<path d="M36.8677 32.6726L10.4722 47.2201C9.54232 47.76 8.49249 48 7.47266 48C6.39284 48 5.31303 47.73 4.35319 47.1301C3.93326 46.8902 3.54332 46.5902 3.21338 46.2603L26.4295 23.0442L28.6791 25.1138L36.8677 32.6726Z" fill="#F44336"/>
</g>
<path d="M70.733 7H69.8523C69.8002 6.74669 69.709 6.52415 69.5788 6.33239C69.451 6.14062 69.2947 5.97964 69.1101 5.84943C68.9278 5.71686 68.7254 5.61742 68.5028 5.55114C68.2803 5.48485 68.0483 5.4517 67.8068 5.4517C67.3665 5.4517 66.9676 5.56297 66.6101 5.78551C66.255 6.00805 65.9721 6.33594 65.7614 6.76918C65.553 7.20241 65.4489 7.7339 65.4489 8.36364C65.4489 8.99337 65.553 9.52486 65.7614 9.9581C65.9721 10.3913 66.255 10.7192 66.6101 10.9418C66.9676 11.1643 67.3665 11.2756 67.8068 11.2756C68.0483 11.2756 68.2803 11.2424 68.5028 11.1761C68.7254 11.1098 68.9278 11.0116 69.1101 10.8814C69.2947 10.7488 69.451 10.5866 69.5788 10.3949C69.709 10.2008 69.8002 9.97822 69.8523 9.72727H70.733C70.6667 10.099 70.5459 10.4316 70.3707 10.7251C70.1955 11.0187 69.9777 11.2685 69.7173 11.4744C69.4569 11.678 69.1645 11.8331 68.8402 11.9396C68.5182 12.0462 68.1738 12.0994 67.8068 12.0994C67.1866 12.0994 66.6349 11.9479 66.152 11.6449C65.669 11.3419 65.2891 10.911 65.0121 10.3523C64.7351 9.79356 64.5966 9.13068 64.5966 8.36364C64.5966 7.59659 64.7351 6.93371 65.0121 6.375C65.2891 5.81629 65.669 5.38542 66.152 5.08239C66.6349 4.77936 67.1866 4.62784 67.8068 4.62784C68.1738 4.62784 68.5182 4.68111 68.8402 4.78764C69.1645 4.89418 69.4569 5.05043 69.7173 5.25639C69.9777 5.45999 70.1955 5.70857 70.3707 6.00213C70.5459 6.29332 70.6667 6.62595 70.733 7ZM74.2583 12.1136C73.7659 12.1136 73.3339 11.9964 72.9622 11.7621C72.5929 11.5277 72.304 11.1998 72.0957 10.7784C71.8897 10.357 71.7868 9.86458 71.7868 9.30114C71.7868 8.73295 71.8897 8.23698 72.0957 7.81321C72.304 7.38944 72.5929 7.06037 72.9622 6.82599C73.3339 6.59162 73.7659 6.47443 74.2583 6.47443C74.7508 6.47443 75.1816 6.59162 75.551 6.82599C75.9226 7.06037 76.2115 7.38944 76.4174 7.81321C76.6258 8.23698 76.7299 8.73295 76.7299 9.30114C76.7299 9.86458 76.6258 10.357 76.4174 10.7784C76.2115 11.1998 75.9226 11.5277 75.551 11.7621C75.1816 11.9964 74.7508 12.1136 74.2583 12.1136ZM74.2583 11.3608C74.6324 11.3608 74.9402 11.2649 75.1816 11.0732C75.4231 10.8814 75.6019 10.6293 75.7179 10.3168C75.8339 10.0043 75.8919 9.66572 75.8919 9.30114C75.8919 8.93655 75.8339 8.59683 75.7179 8.28196C75.6019 7.96709 75.4231 7.71259 75.1816 7.51847C74.9402 7.32434 74.6324 7.22727 74.2583 7.22727C73.8843 7.22727 73.5765 7.32434 73.335 7.51847C73.0936 7.71259 72.9148 7.96709 72.7988 8.28196C72.6828 8.59683 72.6248 8.93655 72.6248 9.30114C72.6248 9.66572 72.6828 10.0043 72.7988 10.3168C72.9148 10.6293 73.0936 10.8814 73.335 11.0732C73.5765 11.2649 73.8843 11.3608 74.2583 11.3608ZM78.0092 12V6.54545H78.8189V7.39773H78.8899C79.0036 7.10653 79.187 6.88045 79.4403 6.71946C79.6937 6.55611 79.9979 6.47443 80.353 6.47443C80.7128 6.47443 81.0123 6.55611 81.2514 6.71946C81.4929 6.88045 81.6811 7.10653 81.8161 7.39773H81.8729C82.0125 7.116 82.2221 6.89228 82.5014 6.72656C82.7808 6.55848 83.1158 6.47443 83.5064 6.47443C83.9941 6.47443 84.393 6.62713 84.7031 6.93253C85.0133 7.23556 85.1683 7.70786 85.1683 8.34943V12H84.3303V8.34943C84.3303 7.94697 84.2202 7.65933 84 7.48651C83.7798 7.31368 83.5206 7.22727 83.2223 7.22727C82.8388 7.22727 82.5417 7.34328 82.331 7.57528C82.1203 7.80492 82.0149 8.09612 82.0149 8.44886V12H81.1626V8.2642C81.1626 7.95407 81.062 7.70431 80.8608 7.51491C80.6596 7.32315 80.4003 7.22727 80.0831 7.22727C79.8653 7.22727 79.6617 7.28527 79.4723 7.40128C79.2853 7.51728 79.1338 7.67827 79.0178 7.88423C78.9041 8.08783 78.8473 8.32339 78.8473 8.59091V12H78.0092ZM86.7006 12V6.54545H87.5387V12H86.7006ZM87.1268 5.63636C86.9634 5.63636 86.8226 5.58073 86.7042 5.46946C86.5882 5.35819 86.5302 5.22443 86.5302 5.06818C86.5302 4.91193 86.5882 4.77817 86.7042 4.6669C86.8226 4.55563 86.9634 4.5 87.1268 4.5C87.2901 4.5 87.4298 4.55563 87.5458 4.6669C87.6642 4.77817 87.7234 4.91193 87.7234 5.06818C87.7234 5.22443 87.6642 5.35819 87.5458 5.46946C87.4298 5.58073 87.2901 5.63636 87.1268 5.63636ZM89.9118 8.71875V12H89.0737V6.54545H89.8833V7.39773H89.9544C90.0822 7.12074 90.2763 6.8982 90.5368 6.73011C90.7972 6.55966 91.1333 6.47443 91.5453 6.47443C91.9146 6.47443 92.2377 6.55019 92.5147 6.7017C92.7917 6.85085 93.0072 7.07812 93.161 7.38352C93.3149 7.68655 93.3919 8.07008 93.3919 8.53409V12H92.5538V8.59091C92.5538 8.16241 92.4425 7.8286 92.22 7.58949C91.9975 7.34801 91.6921 7.22727 91.3038 7.22727C91.0363 7.22727 90.7972 7.28527 90.5865 7.40128C90.3781 7.51728 90.2136 7.68655 90.0929 7.90909C89.9721 8.13163 89.9118 8.40152 89.9118 8.71875ZM97.125 14.1591C96.7202 14.1591 96.3722 14.107 96.081 14.0028C95.7898 13.901 95.5471 13.7661 95.353 13.598C95.1612 13.4323 95.0085 13.2547 94.8949 13.0653L95.5625 12.5966C95.6383 12.696 95.7341 12.8097 95.8501 12.9375C95.9661 13.0677 96.1248 13.1802 96.326 13.2749C96.5296 13.3719 96.7959 13.4205 97.125 13.4205C97.5653 13.4205 97.9287 13.3139 98.2152 13.1009C98.5017 12.8878 98.6449 12.554 98.6449 12.0994V10.9915H98.5739C98.5123 11.0909 98.4247 11.214 98.3111 11.3608C98.1998 11.5052 98.0388 11.6342 97.8281 11.7479C97.6198 11.8591 97.3381 11.9148 96.983 11.9148C96.5426 11.9148 96.1473 11.8106 95.7969 11.6023C95.4489 11.3939 95.1731 11.0909 94.9695 10.6932C94.7682 10.2955 94.6676 9.8125 94.6676 9.24432C94.6676 8.68561 94.7659 8.1991 94.9624 7.7848C95.1589 7.36813 95.4323 7.04616 95.7827 6.81889C96.133 6.58925 96.5379 6.47443 96.9972 6.47443C97.3523 6.47443 97.634 6.53362 97.8423 6.65199C98.053 6.76799 98.214 6.90057 98.3253 7.04972C98.4389 7.1965 98.5265 7.31723 98.5881 7.41193H98.6733V6.54545H99.483V12.1562C99.483 12.625 99.3764 13.0062 99.1634 13.2997C98.9527 13.5956 98.6686 13.8123 98.3111 13.9496C97.956 14.0893 97.5606 14.1591 97.125 14.1591ZM97.0966 11.1619C97.4328 11.1619 97.7169 11.085 97.9489 10.9311C98.1809 10.7772 98.3572 10.5559 98.478 10.267C98.5987 9.97822 98.6591 9.63258 98.6591 9.23011C98.6591 8.83712 98.5999 8.49029 98.4815 8.18963C98.3632 7.88897 98.188 7.65341 97.956 7.48295C97.724 7.3125 97.4375 7.22727 97.0966 7.22727C96.7415 7.22727 96.4455 7.31723 96.2088 7.49716C95.9744 7.67708 95.7981 7.91856 95.6797 8.22159C95.5637 8.52462 95.5057 8.8608 95.5057 9.23011C95.5057 9.6089 95.5649 9.94389 95.6832 10.2351C95.804 10.5239 95.9815 10.7512 96.2159 10.9169C96.4527 11.0803 96.7462 11.1619 97.0966 11.1619ZM107.693 7.76705L106.94 7.98011C106.893 7.85464 106.823 7.73272 106.731 7.61435C106.641 7.49361 106.518 7.39418 106.362 7.31605C106.205 7.23793 106.005 7.19886 105.761 7.19886C105.428 7.19886 105.149 7.2758 104.927 7.42969C104.707 7.5812 104.597 7.77415 104.597 8.00852C104.597 8.21686 104.672 8.38139 104.824 8.50213C104.975 8.62287 105.212 8.72348 105.534 8.80398L106.344 9.00284C106.831 9.12121 107.195 9.30232 107.434 9.54616C107.673 9.78764 107.793 10.099 107.793 10.4801C107.793 10.7926 107.703 11.072 107.523 11.3182C107.345 11.5644 107.097 11.7585 106.777 11.9006C106.457 12.0426 106.086 12.1136 105.662 12.1136C105.106 12.1136 104.645 11.9929 104.281 11.7514C103.916 11.5099 103.685 11.1572 103.588 10.6932L104.384 10.4943C104.459 10.7879 104.603 11.008 104.813 11.1548C105.026 11.3016 105.304 11.375 105.648 11.375C106.038 11.375 106.348 11.2921 106.578 11.1264C106.81 10.9583 106.926 10.7571 106.926 10.5227C106.926 10.3333 106.86 10.1747 106.727 10.0469C106.595 9.91667 106.391 9.8196 106.116 9.75568L105.207 9.54261C104.708 9.42424 104.341 9.24077 104.107 8.99219C103.875 8.74124 103.759 8.42756 103.759 8.05114C103.759 7.74337 103.845 7.47112 104.018 7.23438C104.193 6.99763 104.431 6.81179 104.732 6.67685C105.035 6.5419 105.378 6.47443 105.761 6.47443C106.301 6.47443 106.725 6.5928 107.033 6.82955C107.343 7.06629 107.563 7.37879 107.693 7.76705ZM111.27 12.1136C110.778 12.1136 110.346 11.9964 109.974 11.7621C109.605 11.5277 109.316 11.1998 109.107 10.7784C108.901 10.357 108.798 9.86458 108.798 9.30114C108.798 8.73295 108.901 8.23698 109.107 7.81321C109.316 7.38944 109.605 7.06037 109.974 6.82599C110.346 6.59162 110.778 6.47443 111.27 6.47443C111.762 6.47443 112.193 6.59162 112.563 6.82599C112.934 7.06037 113.223 7.38944 113.429 7.81321C113.637 8.23698 113.742 8.73295 113.742 9.30114C113.742 9.86458 113.637 10.357 113.429 10.7784C113.223 11.1998 112.934 11.5277 112.563 11.7621C112.193 11.9964 111.762 12.1136 111.27 12.1136ZM111.27 11.3608C111.644 11.3608 111.952 11.2649 112.193 11.0732C112.435 10.8814 112.614 10.6293 112.73 10.3168C112.846 10.0043 112.904 9.66572 112.904 9.30114C112.904 8.93655 112.846 8.59683 112.73 8.28196C112.614 7.96709 112.435 7.71259 112.193 7.51847C111.952 7.32434 111.644 7.22727 111.27 7.22727C110.896 7.22727 110.588 7.32434 110.347 7.51847C110.105 7.71259 109.927 7.96709 109.811 8.28196C109.695 8.59683 109.637 8.93655 109.637 9.30114C109.637 9.66572 109.695 10.0043 109.811 10.3168C109.927 10.6293 110.105 10.8814 110.347 11.0732C110.588 11.2649 110.896 11.3608 111.27 11.3608ZM117.237 12.1136C116.744 12.1136 116.312 11.9964 115.941 11.7621C115.571 11.5277 115.283 11.1998 115.074 10.7784C114.868 10.357 114.765 9.86458 114.765 9.30114C114.765 8.73295 114.868 8.23698 115.074 7.81321C115.283 7.38944 115.571 7.06037 115.941 6.82599C116.312 6.59162 116.744 6.47443 117.237 6.47443C117.729 6.47443 118.16 6.59162 118.529 6.82599C118.901 7.06037 119.19 7.38944 119.396 7.81321C119.604 8.23698 119.708 8.73295 119.708 9.30114C119.708 9.86458 119.604 10.357 119.396 10.7784C119.19 11.1998 118.901 11.5277 118.529 11.7621C118.16 11.9964 117.729 12.1136 117.237 12.1136ZM117.237 11.3608C117.611 11.3608 117.919 11.2649 118.16 11.0732C118.402 10.8814 118.58 10.6293 118.696 10.3168C118.812 10.0043 118.87 9.66572 118.87 9.30114C118.87 8.93655 118.812 8.59683 118.696 8.28196C118.58 7.96709 118.402 7.71259 118.16 7.51847C117.919 7.32434 117.611 7.22727 117.237 7.22727C116.863 7.22727 116.555 7.32434 116.314 7.51847C116.072 7.71259 115.893 7.96709 115.777 8.28196C115.661 8.59683 115.603 8.93655 115.603 9.30114C115.603 9.66572 115.661 10.0043 115.777 10.3168C115.893 10.6293 116.072 10.8814 116.314 11.0732C116.555 11.2649 116.863 11.3608 117.237 11.3608ZM121.826 8.71875V12H120.988V6.54545H121.797V7.39773H121.868C121.996 7.12074 122.19 6.8982 122.451 6.73011C122.711 6.55966 123.047 6.47443 123.459 6.47443C123.829 6.47443 124.152 6.55019 124.429 6.7017C124.706 6.85085 124.921 7.07812 125.075 7.38352C125.229 7.68655 125.306 8.07008 125.306 8.53409V12H124.468V8.59091C124.468 8.16241 124.357 7.8286 124.134 7.58949C123.912 7.34801 123.606 7.22727 123.218 7.22727C122.95 7.22727 122.711 7.28527 122.501 7.40128C122.292 7.51728 122.128 7.68655 122.007 7.90909C121.886 8.13163 121.826 8.40152 121.826 8.71875ZM131.866 12.1136C131.373 12.1136 130.941 11.9964 130.57 11.7621C130.2 11.5277 129.911 11.1998 129.703 10.7784C129.497 10.357 129.394 9.86458 129.394 9.30114C129.394 8.73295 129.497 8.23698 129.703 7.81321C129.911 7.38944 130.2 7.06037 130.57 6.82599C130.941 6.59162 131.373 6.47443 131.866 6.47443C132.358 6.47443 132.789 6.59162 133.158 6.82599C133.53 7.06037 133.819 7.38944 134.025 7.81321C134.233 8.23698 134.337 8.73295 134.337 9.30114C134.337 9.86458 134.233 10.357 134.025 10.7784C133.819 11.1998 133.53 11.5277 133.158 11.7621C132.789 11.9964 132.358 12.1136 131.866 12.1136ZM131.866 11.3608C132.24 11.3608 132.548 11.2649 132.789 11.0732C133.031 10.8814 133.209 10.6293 133.325 10.3168C133.441 10.0043 133.499 9.66572 133.499 9.30114C133.499 8.93655 133.441 8.59683 133.325 8.28196C133.209 7.96709 133.031 7.71259 132.789 7.51847C132.548 7.32434 132.24 7.22727 131.866 7.22727C131.492 7.22727 131.184 7.32434 130.942 7.51847C130.701 7.71259 130.522 7.96709 130.406 8.28196C130.29 8.59683 130.232 8.93655 130.232 9.30114C130.232 9.66572 130.29 10.0043 130.406 10.3168C130.522 10.6293 130.701 10.8814 130.942 11.0732C131.184 11.2649 131.492 11.3608 131.866 11.3608ZM136.455 8.71875V12H135.617V6.54545H136.426V7.39773H136.497C136.625 7.12074 136.819 6.8982 137.08 6.73011C137.34 6.55966 137.676 6.47443 138.088 6.47443C138.458 6.47443 138.781 6.55019 139.058 6.7017C139.335 6.85085 139.55 7.07812 139.704 7.38352C139.858 7.68655 139.935 8.07008 139.935 8.53409V12H139.097V8.59091C139.097 8.16241 138.985 7.8286 138.763 7.58949C138.54 7.34801 138.235 7.22727 137.847 7.22727C137.579 7.22727 137.34 7.28527 137.129 7.40128C136.921 7.51728 136.757 7.68655 136.636 7.90909C136.515 8.13163 136.455 8.40152 136.455 8.71875Z" fill="#00176A"/>
<path d="M71 39.2C69.7733 39.2 68.7267 38.9867 67.86 38.56C67.0067 38.1333 66.34 37.52 65.86 36.72C65.3933 35.9067 65.14 34.94 65.1 33.82C65.0867 33.2467 65.08 32.6333 65.08 31.98C65.08 31.3133 65.0867 30.6867 65.1 30.1C65.14 28.9933 65.3933 28.0467 65.86 27.26C66.34 26.4733 67.0133 25.8667 67.88 25.44C68.76 25.0133 69.8 24.8 71 24.8C71.9733 24.8 72.8267 24.9333 73.56 25.2C74.2933 25.4533 74.9 25.7867 75.38 26.2C75.8733 26.6 76.24 27.0333 76.48 27.5C76.7333 27.9667 76.8667 28.4 76.88 28.8C76.8933 28.92 76.86 29.02 76.78 29.1C76.7 29.18 76.5933 29.22 76.46 29.22H74.4C74.2667 29.22 74.1667 29.1933 74.1 29.14C74.0333 29.0867 73.9733 29.0067 73.92 28.9C73.8133 28.62 73.6467 28.3467 73.42 28.08C73.1933 27.8 72.8867 27.5667 72.5 27.38C72.1133 27.1933 71.6133 27.1 71 27.1C70.0933 27.1 69.3667 27.34 68.82 27.82C68.2867 28.3 68 29.0933 67.96 30.2C67.92 31.36 67.92 32.5333 67.96 33.72C68 34.8533 68.2933 35.6667 68.84 36.16C69.4 36.6533 70.1333 36.9 71.04 36.9C71.64 36.9 72.1733 36.7933 72.64 36.58C73.12 36.3667 73.4933 36.0333 73.76 35.58C74.04 35.1267 74.18 34.5467 74.18 33.84V33.22H71.74C71.6067 33.22 71.4933 33.1733 71.4 33.08C71.3067 32.9867 71.26 32.8667 71.26 32.72V31.66C71.26 31.5133 71.3067 31.3933 71.4 31.3C71.4933 31.2067 71.6067 31.16 71.74 31.16H76.52C76.6667 31.16 76.78 31.2067 76.86 31.3C76.9533 31.3933 77 31.5133 77 31.66V33.76C77 34.88 76.7533 35.8467 76.26 36.66C75.78 37.4733 75.0867 38.1 74.18 38.54C73.2867 38.98 72.2267 39.2 71 39.2ZM83.9239 39.2C82.8572 39.2 81.9572 39.0133 81.2239 38.64C80.5039 38.2667 79.9506 37.74 79.5639 37.06C79.1906 36.38 78.9772 35.5867 78.9239 34.68C78.9106 34.44 78.9039 34.1467 78.9039 33.8C78.9039 33.4533 78.9106 33.16 78.9239 32.92C78.9772 32 79.1972 31.2067 79.5839 30.54C79.9839 29.86 80.5439 29.3333 81.2639 28.96C81.9972 28.5867 82.8839 28.4 83.9239 28.4C84.9639 28.4 85.8439 28.5867 86.5639 28.96C87.2972 29.3333 87.8572 29.86 88.2439 30.54C88.6439 31.2067 88.8706 32 88.9239 32.92C88.9372 33.16 88.9439 33.4533 88.9439 33.8C88.9439 34.1467 88.9372 34.44 88.9239 34.68C88.8706 35.5867 88.6506 36.38 88.2639 37.06C87.8906 37.74 87.3372 38.2667 86.6039 38.64C85.8839 39.0133 84.9906 39.2 83.9239 39.2ZM83.9239 37.22C84.6306 37.22 85.1772 37 85.5639 36.56C85.9506 36.1067 86.1639 35.4467 86.2039 34.58C86.2172 34.38 86.2239 34.12 86.2239 33.8C86.2239 33.48 86.2172 33.22 86.2039 33.02C86.1639 32.1667 85.9506 31.5133 85.5639 31.06C85.1772 30.6067 84.6306 30.38 83.9239 30.38C83.2172 30.38 82.6706 30.6067 82.2839 31.06C81.8972 31.5133 81.6839 32.1667 81.6439 33.02C81.6306 33.22 81.6239 33.48 81.6239 33.8C81.6239 34.12 81.6306 34.38 81.6439 34.58C81.6839 35.4467 81.8972 36.1067 82.2839 36.56C82.6706 37 83.2172 37.22 83.9239 37.22ZM95.7598 39.2C94.6932 39.2 93.7932 39.0133 93.0598 38.64C92.3398 38.2667 91.7865 37.74 91.3998 37.06C91.0265 36.38 90.8132 35.5867 90.7598 34.68C90.7465 34.44 90.7398 34.1467 90.7398 33.8C90.7398 33.4533 90.7465 33.16 90.7598 32.92C90.8132 32 91.0332 31.2067 91.4198 30.54C91.8198 29.86 92.3798 29.3333 93.0998 28.96C93.8332 28.5867 94.7198 28.4 95.7598 28.4C96.7998 28.4 97.6798 28.5867 98.3998 28.96C99.1332 29.3333 99.6932 29.86 100.08 30.54C100.48 31.2067 100.707 32 100.76 32.92C100.773 33.16 100.78 33.4533 100.78 33.8C100.78 34.1467 100.773 34.44 100.76 34.68C100.707 35.5867 100.487 36.38 100.1 37.06C99.7265 37.74 99.1732 38.2667 98.4398 38.64C97.7198 39.0133 96.8265 39.2 95.7598 39.2ZM95.7598 37.22C96.4665 37.22 97.0132 37 97.3998 36.56C97.7865 36.1067 97.9998 35.4467 98.0398 34.58C98.0532 34.38 98.0598 34.12 98.0598 33.8C98.0598 33.48 98.0532 33.22 98.0398 33.02C97.9998 32.1667 97.7865 31.5133 97.3998 31.06C97.0132 30.6067 96.4665 30.38 95.7598 30.38C95.0532 30.38 94.5065 30.6067 94.1198 31.06C93.7332 31.5133 93.5198 32.1667 93.4798 33.02C93.4665 33.22 93.4598 33.48 93.4598 33.8C93.4598 34.12 93.4665 34.38 93.4798 34.58C93.5198 35.4467 93.7332 36.1067 94.1198 36.56C94.5065 37 95.0532 37.22 95.7598 37.22ZM107.696 43.4C106.722 43.4 105.922 43.2733 105.296 43.02C104.669 42.7667 104.176 42.46 103.816 42.1C103.456 41.74 103.196 41.38 103.036 41.02C102.889 40.6733 102.809 40.4 102.796 40.2C102.782 40.0667 102.822 39.9467 102.916 39.84C103.022 39.7467 103.142 39.7 103.276 39.7H105.016C105.149 39.7 105.256 39.7267 105.336 39.78C105.416 39.8467 105.482 39.96 105.536 40.12C105.616 40.2933 105.722 40.48 105.856 40.68C105.989 40.88 106.189 41.0467 106.456 41.18C106.736 41.3267 107.116 41.4 107.596 41.4C108.102 41.4 108.529 41.3267 108.876 41.18C109.222 41.0333 109.482 40.7867 109.656 40.44C109.842 40.0933 109.936 39.6133 109.936 39V37.64C109.616 38.0267 109.202 38.34 108.696 38.58C108.202 38.82 107.589 38.94 106.856 38.94C106.136 38.94 105.516 38.8267 104.996 38.6C104.476 38.36 104.042 38.0333 103.696 37.62C103.349 37.1933 103.082 36.6933 102.896 36.12C102.722 35.5467 102.622 34.9133 102.596 34.22C102.582 33.86 102.582 33.5 102.596 33.14C102.622 32.4733 102.722 31.8533 102.896 31.28C103.069 30.7067 103.329 30.2067 103.676 29.78C104.036 29.34 104.476 29 104.996 28.76C105.516 28.52 106.136 28.4 106.856 28.4C107.616 28.4 108.256 28.5467 108.776 28.84C109.296 29.12 109.722 29.4733 110.056 29.9V29.1C110.056 28.9533 110.102 28.8333 110.196 28.74C110.289 28.6467 110.402 28.6 110.536 28.6H112.156C112.289 28.6 112.402 28.6467 112.496 28.74C112.589 28.8333 112.636 28.9533 112.636 29.1L112.656 38.74C112.656 39.7 112.476 40.5267 112.116 41.22C111.756 41.9133 111.209 42.4467 110.476 42.82C109.756 43.2067 108.829 43.4 107.696 43.4ZM107.596 36.82C108.142 36.82 108.582 36.7 108.916 36.46C109.249 36.22 109.496 35.9067 109.656 35.52C109.816 35.1333 109.909 34.74 109.936 34.34C109.949 34.1667 109.956 33.9467 109.956 33.68C109.956 33.4133 109.949 33.2 109.936 33.04C109.909 32.6267 109.816 32.2333 109.656 31.86C109.496 31.4733 109.249 31.16 108.916 30.92C108.582 30.6667 108.142 30.54 107.596 30.54C107.049 30.54 106.609 30.6667 106.276 30.92C105.942 31.16 105.702 31.48 105.556 31.88C105.422 32.28 105.342 32.72 105.316 33.2C105.289 33.52 105.289 33.8467 105.316 34.18C105.342 34.6467 105.422 35.0867 105.556 35.5C105.702 35.9 105.942 36.22 106.276 36.46C106.609 36.7 107.049 36.82 107.596 36.82ZM115.82 39C115.687 39 115.573 38.9533 115.48 38.86C115.387 38.7667 115.34 38.6533 115.34 38.52V25.28C115.34 25.1467 115.387 25.0333 115.48 24.94C115.573 24.8467 115.687 24.8 115.82 24.8H117.48C117.613 24.8 117.727 24.8467 117.82 24.94C117.913 25.0333 117.96 25.1467 117.96 25.28V38.52C117.96 38.6533 117.913 38.7667 117.82 38.86C117.727 38.9533 117.613 39 117.48 39H115.82ZM125.093 39.2C123.613 39.2 122.44 38.7733 121.573 37.92C120.706 37.0667 120.24 35.8533 120.173 34.28C120.16 34.1467 120.153 33.98 120.153 33.78C120.153 33.5667 120.16 33.4 120.173 33.28C120.226 32.28 120.453 31.4133 120.853 30.68C121.266 29.9467 121.833 29.3867 122.553 29C123.273 28.6 124.12 28.4 125.093 28.4C126.173 28.4 127.08 28.6267 127.813 29.08C128.546 29.52 129.1 30.14 129.473 30.94C129.846 31.7267 130.033 32.64 130.033 33.68V34.1C130.033 34.2333 129.986 34.3467 129.893 34.44C129.8 34.5333 129.68 34.58 129.533 34.58H122.893C122.893 34.58 122.893 34.6 122.893 34.64C122.893 34.68 122.893 34.7133 122.893 34.74C122.906 35.2067 122.993 35.64 123.153 36.04C123.326 36.4267 123.573 36.74 123.893 36.98C124.226 37.22 124.62 37.34 125.073 37.34C125.446 37.34 125.76 37.2867 126.013 37.18C126.266 37.06 126.473 36.9267 126.633 36.78C126.793 36.6333 126.906 36.5133 126.973 36.42C127.093 36.26 127.186 36.1667 127.253 36.14C127.333 36.1 127.446 36.08 127.593 36.08H129.313C129.446 36.08 129.553 36.12 129.633 36.2C129.726 36.28 129.766 36.38 129.753 36.5C129.74 36.7133 129.626 36.9733 129.413 37.28C129.213 37.5867 128.92 37.8867 128.533 38.18C128.146 38.4733 127.66 38.72 127.073 38.92C126.5 39.1067 125.84 39.2 125.093 39.2ZM122.893 32.9H127.313V32.84C127.313 32.32 127.226 31.8667 127.053 31.48C126.88 31.0933 126.626 30.7867 126.293 30.56C125.96 30.3333 125.56 30.22 125.093 30.22C124.626 30.22 124.226 30.3333 123.893 30.56C123.56 30.7867 123.306 31.0933 123.133 31.48C122.973 31.8667 122.893 32.32 122.893 32.84V32.9ZM137.446 39C137.313 39 137.2 38.9533 137.106 38.86C137.013 38.7667 136.966 38.6533 136.966 38.52V25.5C136.966 25.3533 137.013 25.2333 137.106 25.14C137.2 25.0467 137.313 25 137.446 25H142.806C143.846 25 144.753 25.1667 145.526 25.5C146.3 25.82 146.9 26.3133 147.326 26.98C147.753 27.6333 147.966 28.4533 147.966 29.44C147.966 30.44 147.753 31.2667 147.326 31.92C146.9 32.56 146.3 33.04 145.526 33.36C144.753 33.68 143.846 33.84 142.806 33.84H139.826V38.52C139.826 38.6533 139.78 38.7667 139.686 38.86C139.606 38.9533 139.493 39 139.346 39H137.446ZM139.786 31.62H142.706C143.48 31.62 144.073 31.44 144.486 31.08C144.9 30.7067 145.106 30.16 145.106 29.44C145.106 28.7733 144.913 28.24 144.526 27.84C144.14 27.4267 143.533 27.22 142.706 27.22H139.786V31.62ZM150.41 39C150.277 39 150.163 38.9533 150.07 38.86C149.977 38.7667 149.93 38.6533 149.93 38.52V25.28C149.93 25.1467 149.977 25.0333 150.07 24.94C150.163 24.8467 150.277 24.8 150.41 24.8H152.07C152.203 24.8 152.317 24.8467 152.41 24.94C152.503 25.0333 152.55 25.1467 152.55 25.28V38.52C152.55 38.6533 152.503 38.7667 152.41 38.86C152.317 38.9533 152.203 39 152.07 39H150.41ZM158.223 39.2C157.529 39.2 156.903 39.0667 156.343 38.8C155.783 38.52 155.336 38.1533 155.003 37.7C154.683 37.2333 154.523 36.7133 154.523 36.14C154.523 35.2067 154.896 34.4667 155.643 33.92C156.403 33.36 157.403 32.9867 158.643 32.8L161.383 32.4V31.98C161.383 31.42 161.243 30.9867 160.963 30.68C160.683 30.3733 160.203 30.22 159.523 30.22C159.043 30.22 158.649 30.32 158.343 30.52C158.049 30.7067 157.829 30.96 157.683 31.28C157.576 31.4533 157.423 31.54 157.223 31.54H155.643C155.496 31.54 155.383 31.5 155.303 31.42C155.236 31.34 155.203 31.2333 155.203 31.1C155.216 30.8867 155.303 30.6267 155.463 30.32C155.623 30.0133 155.876 29.72 156.223 29.44C156.569 29.1467 157.016 28.9 157.563 28.7C158.109 28.5 158.769 28.4 159.543 28.4C160.383 28.4 161.089 28.5067 161.663 28.72C162.249 28.92 162.716 29.1933 163.063 29.54C163.409 29.8867 163.663 30.2933 163.823 30.76C163.983 31.2267 164.063 31.72 164.063 32.24V38.52C164.063 38.6533 164.016 38.7667 163.923 38.86C163.829 38.9533 163.716 39 163.583 39H161.963C161.816 39 161.696 38.9533 161.603 38.86C161.523 38.7667 161.483 38.6533 161.483 38.52V37.74C161.309 37.9933 161.076 38.2333 160.783 38.46C160.489 38.6733 160.129 38.8533 159.703 39C159.289 39.1333 158.796 39.2 158.223 39.2ZM158.903 37.3C159.369 37.3 159.789 37.2 160.163 37C160.549 36.8 160.849 36.4933 161.063 36.08C161.289 35.6533 161.403 35.12 161.403 34.48V34.06L159.403 34.38C158.616 34.5 158.029 34.6933 157.643 34.96C157.256 35.2267 157.063 35.5533 157.063 35.94C157.063 36.2333 157.149 36.4867 157.323 36.7C157.509 36.9 157.743 37.0533 158.023 37.16C158.303 37.2533 158.596 37.3 158.903 37.3ZM168.235 42.8C168.128 42.8 168.035 42.76 167.955 42.68C167.875 42.6 167.835 42.5067 167.835 42.4C167.835 42.3467 167.835 42.2933 167.835 42.24C167.848 42.2 167.875 42.1467 167.915 42.08L169.475 38.38L165.635 29.32C165.582 29.1867 165.555 29.0933 165.555 29.04C165.568 28.92 165.615 28.82 165.695 28.74C165.775 28.6467 165.875 28.6 165.995 28.6H167.615C167.775 28.6 167.895 28.64 167.975 28.72C168.055 28.8 168.115 28.8867 168.155 28.98L170.815 35.52L173.555 28.98C173.595 28.8733 173.655 28.7867 173.735 28.72C173.815 28.64 173.935 28.6 174.095 28.6H175.695C175.802 28.6 175.895 28.64 175.975 28.72C176.068 28.8 176.115 28.8933 176.115 29C176.115 29.08 176.088 29.1867 176.035 29.32L170.375 42.42C170.322 42.5267 170.255 42.6133 170.175 42.68C170.095 42.76 169.975 42.8 169.815 42.8H168.235Z" fill="#00176A"/>
<defs>
<clipPath id="clip0_45_132013">
<rect width="48" height="48" fill="white"/>
</clipPath>
</defs>
</svg>
