<svg width="16" height="16" viewBox="0 0 16 16" fill="none" xmlns="http://www.w3.org/2000/svg">
<path fill-rule="evenodd" clip-rule="evenodd" d="M8.0027 1.33398C6.04668 1.33398 4.46102 2.92641 4.46102 4.89077C4.46102 6.85512 6.04668 8.44755 8.0027 8.44755C9.95872 8.44755 11.5444 6.85512 11.5444 4.89077C11.5444 2.92641 9.95872 1.33398 8.0027 1.33398ZM8.00262 2.29907C9.42789 2.29907 10.5833 3.4594 10.5833 4.89074C10.5833 6.32208 9.42789 7.48241 8.00262 7.48241C6.57736 7.48241 5.42196 6.32208 5.42196 4.89074C5.42196 3.4594 6.57736 2.29907 8.00262 2.29907ZM6.55345 9.88124C6.03497 9.91723 5.51089 9.99125 4.99395 10.102C3.9962 10.3076 3.19798 10.7182 2.85824 11.4006C2.7301 11.6674 2.66567 11.9532 2.66676 12.2425C2.66638 12.5297 2.73028 12.8158 2.85383 13.0775C3.18004 13.752 3.88528 14.1338 4.83758 14.3454L5.00817 14.381C5.51107 14.4944 6.03531 14.5708 6.56306 14.6067C6.60801 14.6199 6.71513 14.6321 6.83206 14.6381L6.92823 14.6417C6.97768 14.6428 7.0338 14.6431 7.11742 14.6431C7.87598 14.6848 8.66236 14.6727 9.44509 14.6061C9.86221 14.5775 10.2821 14.523 10.6986 14.443L11.0101 14.3784C12.0385 14.1755 12.8085 13.7897 13.1458 13.0783C13.3959 12.5501 13.3959 11.9371 13.1459 11.4091C12.8094 10.6995 12.0492 10.3169 11.0023 10.1012C10.5916 10.0136 10.1742 9.94868 9.75386 9.90724L9.44655 9.88124C8.48404 9.79633 7.51596 9.79633 6.55345 9.88124ZM9.36236 10.8426L9.37082 10.8433C9.85324 10.8772 10.3327 10.945 10.8058 11.0459C11.5834 11.2061 12.1111 11.4717 12.2781 11.8238C12.4038 12.0893 12.4038 12.3978 12.2779 12.6635C12.1219 12.9925 11.648 13.2467 10.963 13.402L10.813 13.4338C10.3306 13.5414 9.85275 13.6108 9.37169 13.6438C8.62528 13.7072 7.88329 13.7187 7.14317 13.6787L6.88076 13.6742C6.80792 13.6705 6.74653 13.6634 6.68964 13.652C6.23914 13.618 5.83376 13.5642 5.44017 13.4862L5.20516 13.4364C4.42513 13.2835 3.89275 13.0168 3.72015 12.6599C3.65975 12.5319 3.62749 12.3875 3.62768 12.2412C3.62714 12.0958 3.65898 11.9546 3.72078 11.8259C3.88861 11.4889 4.45278 11.1987 5.19069 11.0466C5.66714 10.9446 6.1464 10.8769 6.62861 10.8433C7.54401 10.7626 8.4558 10.7626 9.36236 10.8426Z" fill="#2C2C2C"/>
</svg>
