<svg width="32" height="32" viewBox="0 0 32 32" fill="none" xmlns="http://www.w3.org/2000/svg">
<circle cx="16" cy="16" r="16" fill="#3B99FC"/>
<path d="M10.2398 12.3949C13.5134 9.2017 18.8227 9.2017 22.0963 12.3949L22.49 12.7766C22.6557 12.9365 22.6557 13.1945 22.49 13.3544L21.1432 14.6698C21.0604 14.7472 20.9309 14.7472 20.848 14.6698L20.3041 14.1385C18.0198 11.91 14.3163 11.91 12.032 14.1385L11.4519 14.706C11.369 14.7833 11.2395 14.7833 11.1566 14.706L9.80471 13.3957C9.63896 13.2357 9.63896 12.9778 9.80471 12.8179L10.2398 12.3949ZM24.883 15.1135L26.0847 16.2845C26.2505 16.4444 26.2505 16.7023 26.0847 16.8623L20.6719 22.1395C20.5061 22.2995 20.2419 22.2995 20.0814 22.1395L16.2432 18.3944C16.2017 18.3531 16.1344 18.3531 16.093 18.3944L12.2547 22.1395C12.089 22.2995 11.8248 22.2995 11.6642 22.1395L6.25139 16.8623C6.08564 16.7023 6.08564 16.4444 6.25139 16.2845L7.4531 15.1135C7.61885 14.9536 7.88302 14.9536 8.04359 15.1135L11.8818 18.8587C11.9232 18.8999 11.9906 18.8999 12.032 18.8587L15.8702 15.1135C16.036 14.9536 16.3001 14.9536 16.4607 15.1135L20.2989 18.8587C20.3404 18.8999 20.4077 18.8999 20.4491 18.8587L24.2873 15.1135C24.4531 14.9536 24.7173 14.9536 24.883 15.1135Z" fill="white"/>
</svg>
