<svg width="160" height="160" viewBox="0 0 160 160" fill="none" xmlns="http://www.w3.org/2000/svg">
<g clip-path="url(#clip0_1_64271)">
<path d="M27.1387 67.249C27.1387 63.0798 31.5626 60.3981 35.259 62.3266L78.7032 84.9932C80.3124 85.8328 82.2304 85.8328 83.8396 84.9932L127.284 62.3266C130.98 60.3981 135.404 63.0798 135.404 67.249V101.388C135.404 102.821 134.619 104.139 133.359 104.821C96.2524 123.751 62.5024 125.001 29.1834 104.821C27.9235 104.139 27.1387 102.821 27.1387 101.388L27.1387 67.249Z" fill="url(#paint0_linear_1_64271)"/>
<path d="M27.1387 113.987C27.1387 111.365 29.9886 109.737 32.2478 111.067L-nan -nanL32.2478 111.067C62.5007 128.889 100.042 128.889 130.295 111.067L-nan -nanL130.295 111.067C132.554 109.737 135.404 111.365 135.404 113.987V117.464C135.404 118.695 134.763 119.838 133.711 120.479L-nan -nanL133.711 120.479C101.511 140.125 61.0314 140.125 28.8314 120.479L-nan -nanL28.8314 120.479C27.7801 119.838 27.1387 118.695 27.1387 117.464L27.1387 113.987Z" fill="url(#paint1_linear_1_64271)"/>
<path d="M7.70508 67.8065C7.70508 67.0399 8.32652 66.4185 9.0931 66.4185C9.85968 66.4185 10.4811 67.0399 10.4811 67.8065V101.119C10.4811 101.886 9.85968 102.507 9.0931 102.507C8.32652 102.507 7.70508 101.886 7.70508 101.119V67.8065Z" fill="url(#paint2_linear_1_64271)"/>
<path d="M2.15332 114.999C2.15332 111.166 4.63907 108.059 7.7054 108.059H10.4814C13.5478 108.059 16.0335 111.166 16.0335 114.999C16.0335 118.832 13.5478 121.939 10.4814 121.939H7.7054C4.63907 121.939 2.15332 118.832 2.15332 114.999Z" fill="url(#paint3_linear_1_64271)"/>
<path d="M79.7813 14.459C81.4444 13.5468 83.4581 13.5468 85.1212 14.4589L154.812 52.6817C158.542 54.7273 158.68 60.0353 155.062 62.2722L85.3708 105.357C83.5815 106.464 81.3208 106.464 79.5315 105.357L9.84446 62.2721C6.22641 60.0352 6.3646 54.7274 10.0941 52.6818L79.7813 14.459Z" fill="url(#paint4_linear_1_64271)"/>
</g>
<defs>
<linearGradient id="paint0_linear_1_64271" x1="81.2714" y1="61.6895" x2="81.2714" y2="119.872" gradientUnits="userSpaceOnUse">
<stop stop-color="#FFB258"/>
<stop offset="1" stop-color="#6663FF"/>
</linearGradient>
<linearGradient id="paint1_linear_1_64271" x1="81.2714" y1="110.593" x2="81.2714" y2="132.846" gradientUnits="userSpaceOnUse">
<stop stop-color="#7169F4"/>
<stop offset="1" stop-color="#D99F83"/>
</linearGradient>
<linearGradient id="paint2_linear_1_64271" x1="9.0931" y1="66.4185" x2="9.0931" y2="102.744" gradientUnits="userSpaceOnUse">
<stop stop-color="#6663FF"/>
<stop offset="1" stop-color="#FFB258"/>
</linearGradient>
<linearGradient id="paint3_linear_1_64271" x1="9.09342" y1="108.059" x2="9.09342" y2="122.031" gradientUnits="userSpaceOnUse">
<stop stop-color="#6663FF"/>
<stop offset="1" stop-color="#FFB258"/>
</linearGradient>
<linearGradient id="paint4_linear_1_64271" x1="151.385" y1="48.9323" x2="81.2933" y2="119.024" gradientUnits="userSpaceOnUse">
<stop stop-color="#FDCE89"/>
<stop offset="1" stop-color="#94A0FF"/>
</linearGradient>
<clipPath id="clip0_1_64271">
<rect width="160" height="160" fill="white"/>
</clipPath>
</defs>
</svg>
