<svg width="16" height="16" viewBox="0 0 16 16" fill="none" xmlns="http://www.w3.org/2000/svg">
<path d="M14.5275 2.0083H5.48901C4.67713 2.0083 4.0166 2.66883 4.0166 3.48171C4.0166 4.29358 4.67713 4.95411 5.48901 4.95411H14.5275C15.3394 4.95411 15.9999 4.29358 15.9999 3.48171C15.9999 2.6688 15.3394 2.0083 14.5275 2.0083Z" fill="#7D7D7D"/>
<path d="M1.47294 2.0083C0.660781 2.0083 0 2.66905 0 3.48121C0 4.29336 0.660781 4.95411 1.47294 4.95411C2.28509 4.95411 2.94584 4.29336 2.94584 3.48121C2.94584 2.66905 2.28509 2.0083 1.47294 2.0083Z" fill="#7D7D7D"/>
<path d="M1.47294 6.5271C0.660781 6.5271 0 7.18785 0 8.00001C0 8.81216 0.660781 9.47291 1.47294 9.47291C2.28509 9.47291 2.94584 8.81216 2.94584 8.00001C2.94584 7.18785 2.28509 6.5271 1.47294 6.5271Z" fill="#7D7D7D"/>
<path d="M1.47294 11.0459C0.660781 11.0459 0 11.7066 0 12.5188C0 13.331 0.660781 13.9917 1.47294 13.9917C2.28509 13.9917 2.94584 13.331 2.94584 12.5188C2.94584 11.7066 2.28509 11.0459 1.47294 11.0459Z" fill="#7D7D7D"/>
<path d="M14.5275 6.5271H5.48901C4.67713 6.5271 4.0166 7.18763 4.0166 8.00051C4.0166 8.81238 4.67713 9.47291 5.48901 9.47291H14.5275C15.3394 9.47291 15.9999 8.81238 15.9999 8.00051C15.9999 7.1876 15.3394 6.5271 14.5275 6.5271Z" fill="#7D7D7D"/>
<path d="M14.5275 11.0459H5.48901C4.67713 11.0459 4.0166 11.7064 4.0166 12.5193C4.0166 13.3312 4.67713 13.9917 5.48901 13.9917H14.5275C15.3394 13.9917 15.9999 13.3312 15.9999 12.5193C15.9999 11.7064 15.3394 11.0459 14.5275 11.0459Z" fill="#7D7D7D"/>
</svg>
