<svg width="20" height="20" viewBox="0 0 20 20" fill="none" xmlns="http://www.w3.org/2000/svg">
<path d="M9.99991 19.9998C15.5227 19.9998 19.9998 15.5227 19.9998 9.99991C19.9998 4.47711 15.5227 0 9.99991 0C4.47711 0 0 4.47711 0 9.99991C0 15.5227 4.47711 19.9998 9.99991 19.9998Z" fill="#55ACEE"/>
<path d="M16.1248 7.18693C15.6963 7.37695 15.2353 7.50547 14.7519 7.56287C15.2455 7.26714 15.6243 6.79921 15.8031 6.24073C15.3412 6.51472 14.8294 6.71347 14.2852 6.82061C13.8492 6.35624 13.228 6.06604 12.5401 6.06604C11.2202 6.06604 10.1498 7.13648 10.1498 8.4563C10.1498 8.64365 10.171 8.82601 10.212 9.00106C8.2255 8.90141 6.46414 7.94987 5.28514 6.50331C5.07943 6.85626 4.96142 7.26714 4.96142 7.70512C4.96142 8.5342 5.38371 9.26613 6.02473 9.69466C5.6331 9.68236 5.26428 9.57487 4.94217 9.39536C4.94199 9.40552 4.94199 9.41568 4.94199 9.42567C4.94199 10.5838 5.76626 11.5498 6.85951 11.7692C6.65915 11.8241 6.44756 11.8532 6.2299 11.8532C6.07553 11.8532 5.92598 11.8384 5.78016 11.8106C6.08427 12.76 6.96682 13.4511 8.01302 13.4705C7.19481 14.1117 6.16431 14.4937 5.04413 14.4937C4.85161 14.4937 4.66088 14.4825 4.47424 14.4602C5.53149 15.1387 6.78821 15.5342 8.13798 15.5342C12.5345 15.5342 14.9389 11.892 14.9389 8.73313C14.9389 8.62957 14.9366 8.52636 14.9319 8.42404C15.3993 8.08713 15.8045 7.66626 16.1248 7.18693Z" fill="#F1F2F2"/>
</svg>
