<svg width="24" height="24" viewBox="0 0 24 24" fill="none" xmlns="http://www.w3.org/2000/svg">
<path fill-rule="evenodd" clip-rule="evenodd" d="M11.3315 2.02148C13.7107 2.02148 15.6526 3.89542 15.7616 6.24772L15.7665 6.45648V7.38948C15.7665 7.8037 15.4307 8.13948 15.0165 8.13948C14.6368 8.13948 14.323 7.85733 14.2733 7.49125L14.2665 7.38948V6.45648C14.2665 4.89358 13.0444 3.61575 11.5039 3.52647L11.3315 3.52148H6.45646C4.89441 3.52148 3.61671 4.74362 3.52744 6.28406L3.52246 6.45648V17.5865C3.52246 19.1493 4.74436 20.4272 6.28412 20.5165L6.45646 20.5215H11.3415C12.8988 20.5215 14.1725 19.3039 14.2615 17.7693L14.2665 17.5975V16.6545C14.2665 16.2403 14.6022 15.9045 15.0165 15.9045C15.3962 15.9045 15.71 16.1866 15.7596 16.5527L15.7665 16.6545V17.5975C15.7665 19.9687 13.8997 21.9046 11.5558 22.0164L11.3415 22.0215H6.45646C4.07802 22.0215 2.1363 20.1474 2.02729 17.7952L2.02246 17.5865V6.45648C2.02246 4.07743 3.89622 2.13535 6.24777 2.02631L6.45646 2.02148H11.3315ZM22.4104 12.4704L22.4121 12.4685C22.631 12.1744 22.6067 11.7563 22.339 11.4898L19.411 8.57481L19.3267 8.50238C19.0326 8.28518 18.616 8.31032 18.3503 8.57717L18.2779 8.66145C18.0607 8.95555 18.0858 9.37216 18.3527 9.63783L19.9944 11.2715H9.76855L9.66678 11.2783C9.30071 11.328 9.01855 11.6418 9.01855 12.0215C9.01855 12.4357 9.35434 12.7715 9.76855 12.7715H19.9926L18.3526 14.4059L18.2798 14.4899C18.0613 14.783 18.0847 15.1998 18.3504 15.4666C18.6427 15.7601 19.1176 15.761 19.4111 15.4687L22.3391 12.5527L22.3398 12.5519C22.3652 12.5265 22.3888 12.4992 22.4104 12.4704Z" fill="#CCCCCC"/>
</svg>
