<svg width="56" height="56" viewBox="0 0 56 56" fill="none" xmlns="http://www.w3.org/2000/svg">
<path fill-rule="evenodd" clip-rule="evenodd" d="M43.3297 23.7133L34.5507 14.5844L13.4111 34.9139C12.8518 35.4518 12.4374 36.1223 12.2065 36.8632L9.73894 44.7816C9.26635 46.2981 10.6526 47.7397 12.1865 47.3267L20.1951 45.1703C20.9445 44.9685 21.6307 44.5806 22.1901 44.0427L43.3297 23.7133Z" fill="url(#paint0_linear_1_5264)"/>
<path d="M38.9078 10.3943C40.2828 9.07195 42.4694 9.11467 43.7917 10.4897L47.7822 14.6392C49.1045 16.0142 49.0618 18.2008 47.6868 19.5231L43.3298 23.7131L34.5508 14.5842L38.9078 10.3943Z" fill="url(#paint1_linear_1_5264)"/>
<path d="M31.3887 45.9444C31.3887 45.1495 32.033 44.5051 32.8279 44.5051H50.6743C51.4691 44.5051 52.1135 45.1495 52.1135 45.9444C52.1135 46.7392 51.4691 47.3836 50.6743 47.3836H32.8279C32.033 47.3836 31.3887 46.7392 31.3887 45.9444Z" fill="url(#paint2_linear_1_5264)"/>
<defs>
<linearGradient id="paint0_linear_1_5264" x1="29.5551" y1="36.8707" x2="20.8886" y2="27.597" gradientUnits="userSpaceOnUse">
<stop stop-color="#435AD3"/>
<stop offset="1" stop-color="#FFE0B0"/>
</linearGradient>
<linearGradient id="paint1_linear_1_5264" x1="37.6511" y1="12.0391" x2="46.0053" y2="20.6487" gradientUnits="userSpaceOnUse">
<stop stop-color="#FFE0B1"/>
<stop offset="1" stop-color="#6578DB"/>
</linearGradient>
<linearGradient id="paint2_linear_1_5264" x1="57.3399" y1="45.2721" x2="36.6151" y2="45.2721" gradientUnits="userSpaceOnUse">
<stop stop-color="#F6DAB3"/>
<stop offset="1" stop-color="#6578DB"/>
</linearGradient>
</defs>
</svg>
