<svg width="20" height="20" viewBox="0 0 20 20" fill="none" xmlns="http://www.w3.org/2000/svg">
<path fill-rule="evenodd" clip-rule="evenodd" d="M14.3344 0H5.66537C2.26779 0 0.000366211 2.4326 0.000366211 5.916V14.084C0.000366211 17.5707 2.26174 20 5.66537 20H14.3334C17.738 20 20.0004 17.5707 20.0004 14.084V5.916C20.0004 2.4295 17.7381 0 14.3344 0ZM5.66537 1.5H14.3344C16.8849 1.5 18.5004 3.23496 18.5004 5.916V14.084C18.5004 16.7652 16.8847 18.5 14.3334 18.5H5.66537C3.11513 18.5 1.50037 16.7653 1.50037 14.084V5.916C1.50037 3.23837 3.12071 1.5 5.66537 1.5ZM6.84027 7.398C5.40412 7.398 4.23927 8.56372 4.23927 10C4.23927 11.4363 5.40412 12.602 6.84027 12.602C8.01642 12.602 9.01043 11.8211 9.33249 10.75L11.4316 10.7499V11.8515L11.4384 11.9533C11.4881 12.3193 11.8019 12.6015 12.1816 12.6015C12.5958 12.6015 12.9316 12.2657 12.9316 11.8515V10.7498L14.26 10.7498L14.2603 11.852L14.2671 11.9538C14.3168 12.3198 14.6306 12.602 15.0103 12.602C15.4245 12.602 15.7603 12.2662 15.7603 11.852V10L15.7534 9.89823C15.7038 9.53215 15.39 9.25 15.0103 9.25H12.2092C12.2 9.24967 12.1908 9.2495 12.1816 9.2495C12.1723 9.2495 12.1631 9.24967 12.1539 9.25H9.33248C9.01042 8.17884 8.01641 7.398 6.84027 7.398ZM6.84027 8.898C7.44864 8.898 7.94227 9.39181 7.94227 10C7.94227 10.6082 7.44864 11.102 6.84027 11.102C6.2328 11.102 5.73927 10.6081 5.73927 10C5.73927 9.3919 6.2328 8.898 6.84027 8.898Z" fill="white"/>
</svg>
