<svg width="32" height="32" viewBox="0 0 32 32" fill="none" xmlns="http://www.w3.org/2000/svg">
<circle cx="16" cy="16" r="16" fill="#FCE1CE"/>
<path d="M24.3443 8L17.2439 13.1964L18.5349 10.1429L24.3443 8Z" fill="#E17726" stroke="#E17726" stroke-width="0.25" stroke-linecap="round" stroke-linejoin="round"/>
<path d="M8.04565 8L15.0385 13.25L13.8013 10.1429L8.04565 8Z" fill="#E27625" stroke="#E27625" stroke-width="0.25" stroke-linecap="round" stroke-linejoin="round"/>
<path d="M21.8161 20.1069L19.9334 22.9462L23.9677 24.0712L25.0973 20.1605L21.8161 20.1069Z" fill="#E27625" stroke="#E27625" stroke-width="0.25" stroke-linecap="round" stroke-linejoin="round"/>
<path d="M7.29254 20.1605L8.42215 24.0712L12.4565 22.9462L10.5738 20.1069L7.29254 20.1605Z" fill="#E27625" stroke="#E27625" stroke-width="0.25" stroke-linecap="round" stroke-linejoin="round"/>
<path d="M12.2413 15.2324L11.1117 16.8931L15.0922 17.0538L14.9846 12.7681L12.2413 15.2324Z" fill="#E27625" stroke="#E27625" stroke-width="0.25" stroke-linecap="round" stroke-linejoin="round"/>
<path d="M20.1486 15.2324L17.3515 12.7681L17.2439 17.1074L21.2244 16.9466L20.1486 15.2324Z" fill="#E27625" stroke="#E27625" stroke-width="0.25" stroke-linecap="round" stroke-linejoin="round"/>
<path d="M12.4565 22.9464L14.8771 21.7678L12.7792 20.1606L12.4565 22.9464Z" fill="#E27625" stroke="#E27625" stroke-width="0.25" stroke-linecap="round" stroke-linejoin="round"/>
<path d="M17.5128 21.7678L19.9334 22.9464L19.6107 20.1606L17.5128 21.7678Z" fill="#E27625" stroke="#E27625" stroke-width="0.25" stroke-linecap="round" stroke-linejoin="round"/>
<path d="M19.9334 22.9466L17.5128 21.7681L17.728 23.3216V23.9645L19.9334 22.9466Z" fill="#D5BFB2" stroke="#D5BFB2" stroke-width="0.25" stroke-linecap="round" stroke-linejoin="round"/>
<path d="M12.4565 22.9463L14.7157 24.0177V23.3749L14.9309 21.8213L12.4565 22.9463Z" fill="#D5BFB2" stroke="#D5BFB2" stroke-width="0.25" stroke-linecap="round" stroke-linejoin="round"/>
<path d="M14.7157 19.1428L12.7255 18.5535L14.124 17.9106L14.7157 19.1428Z" fill="#233447" stroke="#233447" stroke-width="0.25" stroke-linecap="round" stroke-linejoin="round"/>
<path d="M17.6204 19.1428L18.2121 17.9106L19.6107 18.5535L17.6204 19.1428Z" fill="#233447" stroke="#233447" stroke-width="0.25" stroke-linecap="round" stroke-linejoin="round"/>
<path d="M12.4564 22.9462L12.7792 20.1069L10.5737 20.1605L12.4564 22.9462Z" fill="#CC6228" stroke="#CC6228" stroke-width="0.25" stroke-linecap="round" stroke-linejoin="round"/>
<path d="M19.5569 20.1069L19.8796 22.9462L21.7623 20.1605L19.5569 20.1069Z" fill="#CC6228" stroke="#CC6228" stroke-width="0.25" stroke-linecap="round" stroke-linejoin="round"/>
<path d="M21.2782 16.9463L17.2977 17.107L17.6742 19.1427L18.2659 17.9106L19.6645 18.5534L21.2782 16.9463Z" fill="#CC6228" stroke="#CC6228" stroke-width="0.25" stroke-linecap="round" stroke-linejoin="round"/>
<path d="M12.7254 18.5534L14.124 17.9106L14.7157 19.1427L15.0922 17.107L11.1117 16.9463L12.7254 18.5534Z" fill="#CC6228" stroke="#CC6228" stroke-width="0.25" stroke-linecap="round" stroke-linejoin="round"/>
<path d="M11.1117 16.9463L12.7792 20.2141L12.7254 18.607L11.1117 16.9463Z" fill="#E27525" stroke="#E27525" stroke-width="0.25" stroke-linecap="round" stroke-linejoin="round"/>
<path d="M19.6644 18.5538L19.6107 20.1609L21.2782 16.8931L19.6644 18.5538Z" fill="#E27525" stroke="#E27525" stroke-width="0.25" stroke-linecap="round" stroke-linejoin="round"/>
<path d="M15.0922 17.1069L14.7157 19.1426L15.1998 21.5534L15.3074 18.3926L15.0922 17.1069Z" fill="#E27525" stroke="#E27525" stroke-width="0.25" stroke-linecap="round" stroke-linejoin="round"/>
<path d="M17.2439 17.1069L17.0287 18.3926L17.1363 21.5534L17.6204 19.1426L17.2439 17.1069Z" fill="#E27525" stroke="#E27525" stroke-width="0.25" stroke-linecap="round" stroke-linejoin="round"/>
<path d="M17.6204 19.143L17.1363 21.5537L17.459 21.768L19.5569 20.1609L19.6107 18.5537L17.6204 19.143Z" fill="#F5841F" stroke="#F5841F" stroke-width="0.25" stroke-linecap="round" stroke-linejoin="round"/>
<path d="M12.7255 18.5537L12.7793 20.1609L14.8771 21.768L15.1998 21.5537L14.7157 19.143L12.7255 18.5537Z" fill="#F5841F" stroke="#F5841F" stroke-width="0.25" stroke-linecap="round" stroke-linejoin="round"/>
<path d="M17.6742 24.0177V23.3749L17.5128 23.2141H14.8233L14.6619 23.3749V24.0177L12.4565 22.9463L13.2633 23.5891L14.8233 24.6606H17.5666L19.1804 23.5891L19.9334 22.9463L17.6742 24.0177Z" fill="#C0AC9D" stroke="#C0AC9D" stroke-width="0.25" stroke-linecap="round" stroke-linejoin="round"/>
<path d="M17.5128 21.768L17.19 21.5537H15.1998L14.877 21.768L14.6619 23.3216L14.8232 23.1609H17.5128L17.6742 23.3216L17.5128 21.768Z" fill="#161616" stroke="#161616" stroke-width="0.25" stroke-linecap="round" stroke-linejoin="round"/>
<path d="M24.6132 13.5714L25.2049 10.6786L24.2905 8L17.5128 13.0357L20.1486 15.2321L23.8602 16.3036L24.667 15.3393L24.2905 15.125L24.8822 14.5893L24.4519 14.2679L25.0436 13.8393L24.6132 13.5714Z" fill="#763E1A" stroke="#763E1A" stroke-width="0.25" stroke-linecap="round" stroke-linejoin="round"/>
<path d="M7.13116 10.6786L7.72287 13.5714L7.34633 13.8393L7.93803 14.2679L7.5077 14.5893L8.0994 15.125L7.72287 15.3929L8.52973 16.3571L12.2413 15.2857L14.8771 13.0893L8.04561 8L7.13116 10.6786Z" fill="#763E1A" stroke="#763E1A" stroke-width="0.25" stroke-linecap="round" stroke-linejoin="round"/>
<path d="M23.8601 16.3034L20.1486 15.2319L21.2782 16.8926L19.6107 20.1605L21.8161 20.1069H25.0973L23.8601 16.3034Z" fill="#F5841F" stroke="#F5841F" stroke-width="0.25" stroke-linecap="round" stroke-linejoin="round"/>
<path d="M12.2413 15.2319L8.52973 16.3034L7.29254 20.1069H10.5738L12.7792 20.1605L11.1117 16.8926L12.2413 15.2319Z" fill="#F5841F" stroke="#F5841F" stroke-width="0.25" stroke-linecap="round" stroke-linejoin="round"/>
<path d="M17.2439 17.1073L17.4591 13.0359L18.5349 10.1431H13.7475L14.8233 13.0359L15.0385 17.1073L15.1461 18.3931V21.5538H17.1363V18.3931L17.2439 17.1073Z" fill="#F5841F" stroke="#F5841F" stroke-width="0.25" stroke-linecap="round" stroke-linejoin="round"/>
</svg>
