<svg width="30" height="30" viewBox="0 0 30 30" fill="none" xmlns="http://www.w3.org/2000/svg">
<circle cx="15" cy="15" r="15" fill="white"/>
<path fill-rule="evenodd" clip-rule="evenodd" d="M16.8293 21.9513H13.9025C13.3171 21.9513 12.7303 21.1296 12.2385 19.9567L10.2439 21.9513L9.51221 21.2196V18.2927L11.2559 16.5491C11.0781 15.6037 10.9756 14.6759 10.9756 13.9025C10.9756 10.9757 13.1707 7.31714 15.3659 7.31714C17.561 7.31714 19.7561 10.9757 19.7561 13.9025C19.7561 14.6767 19.6537 15.6037 19.4759 16.5491L21.2195 18.2927V21.2196L20.4878 21.9513L18.4932 19.9567C18.0015 21.1296 17.4154 21.9513 16.8293 21.9513ZM15.3659 20.4879H14.1842C14.1376 20.4293 14.0938 20.3685 14.0532 20.3057C13.7993 19.9164 13.5264 19.3069 13.2783 18.562C12.772 17.0415 12.439 15.1867 12.439 13.9025C12.439 11.5625 14.2273 8.78055 15.3659 8.78055C16.5044 8.78055 18.2927 11.5625 18.2927 13.9025C18.2927 15.1867 17.9598 17.0423 17.4534 18.562C17.2046 19.3069 16.9325 19.9157 16.6778 20.3057C16.6374 20.3685 16.5939 20.4293 16.5476 20.4879H15.3659ZM15.3659 14.6342C15.754 14.6342 16.1262 14.48 16.4007 14.2056C16.6751 13.9311 16.8293 13.5589 16.8293 13.1708C16.8293 12.7827 16.6751 12.4105 16.4007 12.136C16.1262 11.8616 15.754 11.7074 15.3659 11.7074C14.9777 11.7074 14.6055 11.8616 14.3311 12.136C14.0566 12.4105 13.9025 12.7827 13.9025 13.1708C13.9025 13.5589 14.0566 13.9311 14.3311 14.2056C14.6055 14.48 14.9777 14.6342 15.3659 14.6342Z" fill="#1A64F0"/>
</svg>
