<svg width="16" height="16" viewBox="0 0 16 16" fill="none" xmlns="http://www.w3.org/2000/svg">
<path fill-rule="evenodd" clip-rule="evenodd" d="M7.55439 1.34766C9.14055 1.34766 10.4352 2.59695 10.5078 4.16515L10.5111 4.30432V4.92632C10.5111 5.20247 10.2872 5.42632 10.0111 5.42632C9.75793 5.42632 9.54873 5.23822 9.51562 4.99417L9.51105 4.92632V4.30432C9.51105 3.26239 8.69638 2.4105 7.66935 2.35098L7.55439 2.34766H4.30439C3.26302 2.34766 2.41122 3.16241 2.35171 4.18937L2.34839 4.30432V11.7243C2.34839 12.7662 3.16299 13.6181 4.18949 13.6777L4.30439 13.681H7.56106C8.5993 13.681 9.44842 12.8693 9.50774 11.8462L9.51105 11.7317V11.103C9.51105 10.8268 9.73491 10.603 10.0111 10.603C10.2642 10.603 10.4734 10.7911 10.5065 11.0351L10.5111 11.103V11.7317C10.5111 13.3125 9.26652 14.603 7.70396 14.6776L7.56106 14.681H4.30439C2.71876 14.681 1.42428 13.4316 1.35161 11.8635L1.34839 11.7243V4.30432C1.34839 2.71829 2.59756 1.42356 4.16526 1.35087L4.30439 1.34766H7.55439ZM14.8933 8.36791C14.9102 8.35097 14.926 8.33283 14.9404 8.31361L14.9415 8.31234C15.0874 8.11628 15.0712 7.83753 14.8927 7.65988L12.9407 5.71654L12.8846 5.66826C12.6885 5.52346 12.4107 5.54021 12.2336 5.71812L12.1853 5.7743C12.0405 5.97037 12.0573 6.24811 12.2352 6.42522L13.3297 7.51432H6.51245L6.4446 7.51889C6.20055 7.552 6.01245 7.76119 6.01245 8.01432C6.01245 8.29047 6.23631 8.51432 6.51245 8.51432H13.3285L12.2351 9.60394L12.1866 9.65992C12.041 9.85536 12.0565 10.1332 12.2337 10.311C12.4286 10.5067 12.7451 10.5074 12.9408 10.3125L14.8928 8.36849L14.8933 8.36791Z" fill="#2C2C2C"/>
</svg>
