<svg width="24" height="24" viewBox="0 0 24 24" fill="none" xmlns="http://www.w3.org/2000/svg">
<path fill-rule="evenodd" clip-rule="evenodd" d="M20.4176 3.71619C20.1247 3.42794 19.6498 3.42794 19.357 3.71619L17.2692 5.77082C15.6564 4.66289 13.8554 4.07543 12 4.07543C9.94315 4.07543 7.94745 4.79542 6.21856 6.14201C4.51054 7.46402 3.08697 9.37061 2.06144 11.7081C1.97974 11.8943 1.97951 12.1054 2.06081 12.2918C2.94641 14.3222 4.13594 16.0255 5.55438 17.2998L3.58295 19.24L3.51033 19.3228C3.29248 19.6117 3.31668 20.0218 3.58295 20.2838C3.87584 20.5721 4.35072 20.5721 4.64361 20.2838L20.4176 4.76002L20.4902 4.67724C20.7081 4.38828 20.6839 3.97823 20.4176 3.71619ZM6.6163 16.2547L8.75418 14.1508C8.32257 13.5256 8.086 12.785 8.086 12.0012C8.086 9.86842 9.83371 8.1473 12 8.1473C12.7921 8.1473 13.5526 8.38176 14.1866 8.80452L16.1891 6.83378C14.8815 5.99054 13.4565 5.55163 12 5.55163C10.2903 5.55163 8.61992 6.15424 7.14764 7.30096C5.73781 8.39217 4.52945 9.96072 3.61706 11.9004L3.5704 12.0014L3.61575 12.1003C4.4087 13.7948 5.43046 15.2038 6.6163 16.2547ZM13.0934 9.88036C12.7618 9.7141 12.3875 9.6235 12 9.6235C10.6624 9.6235 9.586 10.6835 9.586 12.0012C9.586 12.385 9.67669 12.7494 9.84676 13.0755L13.0934 9.88036ZM15.1369 11.8159L15.2382 11.827C15.6459 11.8991 15.917 12.2829 15.8436 12.6841C15.5563 14.2567 14.2994 15.496 12.7025 15.7813C12.2949 15.8541 11.9045 15.588 11.8306 15.1869C11.7566 14.7858 12.027 14.4017 12.4345 14.3289C13.4155 14.1536 14.1907 13.3892 14.3673 12.4228C14.4345 12.055 14.7678 11.8002 15.1369 11.8159ZM18.997 8.31439C19.3279 8.06924 19.7981 8.13452 20.0472 8.46021C20.773 9.40914 21.4073 10.4985 21.9384 11.7072C22.0205 11.894 22.0205 12.1059 21.9386 12.2927C19.8613 17.0289 16.1345 19.9245 12 19.9245C11.0588 19.9245 10.1275 19.7747 9.23057 19.4801C8.83766 19.351 8.62544 18.9329 8.75657 18.5463C8.8877 18.1596 9.31252 17.9507 9.70543 18.0798C10.4497 18.3242 11.2207 18.4483 12 18.4483C15.3046 18.4483 18.381 16.1864 20.2727 12.3298L20.4284 12.0014L20.3755 11.8846C19.9948 11.0784 19.5645 10.339 19.0898 9.67414L18.8488 9.34799C18.5997 9.02231 18.666 8.55955 18.997 8.31439Z" fill="#2C2C2C"/>
</svg>
