<svg width="32" height="32" viewBox="0 0 32 32" fill="none" xmlns="http://www.w3.org/2000/svg">
<circle cx="16" cy="16" r="16" fill="#17161A"/>
<g clip-path="url(#clip0_65_131985)">
<path d="M16 6L10.4718 9.17804L12.5015 10.3531L16 8.35015L19.4985 10.3531L21.5282 9.17804L16 6Z" fill="#F0B90B"/>
<path d="M19.4985 12.0356L21.5282 13.2107V15.5609L18.0297 17.5638V21.5698L16 22.7448L13.9703 21.5698V17.5638L10.4718 15.5609V13.2107L12.5015 12.0356L16 14.0386L19.4985 12.0356Z" fill="#F0B90B"/>
<path d="M21.5282 17.2432V19.5933L19.4985 20.7684V18.4182L21.5282 17.2432Z" fill="#F0B90B"/>
<path d="M19.4718 22.4242L22.9703 20.4212V16.4153L25 15.2402V21.623L19.4718 24.8011V22.4242Z" fill="#F0B90B"/>
<path d="M22.9703 12.3829L20.9407 11.2078L22.9703 10.0327L25 11.2078V13.5579L22.9703 14.733V12.3829Z" fill="#F0B90B"/>
<path d="M13.9703 25.629V23.2788L16 24.4539L18.0297 23.2788V25.629L16 26.804L13.9703 25.629Z" fill="#F0B90B"/>
<path d="M12.5015 20.7684L10.4718 19.5933V17.2432L12.5015 18.4182V20.7684Z" fill="#F0B90B"/>
<path d="M16 12.3829L13.9703 11.2078L16 10.0327L18.0297 11.2078L16 12.3829Z" fill="#F0B90B"/>
<path d="M11.0593 11.2078L9.02967 12.3829V14.733L7 13.5579V11.2078L9.02967 10.0327L11.0593 11.2078Z" fill="#F0B90B"/>
<path d="M7 15.2139L9.02967 16.3889V20.3949L12.5282 22.3978V24.748L7 21.57V15.2139Z" fill="#F0B90B"/>
</g>
<defs>
<clipPath id="clip0_65_131985">
<rect width="18" height="20.8042" fill="white" transform="translate(7 6)"/>
</clipPath>
</defs>
</svg>
