<svg width="24" height="25" viewBox="0 0 24 25" fill="none" xmlns="http://www.w3.org/2000/svg">
<g opacity="0.5">
<path fill-rule="evenodd" clip-rule="evenodd" d="M16.246 15.7597L21.0032 20.7074C21.4057 21.126 21.3924 21.7934 20.9741 22.1959C20.7773 22.3853 20.518 22.4895 20.2446 22.4895C19.9559 22.4895 19.6864 22.3748 19.486 22.1667L14.6927 17.1815C13.3317 18.138 11.7397 18.6418 10.0692 18.6418C5.61937 18.6418 1.99902 15.0215 1.99902 10.5716C1.99902 6.12182 5.61937 2.50146 10.0692 2.50146C14.519 2.50146 18.1394 6.12182 18.1394 10.5716C18.1394 12.4762 17.4692 14.3057 16.246 15.7597ZM16.0335 10.5711C16.0335 7.28194 13.3577 4.60615 10.0686 4.60615C6.7795 4.60615 4.10371 7.28194 4.10371 10.5711C4.10371 13.8602 6.7795 16.536 10.0686 16.536C13.3577 16.536 16.0335 13.8602 16.0335 10.5711Z" fill="#D0D0D0"/>
</g>
</svg>
