<svg width="28" height="28" viewBox="0 0 28 28" fill="none" xmlns="http://www.w3.org/2000/svg">
<circle cx="14" cy="14" r="14" fill="white"/>
<path d="M14.2616 9.7751L19.8775 19.2H21.4816L14.8523 8.07509C14.4779 7.44632 13.5402 7.44632 13.1658 8.07509L6.5332 19.2H8.13726L13.7532 9.7751C13.8665 9.58547 14.1482 9.58547 14.2616 9.7751Z" fill="#1A64F0"/>
<path d="M11.1134 19.1998L13.847 14.5056C13.9162 14.3841 14.0923 14.3841 14.1647 14.5056L16.8983 19.1998H18.3673L14.3094 12.2365C14.1741 12.0058 13.8375 12.0058 13.7054 12.2365L9.64746 19.1998H11.1134Z" fill="#26BEFF"/>
<path d="M14.0443 12.9551L17.488 19.1993H10.6006L14.0443 12.9551Z" fill="#26BEFF"/>
</svg>
