<svg width="100" height="100" viewBox="0 0 100 100" fill="none" xmlns="http://www.w3.org/2000/svg">
<g clip-path="url(#clip0_1_23255)">
<g opacity="0.4">
<path d="M94.0614 24.6981C96.6584 23.1767 96.641 18.2635 94.0225 13.7241C91.404 9.18476 87.1759 6.73821 84.5789 8.2596C81.9818 9.78098 81.9992 14.6942 84.6177 19.2336C87.2363 23.7729 91.4643 26.2195 94.0614 24.6981Z" fill="url(#paint0_linear_1_23255)"/>
</g>
<path opacity="0.4" d="M93.9644 80.7193L49.8797 54.8333C49.5759 54.6126 49.3272 54.3237 49.1534 53.9895C48.9795 53.6552 48.8852 53.2848 48.8779 52.9075V5.87879C48.8779 5.14093 49.3325 4.80849 49.8877 5.13688L93.9725 31.0229C94.279 31.2427 94.5303 31.5317 94.7063 31.8668C94.8823 32.2018 94.9782 32.5737 94.9863 32.9527V79.9815C94.9782 80.7153 94.5236 81.0477 93.9644 80.7193Z" fill="url(#paint1_linear_1_23255)"/>
<path d="M12.3122 20.701L28.6982 11.4331C28.8199 11.3668 28.9564 11.3334 29.0947 11.3358C29.2329 11.3383 29.3682 11.3766 29.4875 11.4471C29.6068 11.5176 29.706 11.6179 29.7756 11.7383C29.8453 11.8587 29.8829 11.9951 29.885 12.1344V45.091C29.8874 45.4188 29.8038 45.7414 29.6427 46.0261C29.4817 46.3109 29.2488 46.5478 28.9677 46.7127L12.5697 56.2685C12.4478 56.3394 12.3094 56.3769 12.1686 56.3771C12.0278 56.3773 11.8894 56.3403 11.7672 56.2697C11.645 56.1991 11.5434 56.0974 11.4724 55.9748C11.4014 55.8523 11.3636 55.7131 11.3628 55.5711V22.3267C11.3621 21.9949 11.4498 21.6689 11.6168 21.3829C11.7839 21.097 12.024 20.8614 12.3122 20.701Z" fill="#8FB3FF" fill-opacity="0.2"/>
<path d="M23.4196 49.9278V29.9893H19.8311V52.0157L23.4196 49.9278Z" fill="url(#paint2_linear_1_23255)"/>
<path d="M92.303 81.5789L48.2223 55.6928C47.9158 55.473 47.6645 55.1841 47.4885 54.849C47.3124 54.514 47.2166 54.1421 47.2085 53.763V6.73432C47.2085 5.99646 47.6631 5.66806 48.2223 5.99645L92.303 31.8825C92.609 32.1019 92.86 32.3902 93.036 32.7245C93.212 33.0588 93.3082 33.4299 93.3168 33.8083V80.837C93.3168 81.5789 92.8622 81.9073 92.303 81.5789Z" fill="#C9DAFF"/>
<path d="M93.3168 37.5259L47.2085 10.4479V6.75043C47.2085 6.01256 47.6631 5.68418 48.2223 6.01257L92.303 31.8986C92.609 32.118 92.86 32.4063 93.036 32.7407C93.212 33.075 93.3082 33.446 93.3168 33.8244V37.5259Z" fill="url(#paint3_linear_1_23255)"/>
<path d="M49.9962 9.57219C49.9962 10.0303 49.7145 10.2371 49.3645 10.0344C49.172 9.89576 49.0145 9.71345 48.9047 9.50217C48.795 9.29088 48.7362 9.05655 48.7329 8.81811C48.7329 8.35998 49.0145 8.15322 49.3645 8.35593C49.5571 8.49453 49.7146 8.67685 49.8243 8.88813C49.934 9.09941 49.9929 9.33374 49.9962 9.57219Z" fill="#FFB637"/>
<path d="M52.712 11.1492C52.712 11.6074 52.4303 11.8141 52.0803 11.6114C51.8878 11.4728 51.7303 11.2905 51.6206 11.0792C51.5108 10.8679 51.452 10.6336 51.4487 10.3952C51.4487 9.93299 51.7303 9.72622 52.0803 9.93299C52.2736 10.0709 52.4316 10.2531 52.5414 10.4645C52.6512 10.6759 52.7097 10.9106 52.712 11.1492Z" fill="#FFB637"/>
<path d="M55.4273 12.7708C55.4273 13.233 55.1457 13.4398 54.7957 13.233C54.6031 13.0944 54.4456 12.9121 54.3359 12.7008C54.2262 12.4895 54.1673 12.2552 54.1641 12.0167C54.1641 11.5546 54.4457 11.3478 54.7957 11.5546C54.9887 11.6927 55.1465 11.8749 55.2563 12.0863C55.3661 12.2977 55.4247 12.5323 55.4273 12.7708Z" fill="#FFB637"/>
<path d="M66.0765 36.9382L49.5819 27.2527C49.3232 27.0691 49.1111 26.8265 48.9629 26.5447C48.8147 26.2629 48.7346 25.9499 48.729 25.631V16.0347C48.729 15.4144 49.1112 15.1347 49.5819 15.4104L66.0765 25.0959C66.3352 25.2795 66.5473 25.5221 66.6955 25.8039C66.8437 26.0856 66.9238 26.3987 66.9293 26.7175V36.3098C66.9293 36.9341 66.5472 37.2139 66.0765 36.9382Z" fill="#B3CBFF"/>
<path d="M87.6842 39.626L69.2264 28.7851C69.015 28.6336 68.8417 28.4345 68.7202 28.2037C68.5986 27.9728 68.5323 27.7165 68.5264 27.4553C68.5264 26.9444 68.8402 26.7174 69.2264 26.9445L87.6842 37.7813C87.8956 37.9334 88.0687 38.1332 88.1895 38.3649C88.3104 38.5965 88.3757 38.8535 88.3802 39.1152C88.3802 39.6219 88.0704 39.853 87.6842 39.626Z" fill="#B3CBFF"/>
<path d="M87.6842 42.9585L69.2264 32.1216C69.0149 31.9693 68.8416 31.7695 68.7201 31.538C68.5986 31.3065 68.5323 31.0496 68.5264 30.7878C68.5264 30.277 68.8402 30.0499 69.2264 30.277L87.6842 41.1139C87.8956 41.2659 88.0687 41.4658 88.1895 41.6974C88.3104 41.929 88.3757 42.186 88.3802 42.4477C88.3802 42.9545 88.0704 43.1774 87.6842 42.9585Z" fill="#B3CBFF"/>
<path d="M87.6842 46.2913L69.2264 35.4747C69.0145 35.3228 68.8408 35.1231 68.7193 34.8915C68.5977 34.6599 68.5316 34.4028 68.5264 34.1408C68.5264 33.63 68.8402 33.403 69.2264 33.63L87.6842 44.4669C87.8956 44.6189 88.0687 44.8188 88.1895 45.0504C88.3104 45.2821 88.3757 45.539 88.3802 45.8007C88.3802 46.2913 88.0704 46.5183 87.6842 46.2913Z" fill="#B3CBFF"/>
<path d="M87.6842 49.6237L69.2264 38.7868C69.0145 38.6349 68.8408 38.4352 68.7193 38.2036C68.5977 37.972 68.5316 37.7149 68.5264 37.453C68.5264 36.9462 68.8402 36.7151 69.2264 36.9421L87.6842 47.7831C87.8953 47.9345 88.0682 48.1336 88.189 48.3646C88.3099 48.5955 88.3754 48.8518 88.3802 49.1128C88.3802 49.6237 88.0704 49.8507 87.6842 49.6237Z" fill="#B3CBFF"/>
<path d="M79.224 70.4581L87.6121 75.384C88.0385 75.6313 88.3804 75.384 88.3804 74.8204V54.1643C88.3753 53.8761 88.3032 53.5932 88.1697 53.3383C88.0362 53.0834 87.8452 52.8636 87.6121 52.6967L79.224 47.7708C78.7975 47.5195 78.4556 47.7708 78.4556 48.3343V69.0108C78.4644 69.2954 78.5383 69.574 78.6716 69.8251C78.8049 70.0762 78.994 70.2928 79.224 70.4581Z" fill="#B3CBFF"/>
<path d="M50.0042 53.3129L74.6535 67.7864C75.3575 68.1919 75.9288 67.7864 75.9288 66.854V47.5114C75.9197 47.0337 75.7996 46.5648 75.5781 46.1424C75.3566 45.7199 75.0399 45.3557 74.6535 45.0789L50.0042 30.6094C49.3002 30.204 48.7329 30.6094 48.7329 31.5419V50.8804C48.7416 51.3578 48.8611 51.8264 49.0819 52.2488C49.3026 52.6713 49.6185 53.0357 50.0042 53.3129Z" fill="#B3CBFF"/>
<path opacity="0.2" d="M69.637 61.8471L43.5676 46.7573C43.3774 46.6223 43.2214 46.444 43.1124 46.2369C43.0033 46.0299 42.9443 45.7998 42.9399 45.5654V41.4828C42.9399 41.0247 43.2216 40.8139 43.5676 41.0125L69.637 56.1023C69.8273 56.2381 69.9832 56.4172 70.0922 56.6249C70.2012 56.8326 70.2603 57.0633 70.2646 57.2982V61.3808C70.2646 61.8268 69.983 62.0498 69.637 61.8471Z" fill="url(#paint4_linear_1_23255)"/>
<path d="M68.2932 62.5851L42.2197 47.4954C42.0301 47.3601 41.8748 47.1817 41.7664 46.9746C41.6581 46.7675 41.5997 46.5375 41.5962 46.3034V42.2209C41.5962 41.7627 41.8738 41.5519 42.2197 41.7506L68.2932 56.8403C68.4823 56.9771 68.6371 57.1564 68.7454 57.364C68.8536 57.5716 68.9123 57.8018 68.9168 58.0363V62.1148C68.9168 62.577 68.6352 62.7878 68.2932 62.5851Z" fill="url(#paint5_linear_1_23255)"/>
<path d="M45.1362 46.3113C45.1362 46.7411 44.8787 46.9357 44.5569 46.7492C44.3808 46.6236 44.2365 46.4579 44.1359 46.2656C44.0352 46.0733 43.9809 45.8598 43.9775 45.6424C43.9775 45.2126 44.235 45.018 44.5569 45.2045C44.733 45.3301 44.8772 45.4958 44.9779 45.6881C45.0786 45.8804 45.1328 46.0939 45.1362 46.3113Z" fill="white"/>
<path d="M48.226 48.0994C48.226 48.5292 47.9685 48.7238 47.6467 48.5373C47.4706 48.4117 47.3263 48.246 47.2257 48.0537C47.125 47.8614 47.0708 47.6479 47.0674 47.4305C47.0674 47.0007 47.3248 46.8061 47.6467 46.9926C47.8228 47.1182 47.9671 47.2839 48.0677 47.4762C48.1684 47.6685 48.2226 47.882 48.226 48.0994Z" fill="white"/>
<path d="M51.316 49.8873C51.316 50.3129 51.0545 50.5116 50.7366 50.3251C50.56 50.1997 50.4152 50.0342 50.3138 49.8419C50.2125 49.6496 50.1575 49.436 50.1533 49.2183C50.1533 48.7886 50.4148 48.594 50.7366 48.7805C50.9121 48.9067 51.0558 49.0726 51.1564 49.2647C51.257 49.4569 51.3116 49.67 51.316 49.8873Z" fill="white"/>
<path d="M54.4058 51.6913C54.4058 52.117 54.1444 52.3156 53.8225 52.1291C53.6465 52.0025 53.5024 51.836 53.4018 51.6431C53.3012 51.4502 53.2469 51.2362 53.2432 51.0183C53.2432 50.5926 53.5047 50.398 53.8225 50.5845C53.9991 50.7099 54.144 50.8754 54.2453 51.0677C54.3467 51.26 54.4017 51.4736 54.4058 51.6913Z" fill="white"/>
<path d="M57.4912 53.463C57.4912 53.8887 57.2337 54.0874 56.9118 53.9009C56.7354 53.7747 56.591 53.6083 56.4903 53.4153C56.3897 53.2223 56.3356 53.0081 56.3325 52.79C56.3325 52.3846 56.59 52.1697 56.9118 52.3562C57.0882 52.4816 57.2326 52.6472 57.3333 52.8396C57.434 53.0319 57.4881 53.2456 57.4912 53.463Z" fill="white"/>
<path opacity="0.2" d="M73.7687 64.1904C73.8104 64.1547 73.8445 64.1109 73.8689 64.0616C73.8932 64.0122 73.9073 63.9584 73.9103 63.9034C73.9133 63.8484 73.9052 63.7933 73.8864 63.7416C73.8676 63.6899 73.8385 63.6425 73.8009 63.6025L70.5824 59.5848C70.4815 59.4707 70.4186 59.3275 70.4027 59.1755C70.3869 59.0235 70.4188 58.8702 70.4939 58.7375C70.7416 58.3375 70.8804 57.8789 70.8962 57.4077C70.9121 56.9266 70.8284 56.4473 70.6504 56.0006C70.4724 55.5539 70.204 55.1494 69.8623 54.813C68.8163 53.7467 67.2232 53.4548 66.0927 54.1197C64.6042 54.9995 64.4111 57.0833 65.6099 58.5793C65.9287 58.986 66.3328 59.3164 66.7932 59.547C67.2537 59.7776 67.7591 59.9027 68.2732 59.9132C68.5666 59.9139 68.8585 59.8688 69.1382 59.7794C69.2855 59.7424 69.4404 59.7499 69.5835 59.8011C69.7267 59.8523 69.8516 59.9449 69.9428 60.0672L73.1612 64.0809C73.2275 64.1727 73.3263 64.2354 73.4372 64.2557C73.548 64.2761 73.6624 64.2527 73.7566 64.1904H73.7687ZM66.2576 58.1091C65.453 57.0955 65.5174 55.709 66.4145 55.0157C66.7538 54.7614 67.1665 54.6262 67.5893 54.6306C67.9613 54.6377 68.3272 54.7279 68.6604 54.8948C68.9937 55.0616 69.286 55.301 69.5164 55.5955C69.9039 56.0606 70.1048 56.6549 70.0796 57.2617C70.0711 57.5383 70.0021 57.8097 69.8777 58.0563C69.7532 58.303 69.5763 58.519 69.3595 58.6888C68.4623 59.3659 67.0703 59.1064 66.2576 58.0969V58.1091Z" fill="url(#paint6_linear_1_23255)"/>
<path d="M72.9759 64.5147C73.0179 64.4788 73.0522 64.4345 73.0765 64.3846C73.1009 64.3348 73.1149 64.2804 73.1175 64.2249C73.1201 64.1694 73.1114 64.1139 73.0919 64.062C73.0724 64.01 73.0425 63.9626 73.004 63.9228L69.7856 59.9051C69.6846 59.791 69.6217 59.6478 69.6059 59.4958C69.59 59.3437 69.6219 59.1905 69.6971 59.0577C69.943 58.657 70.0816 58.1988 70.0994 57.728C70.1135 57.2477 70.0289 56.7696 69.851 56.3238C69.673 55.878 69.4056 55.474 69.0655 55.1373C68.0195 54.067 66.4263 53.7751 65.2959 54.4441C63.8073 55.3198 63.6142 57.4036 64.8131 58.9037C65.1314 59.311 65.5353 59.6423 65.9958 59.8736C66.4563 60.1049 66.9619 60.2306 67.4763 60.2416C67.7688 60.243 68.0596 60.1964 68.3373 60.1037C68.4847 60.0708 68.6383 60.0803 68.7806 60.1312C68.9229 60.1821 69.0481 60.2723 69.1419 60.3916L72.3603 64.4052C72.426 64.4977 72.5245 64.5612 72.6354 64.5823C72.7463 64.6034 72.8611 64.5807 72.9557 64.5188L72.9759 64.5147ZM65.4648 58.4334C64.6602 57.4198 64.7246 56.0333 65.6217 55.3441C65.9577 55.0812 66.3711 54.9386 66.7964 54.9387C67.1685 54.9458 67.5343 55.036 67.8676 55.2029C68.2008 55.3698 68.4931 55.6091 68.7235 55.9036C69.1066 56.3712 69.307 56.9638 69.2867 57.5698C69.2774 57.8463 69.2081 58.1173 69.0837 58.3639C68.9593 58.6104 68.7827 58.8265 68.5666 58.9969C67.6654 59.6902 66.2774 59.4307 65.4648 58.4172V58.4334Z" fill="white"/>
<path d="M62.6449 45.4639L38.6031 31.6796C38.3319 31.5237 38.1065 31.2984 37.9497 31.0264C37.7928 30.7544 37.7101 30.4455 37.71 30.1309V12.4667C37.7101 12.3245 37.7474 12.1848 37.8181 12.0616C37.8887 11.9385 37.9903 11.8362 38.1126 11.7652C38.2349 11.6941 38.3736 11.6567 38.5148 11.6567C38.6559 11.6568 38.7946 11.6942 38.9169 11.7654L62.9587 25.5497C63.2309 25.7047 63.4574 25.9297 63.615 26.2018C63.7726 26.4739 63.8557 26.7833 63.8559 27.0984V44.7747C63.854 44.9165 63.8153 45.0554 63.7435 45.1774C63.6718 45.2994 63.5696 45.4003 63.447 45.4701C63.3245 45.5398 63.1859 45.576 63.0452 45.5749C62.9044 45.5738 62.7664 45.5355 62.6449 45.4639Z" fill="url(#paint7_linear_1_23255)"/>
<path d="M52.386 29.539C52.386 33.7067 49.7791 35.596 46.5646 33.7513C43.3502 31.9067 40.7393 27.0376 40.7393 22.8699C40.7393 18.7022 43.3462 16.8129 46.5646 18.6535C49.7831 20.4941 52.386 25.3673 52.386 29.539Z" fill="#1A64F0"/>
<path d="M52.2576 31.0432C52.3437 30.5465 52.3867 30.0433 52.3863 29.5391C52.3863 25.3673 49.7794 20.4942 46.5649 18.6536V26.2025L52.2576 31.0432Z" fill="#FFB637"/>
<path d="M50.7892 33.8124C51.5955 33.0992 52.1174 32.1152 52.2576 31.0434L46.5649 26.2026L50.7892 33.8124Z" fill="#D94141"/>
<path d="M40.8315 24.1228C41.2821 27.9702 43.6799 32.0812 46.5765 33.7353C48.238 34.6921 49.7386 34.6435 50.8007 33.7961L46.5765 26.1864L40.8315 24.1228Z" fill="#C9DAFF"/>
<g opacity="0.2">
<path d="M61.0923 30.3985L54.5106 26.6241C54.3889 26.5368 54.2891 26.4221 54.2192 26.2891C54.1494 26.156 54.1114 26.0083 54.1083 25.8578C54.1083 25.5619 54.2933 25.4281 54.5106 25.5578L61.1004 29.3323C61.2226 29.4199 61.3227 29.5353 61.3926 29.6691C61.4625 29.8029 61.5002 29.9514 61.5027 30.1026C61.5027 30.3945 61.3176 30.5283 61.0923 30.3985Z" fill="black"/>
<path d="M61.0922 33.5041L54.5024 29.7337C54.3808 29.6453 54.2812 29.5298 54.2114 29.3962C54.1416 29.2625 54.1035 29.1144 54.1001 28.9634C54.1001 28.6674 54.2852 28.5336 54.5024 28.6634L61.0922 32.4378C61.2144 32.5255 61.3146 32.6409 61.3844 32.7747C61.4543 32.9085 61.492 33.0569 61.4945 33.2081C61.5025 33.5 61.3175 33.6338 61.0922 33.5041Z" fill="black"/>
<path d="M61.0922 36.6096L54.5105 32.8392C54.3889 32.7508 54.2893 32.6353 54.2195 32.5017C54.1497 32.368 54.1116 32.2199 54.1082 32.0689C54.1082 31.7729 54.2932 31.6391 54.5105 31.7689L61.1002 35.5433C61.2225 35.631 61.3226 35.7464 61.3925 35.8802C61.4624 36.014 61.5001 36.1624 61.5026 36.3136C61.5026 36.6055 61.3175 36.7393 61.0922 36.6096Z" fill="black"/>
<path d="M61.0922 39.7151L54.5024 35.9447C54.3808 35.8564 54.2812 35.7408 54.2114 35.6072C54.1416 35.4735 54.1035 35.3254 54.1001 35.1744C54.1001 34.8784 54.2852 34.7447 54.5024 34.8744L61.0922 38.6489C61.2144 38.7365 61.3146 38.8519 61.3844 38.9857C61.4543 39.1195 61.492 39.268 61.4945 39.4191C61.5025 39.7111 61.3175 39.8448 61.0922 39.7151Z" fill="black"/>
</g>
<path d="M93.3168 102.369L47.2085 75.2908V59.4794C47.2085 58.7415 47.6631 58.4091 48.2223 58.7375L92.303 84.6235C92.6095 84.8433 92.8609 85.1323 93.0369 85.4673C93.2129 85.8024 93.3088 86.1743 93.3168 86.5533V102.369Z" fill="url(#paint8_linear_1_23255)"/>
<path d="M23.4199 29.9202L24.6791 30.5608C25.174 30.8162 25.4234 31.4 25.355 32.1825L25.0774 35.4745C25.0741 35.5139 25.0816 35.5535 25.0992 35.5888C25.1167 35.6242 25.1436 35.654 25.1769 35.675C25.2101 35.6959 25.2485 35.7072 25.2878 35.7076C25.327 35.708 25.3656 35.6975 25.3993 35.6772L25.5642 35.584C25.8013 35.4484 25.9836 35.2331 26.0792 34.9758L27.5919 30.9216C28.2718 29.0932 28.3442 27.3945 27.789 26.2188L25.0412 20.3848L23.4199 29.9202Z" fill="#1A64F0"/>
<path d="M21.4001 2.00293C21.4001 2.00293 17.1719 4.46383 17.1719 14.2142C17.1719 21.609 19.1351 31.8297 19.1351 31.8297C19.1351 31.8297 19.638 32.6405 21.4001 32.6405C22.2307 32.6752 23.0424 32.3846 23.6651 31.8297C23.6651 31.8297 25.6284 21.609 25.6284 14.2142C25.6284 4.46383 21.4001 2.00293 21.4001 2.00293Z" fill="#C9DAFF"/>
<path d="M23.2829 4.07057C22.8125 3.25117 22.1699 2.54544 21.4001 2.00293C20.6335 2.54454 19.9925 3.24719 19.5213 4.06246C18.4633 5.84135 17.7787 7.82004 17.5098 9.87619C19.7426 11.0397 23.1179 11.056 25.3226 9.92078C25.0481 7.85035 24.3538 5.85897 23.2829 4.07057Z" fill="#1A64F0"/>
<path d="M22.6676 11.7816C21.7946 12.3087 21.0825 14.3682 21.0825 16.3548C21.0825 18.3413 21.7946 19.5657 22.6676 19.067C23.5406 18.5684 24.2567 16.5129 24.2567 14.4939C24.2567 12.4749 23.5326 11.2546 22.6676 11.7816Z" fill="#25468F"/>
<path d="M22.6676 20.1171C22.0199 20.5225 21.4849 22.0428 21.4849 23.5226C21.4849 25.0024 22.0199 25.9105 22.6676 25.5497C23.3154 25.1889 23.8504 23.6483 23.8504 22.1442C23.8504 20.6401 23.3194 19.7238 22.6676 20.1171Z" fill="#25468F"/>
<path d="M19.8314 32.3162L18.89 33.873C18.4047 34.614 18.1562 35.487 18.178 36.3745L18.4676 39.4597C18.4795 39.5834 18.4554 39.708 18.3982 39.8181C18.3411 39.9282 18.2533 40.0192 18.1458 40.08C17.9959 40.1652 17.8197 40.1899 17.6524 40.1493C17.4852 40.1087 17.3395 40.0057 17.2446 39.8611L15.8566 37.7164C15.1405 36.6177 15.052 34.9231 15.6475 33.0257L18.2826 24.4105C18.2942 24.3679 18.3202 24.3307 18.3561 24.3052C18.3919 24.2798 18.4355 24.2677 18.4792 24.2711C18.523 24.2744 18.5642 24.293 18.5958 24.3236C18.6275 24.3542 18.6476 24.395 18.6527 24.4389L19.8314 32.3162Z" fill="#1A64F0"/>
<path d="M6.98189 72.8015C8.04812 73.4109 9.25391 73.7289 10.4797 73.7239C11.7055 73.7189 12.9086 73.3912 13.97 72.7731L39.8745 57.7158C40.1704 57.5446 40.4162 57.2978 40.5871 57.0002C40.758 56.7027 40.8481 56.365 40.8481 56.0211C40.8481 55.6773 40.758 55.3396 40.5871 55.0421C40.4162 54.7445 40.1704 54.4977 39.8745 54.3265C38.8086 53.7182 37.6036 53.4008 36.3787 53.4058C35.1538 53.4108 33.9514 53.7379 32.8904 54.3549L6.98592 69.4162C6.68976 69.5865 6.4435 69.8326 6.27209 70.1296C6.10067 70.4267 6.01018 70.7641 6.00977 71.1077C6.00936 71.4513 6.09904 71.7889 6.26975 72.0863C6.44047 72.3838 6.68614 72.6305 6.98189 72.8015Z" fill="#C9DAFF" fill-opacity="0.5"/>
<path d="M14.77 59.4915H9.54004V69.7689C9.55727 70.0044 9.63742 70.2309 9.77198 70.4244C9.90655 70.6178 10.0905 70.7709 10.3044 70.8675C10.8789 71.1576 11.5125 71.3086 12.155 71.3086C12.7975 71.3086 13.4312 71.1576 14.0057 70.8675C14.2196 70.7714 14.4034 70.6183 14.5374 70.4247C14.6714 70.2311 14.7505 70.0044 14.766 69.7689L14.77 59.4915Z" fill="url(#paint9_linear_1_23255)"/>
<path d="M10.3088 60.5864C9.291 59.9985 9.28697 59.0174 10.3088 58.4092C10.8798 58.1077 11.5148 57.9502 12.1594 57.9502C12.8041 57.9502 13.4391 58.1077 14.0101 58.4092C15.0319 59.0174 15.0359 59.9985 14.0101 60.5864C13.4362 60.8782 12.8023 61.0303 12.1594 61.0303C11.5166 61.0303 10.8827 60.8782 10.3088 60.5864Z" fill="#FFB637"/>
<path d="M22.4702 45.8938H17.2402V65.3175C17.2569 65.5527 17.3369 65.7789 17.4715 65.9718C17.6062 66.1647 17.7905 66.3169 18.0046 66.4121C18.5785 66.704 19.2124 66.856 19.8552 66.856C20.4981 66.856 21.132 66.704 21.7059 66.4121C21.92 66.3174 22.1042 66.1652 22.2383 65.9722C22.3724 65.7791 22.4512 65.5526 22.4662 65.3175L22.4702 45.8938Z" fill="url(#paint10_linear_1_23255)"/>
<path d="M30.1709 38.1138H24.9409V60.8659C24.9584 61.1009 25.0387 61.3268 25.1733 61.5195C25.3079 61.7122 25.4917 61.8646 25.7053 61.9606C26.2792 62.2524 26.9131 62.4045 27.5559 62.4045C28.1988 62.4045 28.8326 62.2524 29.4065 61.9606C29.6204 61.8655 29.8043 61.7133 29.9384 61.5203C30.0724 61.3273 30.1515 61.101 30.1669 60.8659L30.1709 38.1138Z" fill="url(#paint11_linear_1_23255)"/>
<path d="M25.7092 39.2125C24.6914 38.6205 24.6874 37.6435 25.7092 37.0313C26.2811 36.7327 26.9158 36.5769 27.5598 36.5769C28.2039 36.5769 28.8386 36.7327 29.4104 37.0313C30.4323 37.6435 30.4363 38.6205 29.4104 39.2125C28.836 39.5025 28.2024 39.6535 27.5598 39.6535C26.9173 39.6535 26.2837 39.5025 25.7092 39.2125Z" fill="#FFB637"/>
<path d="M37.8706 23.4619H32.6406V56.4104C32.6579 56.646 32.738 56.8725 32.8726 57.0659C33.0071 57.2593 33.1911 57.4125 33.405 57.5091C33.9795 57.7991 34.6131 57.9501 35.2556 57.9501C35.8981 57.9501 36.5318 57.7991 37.1062 57.5091C37.3196 57.4123 37.503 57.259 37.6369 57.0655C37.7708 56.8721 37.8502 56.6457 37.8666 56.4104L37.8706 23.4619Z" fill="url(#paint12_linear_1_23255)"/>
<path d="M33.4089 24.5606C32.3911 23.9687 32.3871 22.9876 33.4089 22.3794C33.9808 22.0809 34.6155 21.925 35.2595 21.925C35.9036 21.925 36.5382 22.0809 37.1101 22.3794C38.132 22.9876 38.136 23.9687 37.1101 24.5606C36.5357 24.8506 35.902 25.0016 35.2595 25.0016C34.617 25.0016 33.9834 24.8506 33.4089 24.5606Z" fill="#FFB637"/>
<path d="M18.009 46.9884C16.9912 46.4006 16.9872 45.4195 18.009 44.8113C18.5809 44.5128 19.2156 44.3569 19.8596 44.3569C20.5037 44.3569 21.1383 44.5128 21.7102 44.8113C22.7321 45.4195 22.7361 46.4006 21.7102 46.9884C21.1363 47.2803 20.5025 47.4324 19.8596 47.4324C19.2168 47.4324 18.5829 47.2803 18.009 46.9884Z" fill="#FFB637"/>
<path d="M70.5026 76.886L45.508 62.2892C45.138 62.0991 44.7287 62 44.3136 62C43.8986 62 43.4894 62.0991 43.1193 62.2892L30.4905 69.7137C30.3471 69.7647 30.2228 69.8595 30.135 69.9849C30.0471 70.1104 30 70.2603 30 70.4141C30 70.5679 30.0471 70.7178 30.135 70.8433C30.2228 70.9688 30.3471 71.0635 30.4905 71.1145L55.4781 85.7114C55.852 85.9012 56.2645 86 56.6828 86C57.1011 86 57.5137 85.9012 57.8876 85.7114L70.5095 78.2869C70.6529 78.2359 70.7771 78.1411 70.8649 78.0156C70.9528 77.8902 71 77.7402 71 77.5865C71 77.4327 70.9528 77.2827 70.8649 77.1573C70.7771 77.0318 70.6529 76.937 70.5095 76.886" fill="url(#paint13_linear_1_23255)"/>
<path d="M68.0237 79.7296L40.6265 63.7319L36.6731 66.0503L64.0702 82.055L68.0237 79.7296Z" fill="#25468F"/>
<path d="M54.4325 69.1254L44.7393 63.473C44.613 63.4072 44.473 63.3729 44.3309 63.3729C44.1888 63.3729 44.0488 63.4072 43.9224 63.473C43.7008 63.606 43.7008 63.8162 43.9224 63.9493L53.6156 69.6017C53.7412 69.6657 53.8799 69.6991 54.0206 69.6991C54.1613 69.6991 54.3001 69.6657 54.4257 69.6017C54.4771 69.5862 54.5222 69.5543 54.5543 69.5108C54.5864 69.4672 54.6037 69.4143 54.6037 69.36C54.6037 69.3057 54.5864 69.2529 54.5543 69.2093C54.5222 69.1658 54.4771 69.1339 54.4257 69.1184" fill="#25468F"/>
<path d="M56.3505 79.6107C55.688 79.2688 54.9549 79.0905 54.2111 79.0905C53.4674 79.0905 52.7342 79.2688 52.0717 79.6107C50.8947 80.3111 50.9016 81.4178 52.0717 82.1112C52.6386 82.4216 53.2691 82.5942 53.9134 82.6155C53.8907 82.3218 53.9602 82.0283 54.1118 81.7769C54.2634 81.5254 54.4896 81.3286 54.7581 81.2146C55.5074 80.8179 56.3522 80.6431 57.1953 80.7103C57.1391 80.4787 57.0329 80.2626 56.8845 80.0773C56.7361 79.892 56.549 79.7423 56.3367 79.6387" fill="url(#paint14_linear_1_23255)"/>
<path d="M59.0574 81.1867C58.4864 80.8804 57.8545 80.708 57.2087 80.6824C57.2391 80.9817 57.1733 81.283 57.0212 81.5417C56.869 81.8003 56.6386 82.0025 56.364 82.1183C55.6155 82.5167 54.7696 82.6893 53.9269 82.6156C53.9834 82.8489 54.0903 83.0666 54.2399 83.2532C54.3896 83.4397 54.5782 83.5903 54.7923 83.6942C55.4536 84.0361 56.1857 84.2143 56.9284 84.2143C57.671 84.2143 58.403 84.0361 59.0643 83.6942C60.2413 82.9938 60.2413 81.8801 59.0643 81.1867" fill="url(#paint15_linear_1_23255)"/>
<path d="M57.2086 80.6821C56.3655 80.6149 55.5209 80.7897 54.7716 81.1864C54.5031 81.3004 54.2768 81.4972 54.1252 81.7487C53.9735 82.0001 53.9041 82.2936 53.9268 82.5873C54.7695 82.661 55.6154 82.4884 56.364 82.09C56.6386 81.9742 56.869 81.772 57.0211 81.5134C57.1732 81.2548 57.239 80.9535 57.2086 80.6541" fill="#FFB637"/>
<path d="M92.5438 25.5336C95.1409 24.0122 95.1235 19.099 92.5049 14.5597C89.8864 10.0203 85.6583 7.57375 83.0613 9.09514C80.4642 10.6165 80.4816 15.5297 83.1002 20.0691C85.7187 24.6085 89.9467 27.055 92.5438 25.5336Z" fill="url(#paint16_linear_1_23255)"/>
<path d="M91.4278 23.6028C93.414 22.4393 93.4011 18.6824 91.3989 15.2116C89.3968 11.7407 86.1636 9.8703 84.1774 11.0338C82.1912 12.1974 82.2041 15.9543 84.2063 19.4251C86.2084 22.8959 89.4416 24.7664 91.4278 23.6028Z" fill="url(#paint17_linear_1_23255)"/>
<path d="M87.7766 17.417L85.0933 11.5952L85.2139 11.5627L87.8249 17.2265L90.5526 17.3075L90.6169 17.5021L87.7766 17.417Z" fill="#25468F"/>
<path d="M88.135 17.5184C88.135 17.7292 87.9861 17.8143 87.8051 17.7089C87.7084 17.6452 87.6278 17.5596 87.5699 17.459C87.5119 17.3583 87.4781 17.2453 87.4712 17.1292C87.4712 16.9143 87.62 16.8291 87.8051 16.9386C87.9015 17.0023 87.9816 17.0879 88.0389 17.1887C88.0962 17.2894 88.1291 17.4024 88.135 17.5184Z" fill="#25468F"/>
<path d="M90.9187 17.5711C90.9187 17.7819 90.7699 17.867 90.5888 17.7616C90.4921 17.6979 90.4116 17.6123 90.3536 17.5117C90.2956 17.411 90.2618 17.298 90.2549 17.1819C90.2549 16.967 90.4038 16.8818 90.5888 16.9873C90.6849 17.0522 90.7646 17.1388 90.8219 17.2401C90.8791 17.3414 90.9122 17.4547 90.9187 17.5711Z" fill="#25468F"/>
<path d="M85.4877 11.7737C85.4877 11.9845 85.3388 12.0737 85.1538 11.9643C85.0564 11.9013 84.9753 11.8159 84.9173 11.7151C84.8592 11.6142 84.8258 11.5009 84.8198 11.3845C84.8198 11.1737 84.9687 11.0845 85.1538 11.194C85.2511 11.2569 85.3322 11.3424 85.3902 11.4432C85.4483 11.544 85.4817 11.6573 85.4877 11.7737Z" fill="#25468F"/>
<path opacity="0.2" d="M83.7056 54.9792L80.5636 59.6537L79.1756 60.4645L76.0698 52.1534L77.4538 51.3669V43.5909L78.8457 42.8003L82.3297 44.8274L82.3055 54.1927L83.7056 54.9792ZM76.7618 43.2625L73.656 34.9514L72.268 35.7623L69.126 40.4367L70.5059 41.2476L70.4817 50.6128L73.9657 52.6399L75.3577 51.8493V44.0734L76.7618 43.2625Z" fill="url(#paint18_linear_1_23255)"/>
<path d="M78.9502 46.656L75.4622 44.6289L75.434 53.9901L74.0581 53.1914L77.1599 61.4984L80.3019 56.8239L78.922 56.0212L78.9502 46.656Z" fill="url(#paint19_linear_1_23255)"/>
<path d="M70.2563 36.7961L67.1143 41.4706L68.4942 42.2734L68.466 51.6386L71.954 53.6697L71.9822 44.3045L73.3621 45.1073L70.2563 36.7961Z" fill="url(#paint20_linear_1_23255)"/>
</g>
<defs>
<linearGradient id="paint0_linear_1_23255" x1="78.391" y1="22.883" x2="98.8428" y2="11.0854" gradientUnits="userSpaceOnUse">
<stop offset="0.07" stop-color="#304CEB"/>
<stop offset="1" stop-color="#3B57F8" stop-opacity="0"/>
</linearGradient>
<linearGradient id="paint1_linear_1_23255" x1="18.3469" y1="42.9342" x2="118.228" y2="42.9342" gradientUnits="userSpaceOnUse">
<stop offset="0.07" stop-color="#304CEB"/>
<stop offset="1" stop-color="#3B57F8" stop-opacity="0"/>
</linearGradient>
<linearGradient id="paint2_linear_1_23255" x1="21.6253" y1="30.4068" x2="21.6253" y2="49.6765" gradientUnits="userSpaceOnUse">
<stop stop-color="#1963FF"/>
<stop offset="1" stop-color="#386BD9" stop-opacity="0"/>
</linearGradient>
<linearGradient id="paint3_linear_1_23255" x1="64.0082" y1="29.7256" x2="47.2085" y2="29.7256" gradientUnits="userSpaceOnUse">
<stop stop-color="#246CF9"/>
<stop offset="1" stop-color="#00379C"/>
</linearGradient>
<linearGradient id="paint4_linear_1_23255" x1="42.9399" y1="51.4318" x2="70.2646" y2="51.4318" gradientUnits="userSpaceOnUse">
<stop/>
<stop offset="1" stop-opacity="0"/>
</linearGradient>
<linearGradient id="paint5_linear_1_23255" x1="51.5506" y1="57.4885" x2="41.5962" y2="57.4885" gradientUnits="userSpaceOnUse">
<stop stop-color="#246CF9"/>
<stop offset="1" stop-color="#00379C"/>
</linearGradient>
<linearGradient id="paint6_linear_1_23255" x1="64.8536" y1="59.0172" x2="73.9095" y2="59.0172" gradientUnits="userSpaceOnUse">
<stop/>
<stop offset="1" stop-opacity="0"/>
</linearGradient>
<linearGradient id="paint7_linear_1_23255" x1="44.5" y1="36.5" x2="44.1278" y2="11.9981" gradientUnits="userSpaceOnUse">
<stop stop-color="#8EB2FF"/>
<stop offset="1" stop-color="#1099FC"/>
</linearGradient>
<linearGradient id="paint8_linear_1_23255" x1="79.4936" y1="64.7336" x2="68.0091" y2="84.3601" gradientUnits="userSpaceOnUse">
<stop stop-color="#386BD9" stop-opacity="0.6"/>
<stop offset="1" stop-color="#386BD9" stop-opacity="0"/>
</linearGradient>
<linearGradient id="paint9_linear_1_23255" x1="9.54406" y1="65.3984" x2="14.77" y2="65.3984" gradientUnits="userSpaceOnUse">
<stop offset="0.1" stop-color="#BA5D14"/>
<stop offset="1" stop-color="#FFB637"/>
</linearGradient>
<linearGradient id="paint10_linear_1_23255" x1="14.3275" y1="56.3739" x2="28.4042" y2="56.3739" gradientUnits="userSpaceOnUse">
<stop offset="0.1" stop-color="#BA5D14"/>
<stop offset="1" stop-color="#FFB637"/>
</linearGradient>
<linearGradient id="paint11_linear_1_23255" x1="24.9449" y1="50.2602" x2="30.1709" y2="50.2602" gradientUnits="userSpaceOnUse">
<stop offset="0.1" stop-color="#BA5D14"/>
<stop offset="1" stop-color="#FFB637"/>
</linearGradient>
<linearGradient id="paint12_linear_1_23255" x1="32.6446" y1="40.7085" x2="37.8706" y2="40.7085" gradientUnits="userSpaceOnUse">
<stop offset="0.1" stop-color="#BA5D14"/>
<stop offset="1" stop-color="#FFB637"/>
</linearGradient>
<linearGradient id="paint13_linear_1_23255" x1="44.9385" y1="80.0833" x2="30" y2="80.0833" gradientUnits="userSpaceOnUse">
<stop stop-color="#246CF9"/>
<stop offset="1" stop-color="#00379C"/>
</linearGradient>
<linearGradient id="paint14_linear_1_23255" x1="51.1924" y1="80.8504" x2="57.2091" y2="80.8504" gradientUnits="userSpaceOnUse">
<stop stop-color="#386BD9"/>
<stop offset="1" stop-color="#1EB337"/>
</linearGradient>
<linearGradient id="paint15_linear_1_23255" x1="53.9269" y1="82.4474" x2="59.9436" y2="82.4474" gradientUnits="userSpaceOnUse">
<stop stop-color="#386BD9"/>
<stop offset="1" stop-color="#1EB337"/>
</linearGradient>
<linearGradient id="paint16_linear_1_23255" x1="88.9304" y1="22.2284" x2="85.4904" y2="24.2128" gradientUnits="userSpaceOnUse">
<stop stop-color="#246CF9"/>
<stop offset="1" stop-color="#00379C"/>
</linearGradient>
<linearGradient id="paint17_linear_1_23255" x1="84.3382" y1="22.828" x2="91.8629" y2="11.0585" gradientUnits="userSpaceOnUse">
<stop stop-color="#CCDCFF"/>
<stop offset="0.92" stop-color="white"/>
</linearGradient>
<linearGradient id="paint18_linear_1_23255" x1="59.472" y1="47.71" x2="91.0545" y2="47.71" gradientUnits="userSpaceOnUse">
<stop offset="0.07" stop-color="#304CEB"/>
<stop offset="1" stop-color="#3B57F8" stop-opacity="0"/>
</linearGradient>
<linearGradient id="paint19_linear_1_23255" x1="77.18" y1="36.6016" x2="77.18" y2="58.178" gradientUnits="userSpaceOnUse">
<stop stop-color="#386BD9"/>
<stop offset="1" stop-color="#B3391E"/>
</linearGradient>
<linearGradient id="paint20_linear_1_23255" x1="70.2362" y1="36.6015" x2="70.2362" y2="58.178" gradientUnits="userSpaceOnUse">
<stop stop-color="#386BD9"/>
<stop offset="1" stop-color="#1EB337"/>
</linearGradient>
<clipPath id="clip0_1_23255">
<rect width="100" height="100" fill="white"/>
</clipPath>
</defs>
</svg>
