<svg width="50" height="50" viewBox="0 0 50 50" fill="none" xmlns="http://www.w3.org/2000/svg">
<path d="M25 50C38.8071 50 50 38.8071 50 25C50 11.1929 38.8071 0 25 0C11.1929 0 0 11.1929 0 25C0 38.8071 11.1929 50 25 50Z" fill="#172852"/>
<path d="M20.1379 11.1725C23.0654 10.0775 26.3604 10.075 29.3429 10.975C33.2254 12.18 36.5029 15.11 38.2154 18.7875C38.6879 19.835 39.1404 20.9274 39.1854 22.0924C37.0029 20.8275 34.6104 20.0075 32.2129 19.26C28.3779 17.8775 24.3629 16.9175 20.7329 15.0175C19.8879 14.5125 18.8104 13.995 18.5804 12.9425C18.4879 12.0325 19.4504 11.525 20.1379 11.1725Z" fill="#FFD83D"/>
<path d="M11.2996 20.0224C12.1471 17.7224 13.5371 15.5874 15.4246 14.0049C15.9046 17.9524 17.5846 21.7674 20.3596 24.6374C23.6871 28.0949 28.4271 30.2174 33.2496 30.1374C35.1646 30.1974 37.0371 29.7549 38.9046 29.3974C37.0671 36.0374 29.7896 40.4449 23.0471 39.3849C18.9771 38.8649 15.2196 36.4549 12.9521 33.0524C10.3946 29.2924 9.7496 24.2999 11.2996 20.0224Z" fill="#FFD83D"/>
<path d="M32.2124 19.2603C34.6099 20.0078 37.0024 20.8278 39.1849 22.0928L39.3324 22.1703C39.5349 23.6928 39.6824 25.2453 39.4124 26.7703C38.3149 26.3053 37.4249 25.4878 36.4949 24.7653C34.7049 23.2753 32.8774 21.5703 32.2124 19.2603Z" fill="#FF6F03"/>
</svg>
