<svg width="50" height="50" viewBox="0 0 50 50" fill="none" xmlns="http://www.w3.org/2000/svg">
<path d="M25 50C38.8069 50 50 38.8069 50 25C50 11.1931 38.8069 0 25 0C11.1931 0 0 11.1931 0 25C0 38.8069 11.1931 50 25 50Z" fill="#2A5ADA"/>
<path d="M25.0002 8.854L21.999 10.5718L13.9386 15.2092L10.9375 16.927V33.073L13.9386 34.7909L25.0858 41.1459L28.0869 39.4282L36.0617 34.7909L39.0627 33.073V16.927L36.0617 15.2092L28.0013 10.5718L25.0002 8.854ZM16.9398 29.7236V20.362L25.0002 15.7247L33.0604 20.362V29.723L25.0002 34.3609L16.9398 29.7236Z" fill="#FFFDFA"/>
</svg>
