<svg width="50" height="50" viewBox="0 0 50 50" fill="none" xmlns="http://www.w3.org/2000/svg">
<path d="M25 50C38.8071 50 50 38.8071 50 25C50 11.1929 38.8071 0 25 0C11.1929 0 0 11.1929 0 25C0 38.8071 11.1929 50 25 50Z" fill="#F0B90B"/>
<path fill-rule="evenodd" clip-rule="evenodd" d="M14.3603 18.65L25.0104 8L29.2569 12.2465L18.6069 22.8965L14.3603 18.65ZM14.3678 31.3765L31.3879 14.3569L35.6344 18.6034L18.6144 35.6229L14.3678 31.3765ZM37.7529 20.7339L20.7333 37.7534L24.9798 42L41.9994 24.9798L37.7529 20.7333V20.7339ZM8 25.0086L12.2465 20.7621L16.4931 25.0086L12.2465 29.2552L8 25.0086Z" fill="#FFFDFA"/>
</svg>
