<svg width="50" height="50" viewBox="0 0 50 50" fill="none" xmlns="http://www.w3.org/2000/svg">
<g clip-path="url(#clip0_1_5360)">
<path d="M25 50C38.8071 50 50 38.8071 50 25C50 11.1929 38.8071 0 25 0C11.1929 0 0 11.1929 0 25C0 38.8071 11.1929 50 25 50Z" fill="#FA305C"/>
<path d="M25.0008 43.4542C35.1924 43.4542 43.4542 35.1924 43.4542 25.0008C43.4542 14.8093 35.1924 6.54736 25.0008 6.54736C14.8093 6.54736 6.54736 14.8093 6.54736 25.0008C6.54736 35.1924 14.8093 43.4542 25.0008 43.4542Z" fill="white"/>
<path fill-rule="evenodd" clip-rule="evenodd" d="M25.0008 42.3016C34.5558 42.3016 42.3016 34.5558 42.3016 25.0008C42.3016 15.4458 34.5558 7.69998 25.0008 7.69998C15.4458 7.69998 7.69998 15.4458 7.69998 25.0008C7.69998 34.5558 15.4458 42.3016 25.0008 42.3016ZM43.4542 25.0008C43.4542 35.1924 35.1924 43.4542 25.0008 43.4542C14.8093 43.4542 6.54736 35.1924 6.54736 25.0008C6.54736 14.8093 14.8093 6.54736 25.0008 6.54736C35.1924 6.54736 43.4542 14.8093 43.4542 25.0008Z" fill="white"/>
<path d="M22.2377 32.6629C22.2377 32.7848 22.2138 32.9359 22.1661 33.1162C22.0175 33.6835 21.922 34.0069 21.8795 34.0865C21.7362 34.394 21.5001 34.614 21.1712 34.7466C21.4099 34.8738 21.5293 35.0674 21.5293 35.3272C21.5293 35.4332 21.5108 35.5552 21.4736 35.693L21.2746 36.4247C21.1526 36.8648 20.9775 37.1856 20.7493 37.3871C20.5052 37.6044 20.1604 37.7131 19.7147 37.7131H15.4009L16.937 31.9868H21.2667C21.914 31.9868 22.2377 32.2122 22.2377 32.6629ZM20.2956 33.4662H18.3139L18.107 34.2296H20.0887L20.2956 33.4662ZM19.7863 35.3749H17.8045L17.5975 36.1463H19.5794L19.7863 35.3749ZM28.3694 31.9868L27.9715 33.4662H24.9789L24.7799 34.2138H27.3665L27.0402 35.4227H24.4536L23.8408 37.7131H22.042L23.5781 31.9868H28.3694ZM34.5779 31.9868L34.18 33.4662H30.7019L29.9776 36.1623H31.9514L32.4608 34.2774H34.2357L33.7264 36.1623C33.5565 36.7826 33.3098 37.2015 32.9861 37.4189C32.689 37.6151 32.2061 37.7131 31.5376 37.7131H29.5637C29.1233 37.7131 28.8024 37.676 28.6007 37.6018C28.2558 37.4799 28.0834 37.2439 28.0834 36.894C28.0834 36.7031 28.1231 36.4592 28.2028 36.1623L28.927 33.4662C29.0862 32.8723 29.3382 32.4693 29.6831 32.2572C29.9802 32.0769 30.4525 31.9868 31.0998 31.9868H34.5779Z" fill="#080C1B"/>
<path d="M14.0227 20.3185C12.4941 23.6411 11.9326 26.1254 11.9326 26.1254C11.9326 26.1254 18.8159 25.4167 23.3584 30.6146C23.3584 30.6146 26.8419 29.0474 31.8825 30.701C31.8825 30.701 34.7251 27.1164 38.2817 27.0383C38.2817 27.0383 37.677 24.1812 35.5088 21.8077C35.9756 20.7213 36.202 19.3213 36.202 19.3213C36.202 19.3213 35.8446 18.3115 33.5623 16.2043C33.4926 12.4516 31.3029 10.605 31.3029 10.605C31.3029 10.605 29.1068 11.5018 27.8236 13.4621C27.8236 13.4621 25.5384 13.5046 23.6831 14.0398L22.3162 14.1158C22.3162 14.1158 21.4536 12.4043 18.2753 11.3757C18.2753 11.3757 15.8369 12.051 15.6098 17.4461C15.6098 17.4461 14.2763 17.1401 13.2271 20.3157C13.2285 20.3185 13.3343 20.3499 14.0227 20.3185Z" fill="#080C1B"/>
<path d="M22.2256 16.0794C20.6469 13.7798 18.4878 12.9951 18.4878 12.9951C18.4878 12.9951 16.8464 14.1652 17.2623 16.8641C17.5591 15.331 18.4391 14.5735 18.4391 14.5735C18.4391 14.5735 19.4883 15.3512 19.9251 16.9282C20.362 18.5052 22.2256 16.0794 22.2256 16.0794Z" fill="#5F5F68"/>
<path d="M25.4533 14.8774C19.2186 14.8774 16.5725 18.8495 16.5725 18.8495C16.9522 18.7284 17.3553 18.699 17.7486 18.7638C17.7486 18.7638 15.4314 21.0955 14.2783 24.276C14.2783 24.276 17.1487 23.9276 19.5356 25.4439C18.949 20.4781 23.5186 18.7039 25.1746 19.8774C24.9475 19.2217 24.1533 18.1687 22.0534 18.6231C23.922 16.6802 27.6305 17.5165 29.5269 19.8649C29.6595 19.4986 29.7474 19.1177 29.7889 18.7304C29.7889 18.7304 30.8687 19.2955 31.1718 20.2077C31.2415 19.6063 31.7368 18.8781 31.7368 18.8781C31.7368 18.8781 32.1437 19.4057 32.4112 20.3157C32.6089 20.0464 32.8756 19.8356 33.1831 19.7054C33.4907 19.5753 33.8277 19.5307 34.1586 19.5764C34.1586 19.5764 31.6881 14.8774 25.4533 14.8774Z" fill="#5F5F68"/>
<path d="M22.0534 18.6211C19.3613 19.3688 17.699 21.3716 17.0371 24.4489C17.922 24.6292 18.7678 24.9657 19.5348 25.4426C18.9482 20.4769 23.5178 18.7026 25.1738 19.8761C24.9509 19.2204 24.1532 18.1667 22.0534 18.6211Z" fill="white"/>
<path d="M28.2676 15.2275C29.9222 15.9244 31.542 16.8024 32.6136 19.1571L33.2734 19.6707C33.557 19.5712 33.8599 19.539 34.1582 19.5766C34.1582 19.5766 32.4436 16.3167 28.2676 15.2275Z" fill="#636363"/>
<path d="M32.7822 21.1657C33.1187 20.3992 33.7506 20.3706 33.7506 20.3706C33.7012 20.8489 33.5557 21.3123 33.3228 21.7329C33.1813 21.5104 32.9977 21.3177 32.7822 21.1657Z" fill="white"/>
<path d="M26.23 21.9766C29.8688 22.6414 30.2304 26.8686 32.3289 26.8686C33.6038 26.8686 34.0657 26.1236 34.0657 26.1236C33.2436 26.2338 32.648 25.5146 32.6027 25.0233C32.5574 24.532 32.6668 23.8923 32.6668 23.8923C32.6668 23.8923 33.7815 23.946 34.2629 24.3188C34.7088 24.0637 35.278 24.0087 35.278 24.0087C35.278 24.0087 34.6795 23.0616 33.1127 22.6059C32.9127 23.0561 32.409 23.4756 32.409 23.4756C32.409 23.4756 31.4211 21.9139 29.0384 21.3516C29.2067 21.6615 29.3105 22.0024 29.3435 22.3536C29.3435 22.3536 28.2462 21.4888 26.23 21.9766Z" fill="white"/>
<path d="M26.0938 23.9472C25.6674 23.4677 25.758 23.0043 25.758 23.0043C25.758 23.0043 25.967 22.7876 26.5878 22.7876C27.9073 22.7876 29.0959 25.1367 30.152 26.1262C28.6367 25.5966 25.9147 27.1715 25.4048 24.2363C25.8743 25.0628 26.5285 25.0684 26.5285 25.0684C26.4348 24.8548 26.4017 24.6194 26.4331 24.3883C26.8385 24.8238 27.6572 24.8391 27.6572 24.8391C26.8142 24.2343 26.4567 23.1667 26.4567 23.1667C26.1467 23.4761 26.0938 23.9472 26.0938 23.9472Z" fill="white"/>
<path d="M25.7377 22.1862C23.6706 22.8336 24.8752 27.0579 27.6606 26.7346C30.4459 26.4112 31.6401 27.2377 32.1306 28.5144C31.3596 28.0222 30.4639 27.7608 29.5493 27.761C29.7738 27.8602 29.9715 28.0114 30.1259 28.2021C30.2804 28.3929 30.3872 28.6176 30.4376 28.8579C29.9353 28.38 29.2672 28.1157 28.5739 28.1206C27.09 28.1206 25.5579 28.6698 24.2822 28.1311C22.916 26.2788 23.4734 24.4566 23.4734 24.4566C22.8798 24.7771 22.7544 25.4447 22.7544 25.4447C22.7544 25.4447 22.3489 22.1576 25.7377 22.1862Z" fill="white"/>
<path d="M32.13 28.5164C29.2004 25.012 24.4448 30.0384 23.4729 24.4565C23.4729 24.4565 22.9155 26.2788 24.2817 28.1311C25.5574 28.6698 27.0894 28.1206 28.5734 28.1206C29.2661 28.116 29.9337 28.3803 30.4357 28.8579C30.3855 28.6178 30.2788 28.3931 30.1246 28.2024C29.9704 28.0117 29.773 27.8604 29.5487 27.7611C30.4636 27.7614 31.3593 28.0235 32.13 28.5164Z" fill="white"/>
<path d="M25.9082 18.8325C26.4084 19.9795 26.9734 20.6255 26.9734 20.6255C26.9734 20.6255 27.6702 20.7224 28.2972 20.4311C28.2979 20.4311 27.6221 19.2653 25.9082 18.8325Z" fill="white"/>
<path d="M27.6816 15.0928C29.3384 15.7889 30.3835 16.6314 31.0105 18.6077L31.9921 18.8328C32.3872 19.561 33.8203 19.5387 34.156 19.5771C34.1582 19.5771 32.2646 15.9506 27.6816 15.0928Z" fill="#FA305C"/>
<path d="M29.5571 13.9194C30.1479 12.856 30.931 12.647 30.931 12.647C30.931 12.647 31.9531 13.8923 32.0186 15.9494C31.4169 15.4941 30.7476 15.136 30.035 14.888C30.4252 14.8511 30.8187 14.8986 31.1888 15.0274C31.1453 14.4041 30.928 13.8054 30.5618 13.2992C30.5618 13.2992 30.1778 13.3891 29.5571 13.9194Z" fill="#FA305C"/>
<path d="M34.2984 25.6621C34.6511 25.3366 34.9409 24.949 35.1533 24.5186C34.917 24.5627 34.688 24.6392 34.4726 24.7458C34.3508 25.0355 34.2914 25.3478 34.2984 25.6621Z" fill="#FA305C"/>
<path d="M31.3086 10.1987L31.0201 10.3381C30.6693 10.504 30.3299 10.6933 30.0043 10.9046C29.6808 11.1147 29.3702 11.3442 29.0742 11.5918C28.7795 11.8378 28.4985 12.1 28.2326 12.3771C28.0996 12.5165 27.97 12.6558 27.8446 12.805C27.7818 12.8747 27.7205 12.952 27.6599 13.028C27.6599 13.028 24.9184 13.0231 23.6846 14.0454C25.6527 13.5903 28.0417 14.0412 28.0417 14.0412L28.2194 13.7917C28.2375 13.7666 28.2653 13.729 28.289 13.6969L28.3678 13.5959C28.4214 13.5262 28.4771 13.4614 28.5336 13.3952C28.6465 13.2628 28.7649 13.1332 28.8861 13.0063C29.1283 12.7535 29.3841 12.5141 29.6525 12.2893C29.9215 12.0633 30.2039 11.8539 30.4983 11.6621C30.6982 11.5318 30.9052 11.4127 31.1155 11.3018C31.3615 11.5729 31.5849 11.8635 31.7837 12.1708C31.9119 12.3701 32.0289 12.5771 32.1376 12.789C32.2463 13.0008 32.3411 13.2189 32.4267 13.4412C32.598 13.8883 32.7277 14.3501 32.8141 14.821C32.858 15.0565 32.8908 15.2941 32.9117 15.5318C32.9228 15.6502 32.9298 15.7687 32.9346 15.8865C32.9346 15.9455 32.936 16.004 32.9388 16.0621V16.1478V16.2231L32.9318 16.4844L33.1457 16.6314L33.184 16.6579L33.2293 16.69L33.3206 16.7596C33.3819 16.8063 33.4432 16.8558 33.5031 16.906C33.623 17.007 33.7393 17.115 33.8515 17.2244C34.078 17.4456 34.2876 17.6834 34.4785 17.9359C34.6676 18.1864 34.8361 18.4519 34.9823 18.7297C35.1082 18.9712 35.2153 19.2221 35.3027 19.4802C35.2651 19.6488 35.2268 19.8168 35.1808 19.984C35.1271 20.1896 35.0645 20.3937 34.9996 20.5958C34.9349 20.798 34.8603 20.9986 34.783 21.1958C34.7446 21.2948 34.7036 21.3916 34.6617 21.4885L34.5983 21.6279C34.5774 21.6739 34.5531 21.7247 34.5349 21.7603L34.3468 22.1352L34.7001 22.3547C35.0774 22.5903 35.429 22.8647 35.7493 23.1736C35.8301 23.2495 35.9054 23.3303 35.982 23.4097C36.0586 23.4892 36.1311 23.5735 36.1993 23.6599C36.3396 23.8298 36.4688 24.0086 36.586 24.1951C36.94 24.7529 37.1845 25.373 37.3064 26.0223C37.3252 26.1296 37.342 26.2369 37.3531 26.3436C37.3534 26.3458 37.3534 26.3482 37.3531 26.3505C37.0744 26.4638 36.8032 26.5895 36.5393 26.7275C36.1696 26.9244 35.8127 27.1443 35.4706 27.3861C35.1302 27.6249 34.8045 27.8842 34.4952 28.1624C34.1881 28.4358 33.9015 28.7313 33.6376 29.0466C33.9511 28.7885 34.2831 28.5537 34.6311 28.3442C34.9743 28.1349 35.3298 27.9464 35.6956 27.7797C36.0565 27.6154 36.4274 27.4741 36.8062 27.3568C37.1788 27.2422 37.559 27.1537 37.9439 27.0919L38.2846 27.0376V26.6007V26.547L38.2797 26.4446C38.2755 26.3749 38.2692 26.3115 38.263 26.246C38.2483 26.115 38.2289 25.9861 38.2058 25.8585C38.1585 25.604 38.0948 25.3528 38.0149 25.1066C37.8565 24.6151 37.6364 24.1456 37.3601 23.7094C37.2229 23.4909 37.0718 23.2814 36.9079 23.0822C36.8284 22.9812 36.7407 22.8871 36.6557 22.7909C36.5707 22.6948 36.4787 22.6042 36.3854 22.5164C36.1138 22.2569 35.8224 22.019 35.5138 21.8049C35.5535 21.7129 35.5918 21.6209 35.6274 21.5262C35.7124 21.3115 35.7907 21.0948 35.8621 20.876C35.9318 20.6572 36.0015 20.4377 36.0586 20.2147C36.1158 19.9916 36.1701 19.7687 36.2181 19.5436L36.2433 19.4293L36.207 19.3164C36.0979 18.9672 35.958 18.6284 35.789 18.3038C35.6201 17.9824 35.4254 17.6752 35.2065 17.3854C34.9886 17.0971 34.7497 16.8253 34.4918 16.5722C34.3629 16.4461 34.2305 16.3241 34.0911 16.2077C34.0215 16.1492 33.9518 16.0921 33.878 16.0356L33.8522 16.0161C33.8522 15.9611 33.8522 15.9053 33.8487 15.8502C33.8431 15.715 33.8355 15.5812 33.8229 15.4475C33.7992 15.1806 33.7623 14.9165 33.7142 14.6537C33.6173 14.1275 33.4722 13.6113 33.2809 13.1116C33.184 12.8614 33.0719 12.6168 32.9542 12.3764C32.8326 12.1374 32.6989 11.9048 32.5536 11.6796C32.1903 11.1446 31.7731 10.6484 31.3086 10.1987Z" fill="#FA305C"/>
<path d="M34.1196 19.5026L34.0674 19.4009L34.1196 19.5026Z" fill="white"/>
<path d="M34.1323 19.5291L34.1182 19.5029L34.1323 19.5291Z" fill="white"/>
<path d="M34.1411 19.5414C34.1411 19.5363 34.136 19.5312 34.1338 19.5269L34.1411 19.5414Z" fill="white"/>
<path d="M34.1596 19.5791L34.1406 19.5425C34.1469 19.5538 34.1526 19.5658 34.1596 19.5791Z" fill="white"/>
<path d="M31.9941 19.2962C32.1683 19.6214 32.3084 19.9637 32.4122 20.3177C32.6096 20.0481 32.8764 19.837 33.1841 19.7067C33.4919 19.5764 33.8291 19.5318 34.1602 19.5777C33.235 18.9554 32.3829 19.1491 31.9941 19.2962Z" fill="white"/>
<path d="M29.7921 18.7314C27.5752 15.9948 22.6691 15.3349 19.481 18.8052C20.0174 18.4742 20.9642 18.2847 22.049 18.6254L22.0608 18.6192C23.9321 16.6861 27.6344 17.5251 29.5273 19.8673C29.6609 19.5007 29.7498 19.1193 29.7921 18.7314Z" fill="white"/>
<path d="M22.2522 29.4766C21.8537 29.1241 21.435 28.7951 20.9982 28.4913C20.12 27.8806 19.1818 27.3613 18.1982 26.9415C17.2092 26.5186 16.1829 26.189 15.1327 25.9568C14.2584 25.7629 13.3717 25.6303 12.479 25.5596C12.5605 25.2258 12.6518 24.8948 12.7577 24.5672C13.0752 23.5812 13.491 22.6296 13.9992 21.7269C14.126 21.502 14.2586 21.2806 14.397 21.0628C14.4666 20.9547 14.5363 20.8474 14.606 20.7422L14.7154 20.5861C14.7509 20.5366 14.7913 20.4816 14.822 20.4412L15.449 19.6321L14.4346 19.7081L13.9755 19.7415C13.9781 19.7373 13.9812 19.7333 13.9846 19.7297C14.1632 19.4915 14.3552 19.2635 14.5593 19.0468C14.7649 18.8265 14.9815 18.614 15.2052 18.4077C15.3174 18.3053 15.4309 18.2035 15.5459 18.1046C15.6608 18.0056 15.7813 17.906 15.8942 17.8196L16.0753 17.6802L16.067 17.4468C16.067 17.3862 16.067 17.3074 16.067 17.2377C16.067 17.168 16.067 17.0928 16.0732 17.0196C16.0788 16.8732 16.0885 16.7269 16.0997 16.5798C16.1234 16.2867 16.1578 15.9945 16.2028 15.7032C16.2902 15.1246 16.4271 14.5546 16.6118 13.9994C16.7921 13.4543 17.039 12.9335 17.3468 12.4489C17.6026 12.0481 17.9162 11.6874 18.2776 11.3785C18.5818 11.5007 18.8807 11.6338 19.1743 11.7778C19.544 11.9593 19.904 12.16 20.2527 12.3792C20.601 12.5969 20.9364 12.8345 21.2574 13.0907C21.4162 13.2182 21.5709 13.3506 21.7193 13.4879C21.7936 13.5562 21.8658 13.6259 21.9359 13.697L22.0384 13.8036L22.0865 13.8559L22.1268 13.9018L22.3191 14.1193C20.7202 11.3478 18.1278 10.3472 18.1278 10.3472L17.9278 10.4963C17.3966 10.8988 16.9415 11.3929 16.5839 11.9555C16.2356 12.5032 15.9566 13.0922 15.7535 13.7088C15.5512 14.3136 15.4015 14.9347 15.3062 15.5653C15.2597 15.8788 15.2228 16.1934 15.1954 16.5088C15.1829 16.667 15.1724 16.8251 15.1662 16.984C15.1662 17.0635 15.1606 17.1436 15.1592 17.2238V17.2433C15.0895 17.3004 15.0199 17.3576 14.9537 17.4161C14.8301 17.522 14.7087 17.6298 14.5893 17.7394C14.351 17.9597 14.1183 18.1882 13.8926 18.4272C13.6661 18.6691 13.4533 18.9234 13.2551 19.1889C13.0463 19.464 12.8652 19.759 12.7145 20.0697L12.38 20.7729L13.1597 20.715L13.5631 20.6851C13.44 20.8825 13.3213 21.0818 13.2071 21.2829C12.669 22.239 12.2284 23.2466 11.8917 24.2906C11.724 24.8143 11.5844 25.3465 11.4737 25.885L11.3643 26.4293H11.9119C12.9476 26.41 13.9831 26.4759 15.008 26.6265C16.0374 26.778 17.0503 27.0253 18.0337 27.3651C19.0234 27.7057 19.9754 28.1471 20.8749 28.6822C21.3264 28.9507 21.7621 29.2451 22.1798 29.5637C22.6016 29.8815 22.9962 30.2339 23.3593 30.6174C23.0227 30.207 22.6524 29.8254 22.2522 29.4766Z" fill="#080C1B"/>
<path d="M31.1552 17.4866C31.189 17.866 31.1395 18.2482 31.0103 18.6064C30.5038 17.7702 29.1592 16.8706 29.1592 16.8706C29.1592 16.8706 29.2455 18.15 28.916 19.0643L29.5807 19.7012C29.6816 19.3851 29.7505 19.0597 29.7862 18.7298C30.3886 19.0676 30.8717 19.5837 31.1691 20.2072C31.6164 19.6699 31.7342 18.8776 31.7342 18.8776C31.9617 19.2014 32.1447 19.5544 32.2783 19.927L32.8705 19.6225C32.4037 18.2748 31.1552 17.4866 31.1552 17.4866Z" fill="white"/>
<path d="M56.6422 2.15283L44.7002 9.42814L37.7422 18.6764L48.87 11.8697L56.6422 2.15283Z" fill="#FA305C"/>
<path d="M34.0511 2.46143L26.1946 7.22038L23.2866 12.0616L28.9379 8.81741L34.0511 2.46143Z" fill="white"/>
<path d="M21.0461 38.29L15.9462 40.823L11.6436 46.5282L18.5247 42.3291L21.0461 38.29Z" fill="white"/>
<path d="M23.2507 39.3247L11.3086 46.6L4.35059 55.8483L15.4784 49.0416L23.2507 39.3247Z" fill="#FA305C"/>
<path d="M16.579 28.8662L-0.392137 39.2017L-10.2803 52.34L5.53373 42.6702L16.579 28.8662Z" fill="#FA305C"/>
<path d="M41.8177 -7.9082L28.3881 0.285129L20.5635 10.7004L33.0773 3.03477L41.8177 -7.9082Z" fill="#FA305C"/>
<path d="M50.1661 25C50.4632 25 50.7045 25.241 50.6984 25.538C50.5599 32.16 47.8691 38.4814 43.1757 43.1748C38.4825 47.868 32.161 50.5589 25.539 50.6974C25.2419 50.7036 25.001 50.4621 25.001 50.1651V48.1565C25.001 47.8595 25.2419 47.6193 25.5389 47.6123C31.3428 47.4743 36.8799 45.1086 40.9948 40.9938C45.1097 36.8789 47.4753 31.3418 47.6132 25.5379C47.6203 25.2409 47.8604 25 48.1575 25H50.1661Z" fill="white"/>
<path d="M25.0002 -0.166344C25.0002 -0.463414 24.7593 -0.704822 24.4622 -0.698613C17.8402 -0.56014 11.5187 2.13069 6.82546 6.82397C2.13216 11.5173 -0.558675 17.8387 -0.697148 24.4608C-0.703363 24.7578 -0.461952 24.9987 -0.164882 24.9987H1.84369C2.14076 24.9987 2.38092 24.7578 2.38797 24.4609C2.52588 18.6569 4.89156 13.1199 9.00641 9.00498C13.1213 4.89009 18.6584 2.52442 24.4624 2.38651C24.7593 2.37945 25.0002 2.1393 25.0002 1.84223V-0.166344Z" fill="white"/>
</g>
<defs>
<clipPath id="clip0_1_5360">
<rect width="50" height="50" fill="white"/>
</clipPath>
</defs>
</svg>
